#define 31738_img111_width 47
#define 31738_img111_height 12
static char 31738_img111_bits[] = {
 0x00,0x00,0x00,0x00,0x40,0x00,0x00,0x00,0x00,0x01,0x80,0x00,0x00,0x00,0x80,
 0x00,0x80,0x3c,0x00,0x00,0x80,0x00,0x80,0x28,0x26,0x00,0x80,0x38,0x8e,0x68,
 0x15,0xfc,0x81,0x44,0x99,0x00,0x12,0x00,0xc0,0x84,0x90,0x03,0x32,0xfc,0x81,
 0x44,0x91,0x00,0x3e,0x00,0x80,0x38,0x8e,0x00,0x00,0x00,0x80,0x00,0x80,0x00,
 0x00,0x00,0x80,0x00,0x80,0x00,0x00,0x00,0x00,0x03,0xc0,0x00};
