#define 32093_img128_width 84
#define 32093_img128_height 13
static char 32093_img128_bits[] = {
 0x00,0x00,0x00,0x00,0x00,0x0c,0x00,0x00,0x00,0x00,0x00,0x00,0x00,0x00,0x00,
 0x00,0x08,0x00,0x00,0x00,0x00,0x0f,0x00,0x04,0x04,0x00,0x00,0x88,0x02,0x80,
 0x40,0x28,0x09,0x1e,0x02,0x08,0x00,0x00,0x88,0xc2,0x43,0x80,0x28,0x08,0x29,
 0x02,0x10,0x00,0x00,0x9c,0xc2,0x43,0x00,0x29,0x06,0x29,0xe1,0x13,0x04,0x00,
 0x80,0xa2,0x24,0x3e,0x29,0x0f,0x29,0xa1,0x12,0xe0,0x0f,0xbe,0xa2,0x24,0x2a,
 0x29,0x00,0x1e,0x81,0x10,0x00,0x00,0x80,0xa2,0x26,0x08,0x29,0x00,0x08,0x41,
 0x12,0xe0,0x0f,0x9e,0xc2,0x23,0x24,0x29,0x0f,0x1e,0xf1,0x11,0x04,0x00,0x92,
 0xc2,0x23,0x1f,0x29,0x09,0x00,0x01,0x10,0x00,0x00,0x90,0x02,0x20,0x00,0x29,
 0x08,0x00,0x02,0x08,0x00,0x00,0x8c,0x02,0x40,0x80,0x28,0x06,0x00,0x04,0x08,
 0x00,0x00,0x9e,0x02,0x80,0x80,0x28,0x0f};
