#define 29599_img13_width 21
#define 29599_img13_height 6
static char 29599_img13_bits[] = {
 0x0e,0x00,0x00,0x03,0x20,0x10,0x0f,0x20,0x10,0xe1,0x7f,0x17,0x1e,0xa2,0x0c,
 0x70,0xb2,0x1b};
