#define 31647_img106_width 45
#define 31647_img106_height 11
static char 31647_img106_bits[] = {
 0x00,0x01,0x00,0x06,0x00,0x18,0x80,0x03,0x00,0xc2,0x00,0x10,0x80,0x03,0x0e,
 0xa2,0x00,0x10,0x1f,0x01,0x01,0xe2,0x60,0x12,0x1d,0x80,0x00,0x72,0x50,0x11,
 0x04,0x80,0x0f,0x12,0x20,0x11,0x27,0x80,0x00,0x12,0x20,0x13,0x1f,0x00,0x01,
 0x62,0xe6,0x13,0x00,0x00,0x0e,0x02,0x04,0x10,0x00,0x00,0x00,0x02,0x02,0x10,
 0x00,0x00,0x00,0x06,0x00,0x18};
