#define 31870_img117_width 34
#define 31870_img117_height 9
static char 31870_img117_bits[] = {
 0x7f,0x30,0x1c,0xc0,0x01,0x41,0x08,0x60,0x20,0x02,0x42,0x1c,0x80,0x21,0x02,
 0x22,0x08,0x80,0x20,0x02,0x24,0x08,0x60,0x20,0x02,0x14,0x08,0x1c,0x20,0x02,
 0x08,0x04,0x00,0xc0,0x01,0x00,0x04,0x00,0x00,0x00,0x00,0x06,0xfc,0x01,0x00};
