#define 31537_img101_width 55
#define 31537_img101_height 9
static char 31537_img101_bits[] = {
 0x18,0x00,0x3f,0x0f,0x00,0x80,0x1f,0x04,0x00,0x66,0x0a,0x00,0x01,0x33,0x0e,
 0x02,0x66,0x1a,0x00,0x01,0x33,0x04,0x00,0x1e,0x00,0x00,0x02,0x0f,0x04,0x00,
 0x2e,0x00,0xfe,0x07,0x17,0x04,0x00,0x56,0x00,0x00,0x02,0x2b,0x02,0x02,0xef,
 0x00,0x00,0x81,0x77,0x02,0x00,0x00,0x00,0x00,0x00,0x00,0x03,0x00,0x00,0x00,
 0x00,0x00,0x00};
