#define 31691_img108_width 64
#define 31691_img108_height 12
static char 31691_img108_bits[] = {
 0x00,0x00,0x00,0x00,0x00,0x00,0x00,0x10,0x00,0x00,0x10,0x00,0x00,0x00,0x00,
 0x20,0x04,0x00,0x88,0x01,0x00,0x00,0x00,0x20,0x00,0x1c,0x08,0x01,0x00,0x00,
 0x00,0x20,0x06,0x02,0x08,0x01,0x00,0x00,0xa0,0x23,0x05,0x01,0x08,0x01,0x00,
 0x00,0x50,0x22,0x04,0x1f,0x0c,0x01,0x00,0x00,0x20,0xe2,0x0a,0x01,0x08,0x01,
 0x00,0x00,0x20,0x25,0x06,0x02,0x88,0x67,0x42,0x08,0x23,0x23,0x00,0x1c,0x08,
 0x40,0x00,0x00,0x02,0x20,0x00,0x00,0x08,0x20,0x00,0x00,0x01,0x20,0x00,0x00,
 0x30,0x00,0x00,0x00,0x00,0x30};
