#define 31936_img120_width 19
#define 31936_img120_height 11
static char 31936_img120_bits[] = {
 0x03,0x00,0x06,0x61,0x00,0x04,0x51,0x00,0x04,0x71,0x30,0x05,0x39,0xa8,0x04,
 0x09,0x90,0x04,0x09,0x90,0x05,0xb1,0xf1,0x05,0x01,0x01,0x04,0x81,0x00,0x04,
 0x03,0x00,0x06};
