#define 32137_img130_width 75
#define 32137_img130_height 12
static char 32137_img130_bits[] = {
 0x00,0x08,0x40,0x00,0x00,0x00,0x00,0x00,0x10,0x00,0x00,0x08,0x40,0x00,0x00,
 0x00,0x00,0x10,0x10,0x01,0xdc,0x3b,0xc8,0x01,0x00,0x00,0x78,0x08,0x70,0x02,
 0x88,0x18,0xc8,0x00,0x00,0x00,0x78,0x08,0x30,0x04,0x88,0x34,0xaf,0x01,0x00,
 0x00,0x94,0xc4,0x6f,0x04,0xfc,0x00,0x09,0xc0,0x1f,0x00,0x94,0x44,0x05,0x04,
 0x44,0x80,0x04,0x00,0x00,0xfe,0xd4,0x04,0x01,0x04,0x44,0x80,0x14,0xc0,0x1f,
 0x00,0x78,0x84,0x04,0x04,0xef,0x80,0x0f,0x00,0x00,0x00,0x78,0xe4,0x03,0x04,
 0x00,0x00,0x00,0x00,0x00,0x00,0x00,0x04,0x00,0x04,0x00,0x00,0x00,0x00,0x00,
 0x00,0x00,0x08,0x00,0x02,0x00,0x00,0x00,0x00,0x00,0x00,0x00,0x10,0x00,0x02};
