#define 31892_img118_width 34
#define 31892_img118_height 9
static char 31892_img118_bits[] = {
 0x7f,0x30,0x00,0xc1,0x01,0x41,0x08,0xe0,0x20,0x02,0x42,0x1c,0x1c,0x20,0x02,
 0x22,0x08,0x18,0x20,0x02,0x24,0x08,0xe0,0x20,0x02,0x14,0x08,0x00,0x21,0x02,
 0x08,0x04,0x00,0xc0,0x01,0x00,0x04,0x00,0x00,0x00,0x00,0x06,0xfc,0x01,0x00};
