#define 32379_img141_width 45
#define 32379_img141_height 9
static char 32379_img141_bits[] = {
 0x00,0x00,0x00,0x00,0xc0,0x0c,0x1c,0x00,0x00,0x00,0x80,0x12,0x04,0x00,0x60,
 0x1c,0x80,0x12,0x04,0x00,0x40,0xa2,0x8f,0x12,0x0e,0x00,0x40,0x22,0xc0,0x0d,
 0x09,0xfe,0x40,0x22,0x00,0x00,0x09,0x00,0x40,0x22,0x00,0x00,0x09,0xfe,0x40,
 0x22,0x00,0x00,0x06,0x00,0xe0,0x1d,0x00,0x00};
