#define 31716_img110_width 53
#define 31716_img110_height 12
static char 31716_img110_bits[] = {
 0x00,0x00,0x00,0x00,0x00,0x10,0x00,0x00,0x00,0x20,0x00,0x00,0x20,0x00,0x0c,
 0x00,0x10,0x00,0x00,0x20,0x0f,0x0a,0x00,0x10,0x00,0x00,0x20,0x0a,0x0e,0x00,
 0x10,0x00,0x8e,0x23,0x1a,0x87,0x3f,0x10,0x00,0x51,0x26,0x00,0x01,0x00,0x18,
 0x7f,0x21,0xe4,0x00,0x81,0x3f,0x10,0x00,0x51,0x24,0x00,0x06,0x00,0x10,0x00,
 0x8e,0x23,0x00,0x00,0x00,0x10,0x00,0x00,0x20,0x00,0x00,0x00,0x10,0x00,0x00,
 0x20,0x00,0x00,0x00,0x60,0x00,0x00,0x30,0x00};
