#define 31914_img119_width 34
#define 31914_img119_height 9
static char 31914_img119_bits[] = {
 0x7f,0x30,0x00,0xc0,0x01,0x41,0x08,0x00,0x20,0x02,0x42,0x1c,0x00,0x20,0x02,
 0x22,0x08,0xfc,0x21,0x02,0x24,0x08,0x00,0x20,0x02,0x14,0x08,0xfc,0x21,0x02,
 0x08,0x04,0x00,0xc0,0x01,0x00,0x04,0x00,0x00,0x00,0x00,0x06,0x00,0x00,0x00};
