#define 31669_img107_width 4
#define 31669_img107_height 7
static char 31669_img107_bits[] = {
 0x0c,0x0a,0x0e,0x07,0x01,0x01,0x06};
