#define 32049_img126_width 311
#define 32049_img126_height 65
static char 32049_img126_bits[] = {
 0x00,0x00,0x00,0x00,0x00,0x00,0x06,0x00,0x08,0x00,0x00,0x00,0x00,0x78,0x10,
 0x10,0x01,0x00,0x00,0x00,0x00,0x00,0x00,0x00,0x00,0x00,0x00,0x00,0x00,0x00,
 0x00,0x00,0x00,0x00,0x00,0x00,0x00,0x00,0x00,0x00,0x00,0x00,0x00,0x00,0x00,
 0x01,0x40,0x04,0x00,0x00,0x30,0x00,0x44,0x08,0x20,0x02,0x00,0x00,0x00,0x00,
 0x00,0x00,0x00,0x00,0x90,0x03,0x00,0x00,0x00,0x00,0x60,0x00,0x00,0x00,0x00,
 0x00,0x00,0x00,0x00,0x00,0x00,0x00,0x00,0x00,0x01,0x40,0x04,0x00,0x00,0x20,
 0x00,0x44,0x08,0x40,0x04,0x00,0x00,0x00,0x00,0x00,0x00,0x00,0x00,0x80,0x00,
 0x00,0x00,0x00,0x80,0x40,0x00,0x10,0x00,0x00,0x00,0x00,0x00,0x00,0x00,0x00,
 0x00,0x00,0x80,0x00,0x70,0xe2,0x03,0x00,0x10,0x00,0x14,0xc4,0x47,0x04,0x00,
 0x00,0x00,0x00,0x00,0x00,0x00,0x00,0xd8,0x01,0x00,0x38,0x0e,0x70,0x20,0x00,
 0x0e,0x4c,0x00,0x00,0x1c,0x07,0x00,0x00,0x00,0x00,0x00,0x80,0x00,0xa8,0xa2,
 0x02,0x00,0x10,0x00,0x1e,0x44,0x45,0x04,0x00,0x00,0x00,0x00,0x00,0x00,0x00,
 0x00,0x90,0x00,0x00,0x44,0x19,0x0e,0x20,0xc0,0x01,0x2a,0x80,0x3f,0xa2,0x0c,
 0x00,0x00,0x00,0x00,0x00,0x80,0x00,0xa4,0x82,0x10,0xfe,0x10,0x02,0x12,0x05,
 0x41,0x04,0x00,0x00,0x00,0x00,0x00,0x00,0x00,0x00,0x90,0x00,0x7f,0x84,0x10,
 0x0c,0x20,0x82,0x01,0x24,0x02,0x00,0x42,0x08,0x00,0x00,0x00,0x00,0x00,0x80,
 0x00,0xa4,0x42,0x02,0x00,0x28,0x00,0x02,0x84,0x44,0x04,0x00,0x00,0x00,0x00,
 0x00,0x00,0x00,0x00,0x90,0x00,0x00,0x44,0x11,0x70,0x50,0x00,0x0e,0x64,0x80,
 0x3f,0xa2,0x08,0x00,0x00,0x00,0x00,0x00,0x80,0x00,0x7c,0xf2,0x0d,0x00,0x90,
 0x99,0xc7,0xe4,0x43,0x04,0x00,0x00,0x00,0x00,0x00,0x00,0x00,0x00,0xf8,0x01,
 0x00,0x38,0x0e,0x80,0xa0,0x01,0x10,0xfc,0x01,0x00,0x1c,0x67,0x00,0x00,0x00,
 0x00,0x00,0x80,0x00,0x10,0x02,0x08,0x00,0x00,0x11,0x80,0x04,0x40,0x04,0x00,
 0x00,0x00,0x00,0x00,0x00,0x00,0x00,0x00,0x00,0x00,0x00,0x00,0x00,0x00,0x01,
 0x00,0x00,0x01,0x00,0x00,0x40,0x00,0x00,0x00,0x00,0x00,0x80,0x00,0x10,0x04,
 0x0c,0x00,0x80,0x09,0xc0,0x08,0x20,0x02,0x00,0x00,0x00,0x00,0x00,0x00,0x00,
 0x00,0x00,0x00,0x00,0x00,0x00,0x00,0x80,0x01,0x00,0x80,0x01,0x00,0x00,0x20,
 0x00,0x00,0x00,0x00,0x00,0x80,0x00,0x00,0x08,0x00,0x00,0x00,0x00,0x00,0x10,
 0x20,0x02,0x00,0x00,0x00,0x00,0x00,0x00,0x00,0x00,0x00,0x00,0x00,0x00,0x00,
 0x00,0x00,0x00,0x00,0x00,0x00,0x00,0x00,0x00,0x00,0x00,0x00,0x00,0x00,0x80,
 0x00,0x00,0x00,0x00,0x00,0x00,0x00,0x00,0x00,0x00,0x00,0x00,0x00,0x00,0x00,
 0x00,0x00,0x00,0x00,0x00,0x00,0x00,0x00,0x00,0x00,0x00,0x00,0x00,0x00,0x00,
 0x00,0x00,0x00,0x00,0x00,0x00,0x00,0x00,0x80,0x00,0x00,0x00,0x00,0x00,0x00,
 0x00,0x00,0x00,0x00,0x00,0x00,0x00,0x00,0x00,0x00,0x00,0x00,0x00,0x00,0x00,
 0x00,0x00,0x00,0x00,0x00,0x00,0x00,0x00,0x00,0x00,0x00,0x00,0x00,0x00,0x00,
 0x00,0x00,0x80,0x00,0x00,0x00,0x00,0x00,0x00,0x00,0x00,0x00,0x00,0x00,0x00,
 0x00,0x00,0x00,0x00,0x00,0x00,0x00,0x00,0x00,0x00,0x00,0x00,0x00,0x00,0x00,
 0x00,0x00,0x00,0x00,0x00,0x00,0x00,0x00,0x00,0x00,0x00,0x80,0x00,0x00,0x00,
 0x10,0x00,0x00,0x00,0x00,0x00,0x80,0x07,0x81,0x10,0x00,0x00,0x00,0x00,0x00,
 0x00,0x00,0x00,0x00,0x00,0x00,0x00,0x00,0x00,0x00,0x00,0x00,0x00,0x00,0x00,
 0x00,0x00,0x00,0x00,0x00,0x80,0x00,0x00,0x40,0x08,0x00,0x00,0x00,0x00,0x00,
 0x40,0x84,0x00,0x21,0x00,0x00,0x00,0x00,0x00,0x00,0x90,0x03,0x00,0x00,0x00,
 0x00,0x60,0x00,0x00,0x00,0x00,0x00,0x00,0x00,0x00,0x00,0x00,0x00,0x00,0x80,
 0x00,0x00,0x40,0x08,0x00,0x00,0x00,0x00,0x00,0x40,0x84,0x00,0x42,0x00,0x00,
 0x00,0x00,0x00,0x00,0x80,0x00,0x00,0x00,0x00,0x00,0x40,0x00,0x10,0x00,0x00,
 0x20,0x00,0x00,0x00,0x00,0x00,0x00,0x00,0x80,0x00,0x00,0x70,0xc4,0x04,0x00,
 0xe0,0x03,0x00,0x40,0x41,0x7c,0x42,0x00,0x00,0x00,0x00,0x00,0x00,0xd8,0x01,
 0x00,0x38,0x0e,0x00,0x20,0x00,0x0e,0x4c,0x00,0x1c,0x1c,0x07,0x00,0x00,0x00,
 0x00,0x00,0x80,0x00,0x00,0xa8,0xa4,0x22,0x00,0xa0,0x12,0x00,0xe0,0x51,0x54,
 0x42,0x00,0x00,0x00,0x00,0x00,0x00,0x90,0x00,0x00,0x44,0x19,0xfe,0x20,0xc2,
 0x01,0x2a,0x82,0x03,0xa2,0x0c,0x00,0x00,0x00,0x00,0x00,0x80,0x00,0xf8,0xa7,
 0x44,0x02,0xfc,0x81,0x00,0xf8,0x23,0x41,0x10,0x42,0x00,0x00,0x00,0x00,0x00,
 0x00,0x90,0x00,0x7f,0x84,0x10,0x00,0x20,0x80,0x01,0x24,0x00,0x03,0x42,0x08,
 0x00,0x00,0x00,0x00,0x00,0x80,0x00,0x00,0xa4,0x44,0x1e,0x00,0x40,0x0e,0x00,
 0x20,0x4c,0x48,0x42,0x00,0x00,0x00,0x00,0x00,0x00,0x90,0x00,0x00,0x44,0x11,
 0xfe,0xd0,0x01,0x0e,0xe4,0x01,0x1c,0xa2,0x08,0x00,0x00,0x00,0x00,0x00,0x80,
 0x00,0x00,0x7c,0xc4,0x17,0x00,0xf0,0xc9,0x00,0x78,0x48,0x3e,0x42,0x00,0x00,
 0x00,0x00,0x00,0x00,0xf8,0x01,0x00,0x38,0x0e,0x00,0x20,0x01,0x10,0x7c,0x01,
 0x20,0x1c,0x67,0x00,0x00,0x00,0x00,0x00,0x00,0x00,0x00,0x10,0x04,0x18,0x00,
 0x00,0x8c,0x00,0x00,0x4c,0x00,0x42,0x00,0x00,0x00,0x00,0x00,0x00,0x00,0x00,
 0x00,0x00,0x00,0x00,0x80,0x01,0x00,0x80,0x01,0x00,0x00,0x40,0x00,0x00,0x00,
 0x00,0x00,0x80,0x00,0x00,0x10,0x08,0x00,0x00,0x00,0x40,0x00,0x00,0x80,0x00,
 0x21,0x00,0x00,0x00,0x00,0x00,0x00,0x00,0x00,0x00,0x00,0x00,0x00,0x00,0x00,
 0x00,0x00,0x00,0x00,0x00,0x20,0x00,0x00,0x00,0x00,0x00,0x80,0x00,0x00,0x00,
 0x10,0x00,0x00,0x00,0x00,0x00,0x00,0x00,0x01,0x21,0x00,0x00,0x00,0x00,0x00,
 0x00,0x00,0x00,0x00,0x00,0x00,0x00,0x00,0x00,0x00,0x00,0x00,0x00,0x00,0x00,
 0x00,0x00,0x00,0x00,0x00,0x80,0x00,0x00,0x00,0x00,0x00,0x00,0x00,0x00,0x00,
 0x00,0x00,0x00,0x00,0x00,0x00,0x00,0x00,0x00,0x00,0x00,0x00,0x00,0x00,0x00,
 0x00,0x00,0x00,0x00,0x00,0x00,0x00,0x00,0x00,0x00,0x00,0x00,0x00,0x00,0x80,
 0x00,0x00,0x00,0x00,0x00,0x00,0x00,0x00,0x00,0x00,0x00,0x00,0x00,0x00,0x00,
 0x00,0x00,0x00,0x00,0x00,0x00,0x00,0x00,0x00,0x00,0x00,0x00,0x00,0x00,0x00,
 0x00,0x00,0x00,0x00,0x40,0x20,0x00,0x00,0x80,0x00,0x00,0x08,0x00,0x00,0x00,
 0x00,0x00,0x01,0x00,0x00,0x00,0x00,0x00,0x78,0x20,0x10,0x21,0x00,0x00,0x00,
 0x00,0x00,0x00,0x00,0x00,0x00,0x00,0x00,0x00,0x00,0x00,0x00,0x1e,0x20,0x40,
 0x00,0x00,0x80,0x00,0x40,0x04,0x00,0x00,0x30,0x00,0x88,0x00,0x00,0x00,0x00,
 0x00,0x00,0x44,0x10,0x20,0x42,0x00,0x90,0x03,0x00,0x00,0x00,0x00,0x60,0x00,
 0x00,0x00,0x00,0x00,0x00,0x00,0x1e,0x20,0x80,0x00,0x00,0x80,0x00,0x40,0x04,
 0x00,0x00,0x20,0x00,0x88,0x00,0x00,0x00,0x00,0x00,0x00,0x44,0x10,0x40,0x84,
 0x00,0x80,0x00,0x00,0x00,0x00,0x80,0x40,0x00,0x10,0x00,0x00,0x20,0x00,0x00,
 0x25,0x10,0x9f,0x20,0x00,0x40,0x00,0x70,0xe2,0x03,0x00,0x10,0x00,0x4e,0x4c,
 0x00,0x00,0x3e,0x00,0x00,0x14,0x88,0x4f,0x84,0x00,0xd8,0x01,0x00,0x38,0x0e,
 0x70,0x20,0x00,0x0e,0x4c,0x00,0x1c,0x1c,0x07,0x25,0x10,0x95,0x00,0x7f,0x40,
 0x00,0xa8,0xa2,0x02,0x00,0x10,0x00,0x55,0x2a,0x00,0x00,0x2a,0x00,0x00,0x1e,
 0x88,0x4a,0x84,0x00,0x90,0x00,0x00,0x44,0x19,0x0e,0x20,0xc0,0x01,0x2a,0x80,
 0x03,0xa2,0x0c,0x35,0x12,0x84,0x00,0x00,0x20,0x00,0xa4,0x82,0x10,0xfe,0x10,
 0x82,0x54,0x24,0xc4,0x1f,0x08,0x02,0x7f,0x12,0x09,0x42,0x84,0x00,0x90,0x00,
 0x7f,0x84,0x10,0x0c,0x20,0x82,0x01,0x24,0x02,0x03,0x42,0x08,0x1e,0x10,0x92,
 0x00,0x7f,0x20,0x00,0xa4,0x42,0x02,0x00,0x28,0x80,0x54,0x64,0x00,0x00,0x24,
 0x00,0x00,0x02,0x08,0x49,0x84,0x00,0x90,0x00,0x00,0x44,0x11,0x70,0x50,0x00,
 0x0e,0x64,0x00,0x1c,0xa2,0x08,0x9e,0x91,0x8f,0x20,0x00,0x40,0x00,0x7c,0xf2,
 0x0d,0x00,0x90,0x99,0x4f,0x7c,0x03,0x00,0x9f,0x19,0x80,0xc7,0xc8,0x47,0x84,
 0x00,0xf8,0x01,0x00,0x38,0x0e,0x80,0xa0,0x01,0x10,0xfc,0x01,0x20,0x1c,0x67,
 0x00,0x11,0x80,0x00,0x00,0x80,0x00,0x10,0x02,0x08,0x00,0x00,0x11,0x42,0x00,
 0x02,0x00,0x00,0x11,0x00,0x80,0x08,0x40,0x84,0x00,0x00,0x00,0x00,0x00,0x00,
 0x00,0x00,0x01,0x00,0x00,0x01,0x00,0x00,0x40,0x80,0x21,0x40,0x00,0x00,0x80,
 0x00,0x10,0x04,0x0c,0x00,0x80,0x09,0x82,0x00,0x03,0x00,0x80,0x09,0x00,0xc0,
 0x10,0x20,0x42,0x00,0x00,0x00,0x00,0x00,0x00,0x00,0x80,0x01,0x00,0x80,0x01,
 0x00,0x00,0x20,0x00,0x40,0x40,0x00,0x00,0x80,0x00,0x00,0x08,0x00,0x00,0x00,
 0x00,0x00,0x01,0x00,0x00,0x00,0x00,0x00,0x00,0x20,0x20,0x42,0x00,0x00,0x00,
 0x00,0x00,0x00,0x00,0x00,0x00,0x00,0x00,0x00,0x00,0x00,0x00,0x00,0x00,0x00,
 0x00,0x00,0x80,0x00,0x00,0x00,0x00,0x00,0x00,0x00,0x00,0x00,0x00,0x00,0x00,
 0x00,0x00,0x00,0x00,0x00,0x00,0x00,0x00,0x00,0x00,0x00,0x00,0x00,0x00,0x00,
 0x00,0x00,0x00,0x00,0x00,0x00,0x00,0x00,0x00,0x00,0x00,0x80,0x00,0x00,0x00,
 0x00,0x00,0x00,0x00,0x00,0x00,0x00,0x00,0x00,0x00,0x00,0x00,0x00,0x00,0x00,
 0x00,0x00,0x00,0x00,0x00,0x00,0x00,0x00,0x00,0x00,0x00,0x00,0x00,0x00,0x00,
 0x00,0x00,0x00,0x00,0x00,0x80,0x00,0x00,0x00,0x00,0x00,0x00,0x00,0x00,0x00,
 0x00,0x00,0x00,0x00,0x00,0x00,0x00,0x00,0x00,0x00,0x00,0x00,0x00,0x00,0x00,
 0x00,0x00,0x00,0x00,0x00,0x00,0x00,0x00,0x00,0x00,0x00,0x00,0x00,0x00,0x80,
 0x00,0x00,0xc0,0x83,0x80,0x00,0x00,0x00,0x00,0x00,0x00,0x00,0x00,0x00,0x00,
 0x00,0x00,0x00,0x00,0x00,0x00,0x00,0x00,0x00,0x00,0x00,0x00,0x00,0x00,0x00,
 0x00,0x00,0x00,0x00,0x00,0x00,0x00,0x00,0x80,0x00,0x00,0x20,0x42,0x00,0x01,
 0x00,0x00,0x00,0x00,0x00,0x00,0x00,0x00,0x00,0x00,0x00,0x00,0x00,0x90,0x03,
 0x00,0x00,0x00,0x00,0x60,0x00,0x00,0x00,0x00,0x00,0x00,0x00,0x00,0x00,0x00,
 0x00,0x00,0x80,0x00,0x00,0x20,0x42,0x00,0x02,0x00,0x00,0x00,0x00,0x00,0x00,
 0x00,0x00,0x00,0x00,0x00,0x00,0x00,0x80,0x00,0x00,0x00,0x00,0x00,0x40,0x00,
 0x10,0x00,0x00,0x00,0x00,0x00,0x00,0x00,0x00,0x00,0x00,0x80,0x00,0x00,0xa0,
 0x20,0x7c,0x02,0x00,0x00,0x00,0x00,0x00,0x00,0x00,0x00,0x00,0x00,0x00,0x00,
 0x00,0xd8,0x01,0x00,0x38,0x0e,0x00,0x20,0x00,0x0e,0x4c,0x00,0x00,0x1c,0x07,
 0x00,0x00,0x00,0x00,0x00,0x00,0x00,0x00,0xf0,0x28,0x54,0x02,0x00,0x00,0x00,
 0x00,0x00,0x00,0x00,0x00,0x00,0x00,0x00,0x00,0x00,0x90,0x00,0x00,0x44,0x19,
 0xfe,0x20,0xc2,0x01,0x2a,0x82,0x3f,0xa2,0x0c,0x00,0x00,0x00,0x00,0x00,0x80,
 0x00,0xf8,0x93,0x20,0x10,0x02,0x00,0x00,0x00,0x00,0x00,0x00,0x00,0x00,0x00,
 0x00,0x00,0x00,0x00,0x90,0x00,0x7f,0x84,0x10,0x00,0x20,0x80,0x01,0x24,0x00,
 0x00,0x42,0x08,0x00,0x00,0x00,0x00,0x00,0x80,0x00,0x00,0x10,0x26,0x48,0x02,
 0x00,0x00,0x00,0x00,0x00,0x00,0x00,0x00,0x00,0x00,0x00,0x00,0x00,0x90,0x00,
 0x00,0x44,0x11,0xfe,0xd0,0x01,0x0e,0xe4,0x81,0x3f,0xa2,0x08,0x00,0x00,0x00,
 0x00,0x00,0x80,0x00,0x00,0x3c,0x24,0x3e,0x02,0x00,0x00,0x00,0x00,0x00,0x00,
 0x00,0x00,0x00,0x00,0x00,0x00,0x00,0xf8,0x01,0x00,0x38,0x0e,0x00,0x20,0x01,
 0x10,0x7c,0x01,0x00,0x1c,0x67,0x00,0x00,0x00,0x00,0x00,0x80,0x00,0x00,0x00,
 0x26,0x00,0x02,0x00,0x00,0x00,0x00,0x00,0x00,0x00,0x00,0x00,0x00,0x00,0x00,
 0x00,0x00,0x00,0x00,0x00,0x00,0x00,0x80,0x01,0x00,0x80,0x01,0x00,0x00,0x40,
 0x00,0x00,0x00,0x00,0x00,0x80,0x00,0x00,0x00,0x40,0x00,0x01,0x00,0x00,0x00,
 0x00,0x00,0x00,0x00,0x00,0x00,0x00,0x00,0x00,0x00,0x00,0x00,0x00,0x00,0x00,
 0x00,0x00,0x00,0x00,0x00,0x00,0x00,0x00,0x20,0x00,0x00,0x00,0x00,0x00,0x80,
 0x00,0x00,0x00,0x80,0x00,0x01,0x00,0x00,0x00,0x00,0x00,0x00,0x00,0x00,0x00,
 0x00,0x00,0x00,0x00,0x00,0x00,0x00,0x00,0x00,0x00,0x00,0x00,0x00,0x00,0x00,
 0x00,0x00,0x00,0x00,0x00,0x00,0x00,0x00,0x80,0x00,0x00,0x00,0x00,0x00,0x00,
 0x00,0x00,0x00,0x00,0x00,0x00,0x00,0x00,0x00,0x00,0x00,0x00,0x00,0x00,0x00,
 0x00,0x00,0x00,0x00,0x00,0x00,0x00,0x00,0x00,0x00,0x00,0x00,0x00,0x00,0x00,
 0x00,0x00,0x80,0x00,0x00,0x00,0x00,0x00,0x00,0x00,0x00,0x00,0x00,0x00,0x00,
 0x00,0x00,0x00,0x00,0x00,0x00,0x00,0x00,0x00,0x00,0x00,0x00,0x00,0x00,0x00,
 0x00,0x00,0x00,0x00,0x00,0x00,0x00,0x00,0x00,0x00,0x00,0x80,0x00,0x00,0x00,
 0x00,0x00,0x00,0x00,0x00,0x00,0x00,0x00,0x00,0x00,0x00,0x00,0x00,0x00,0x00,
 0x00,0x00,0x00,0x00,0x00,0x00,0x00,0x00,0x00,0x00,0x00,0x00,0x00,0x00,0x00,
 0x00,0x00,0x00,0x00,0x00,0x80,0x00,0x18,0x00,0x00,0x00,0x00,0x00,0x00,0x00,
 0x00,0x00,0x00,0x00,0x00,0x00,0x00,0x00,0x00,0x00,0x90,0x03,0x00,0x00,0x00,
 0x00,0x60,0x00,0x00,0x00,0x00,0x00,0x00,0x00,0x00,0x00,0x00,0x00,0x00,0x80,
 0x00,0x10,0x00,0x00,0x00,0x00,0x00,0x00,0x00,0x00,0x00,0x00,0x00,0x00,0x00,
 0x00,0x00,0x00,0x00,0x80,0x00,0x00,0x00,0x00,0x80,0x40,0x00,0x00,0x00,0x00,
 0x20,0x00,0x00,0x00,0x00,0x00,0x00,0x00,0x80,0x00,0x08,0x00,0xc0,0x07,0x00,
 0x00,0x00,0x00,0x00,0x00,0x00,0x00,0x00,0x00,0x00,0x00,0x00,0x00,0xd8,0x01,
 0x00,0x38,0x0e,0x70,0x20,0x00,0x00,0x4c,0x00,0x1c,0x1c,0x07,0x00,0x00,0x00,
 0x00,0x00,0x80,0x00,0x08,0x00,0x40,0x05,0x00,0x00,0x00,0x00,0x00,0x00,0x00,
 0x00,0x00,0x00,0x00,0x00,0x00,0x00,0x90,0x00,0x00,0x44,0x19,0x0e,0x20,0xc0,
 0x1f,0x2a,0x80,0x03,0xa2,0x0c,0x00,0x00,0x00,0x00,0x00,0x80,0x00,0x88,0xf0,
 0x07,0x41,0x00,0x00,0x00,0x00,0x00,0x00,0x00,0x00,0x00,0x00,0x00,0x00,0x00,
 0x00,0x90,0x00,0x7f,0x84,0x10,0x0c,0x20,0x02,0x00,0x24,0x02,0x03,0x42,0x08,
 0x00,0x00,0x00,0x00,0x00,0x80,0x00,0x14,0x00,0x80,0x04,0x00,0x00,0x00,0x00,
 0x00,0x00,0x00,0x00,0x00,0x00,0x00,0x00,0x00,0x00,0x90,0x00,0x00,0x44,0x11,
 0x70,0x50,0xc0,0x1f,0x64,0x00,0x1c,0xa2,0x08,0x00,0x00,0x00,0x00,0x00,0x80,
 0x00,0x68,0x00,0xe0,0x33,0x00,0x00,0x00,0x00,0x00,0x00,0x00,0x00,0x00,0x00,
 0x00,0x00,0x00,0x00,0xf8,0x01,0x00,0x38,0x0e,0x80,0xa0,0x01,0x00,0xfc,0x01,
 0x20,0x1c,0x27,0x00,0x00,0x00,0x00,0x00,0x00,0x01,0x40,0x00,0x00,0x20,0x00,
 0x00,0x00,0x00,0x00,0x00,0x00,0x00,0x00,0x00,0x00,0x00,0x00,0x00,0x00,0x00,
 0x00,0x00,0x00,0x00,0x00,0x01,0x00,0x00,0x01,0x00,0x00,0x00,0x00,0x00,0x00,
 0x00,0x00,0x00,0x01,0x60,0x00,0x00,0x30,0x00,0x00,0x00,0x00,0x00,0x00,0x00,
 0x00,0x00,0x00,0x00,0x00,0x00,0x00,0x00,0x00,0x00,0x00,0x00,0x00,0x80,0x01,
 0x00,0x80,0x01,0x00,0x00,0x00,0x00,0x00,0x00,0x00,0x00,0x00,0x06,0x00,0x00,
 0x00,0x00,0x00,0x00,0x00,0x00,0x00,0x00,0x00,0x00,0x00,0x00,0x00,0x00,0x00,
 0x00,0x00,0x00,0x00,0x00,0x00,0x00,0x00,0x00,0x00,0x00,0x00,0x00,0x00,0x00};
