#define 29731_img19_width 86
#define 29731_img19_height 13
static char 29731_img19_bits[] = {
 0x00,0x00,0x00,0x00,0x00,0x03,0x00,0x00,0x80,0x01,0x00,0x00,0x00,0x00,0x00,
 0x00,0x02,0x00,0x00,0x00,0x01,0x00,0x00,0x00,0x00,0x00,0x00,0x02,0x00,0x00,
 0x00,0x01,0x00,0x00,0x00,0x0e,0x00,0x00,0x02,0x00,0x00,0x00,0x01,0x00,0x00,
 0x00,0x12,0x00,0x00,0x07,0x00,0x00,0x80,0x03,0x00,0x24,0x00,0x90,0x04,0x00,
 0x40,0x02,0x00,0x00,0x20,0x01,0xa2,0x01,0x50,0x64,0x80,0x2f,0x32,0x00,0xc0,
 0x17,0x19,0x52,0x02,0x48,0x92,0x00,0x20,0x49,0xe0,0x0f,0x90,0x24,0x52,0x02,
 0x54,0x9a,0x80,0x27,0x4d,0x00,0xc0,0x93,0x26,0x7e,0x32,0xde,0x97,0x8c,0xe4,
 0x4b,0x06,0x40,0xf2,0x25,0x81,0x21,0x20,0x60,0x08,0x14,0x30,0x04,0x00,0x0a,
 0x18,0x01,0x10,0x20,0x00,0x04,0x13,0x00,0x02,0x80,0x09,0x00,0x00,0x00,0x00,
 0x00,0x80,0x07,0x00,0x00,0xc0,0x03,0x00};
