#define 29665_img16_width 99
#define 29665_img16_height 9
static char 29665_img16_bits[] = {
 0x18,0x00,0x08,0x18,0x00,0x10,0x00,0x00,0x80,0x80,0x01,0x00,0x00,0x04,0x00,
 0x07,0x04,0x00,0x0e,0x00,0x00,0x70,0x40,0x00,0x00,0x00,0x0e,0xe0,0x00,0x0e,
 0xc0,0x01,0x00,0x00,0x0e,0xe0,0x00,0x00,0x00,0x64,0xc0,0x00,0xe4,0x81,0x01,
 0x00,0x00,0x0c,0x40,0xd8,0x08,0x03,0x44,0x00,0x07,0x24,0x01,0x0e,0x00,0x00,
 0x70,0x40,0x98,0x08,0x02,0x44,0x00,0x08,0x04,0x01,0x10,0x00,0x00,0x80,0x40,
 0x64,0x08,0x02,0x42,0x00,0x00,0xc2,0x00,0x00,0x42,0x08,0x00,0x20,0x64,0x3f,
 0x02,0xe2,0x00,0x00,0xe2,0x01,0x00,0x00,0x00,0x00,0x20,0x46,0x08,0x07,0x03,
 0xe0,0x0f,0x03,0xc0,0x1f,0x00,0x00,0xfe,0x30,0x00,0x08,0x00};
