#define 31559_img102_width 61
#define 31559_img102_height 8
static char 31559_img102_bits[] = {
 0xf0,0x00,0x00,0x00,0x00,0x00,0x00,0x00,0x88,0x00,0x7e,0x1e,0x00,0x00,0x3f,
 0x0f,0x88,0x00,0xcc,0x14,0x00,0x02,0x66,0x0a,0x28,0x10,0xcc,0x34,0x00,0x02,
 0x66,0x1a,0x3c,0x00,0x3c,0x00,0x00,0x04,0x1e,0x00,0x24,0x00,0x5c,0x00,0xfc,
 0x0f,0x2e,0x00,0x04,0x00,0xac,0x00,0x00,0x04,0x56,0x00,0x0f,0x10,0xde,0x01,
 0x00,0x02,0xef,0x00};
