#define 32533_img148_width 27
#define 32533_img148_height 8
static char 32533_img148_bits[] = {
 0x00,0x00,0x09,0x00,0x3f,0x7f,0xc6,0x03,0x66,0x4a,0x86,0x02,0x66,0x6a,0x89,
 0x06,0x1e,0x00,0x00,0x00,0x2e,0x00,0x00,0x00,0x56,0x00,0x00,0x00,0xef,0x00,
 0x00,0x00};
