#define 32027_img125_width 59
#define 32027_img125_height 7
static char 32027_img125_bits[] = {
 0x1e,0x00,0x3f,0x0f,0x00,0xc0,0xcf,0x03,0x1e,0x00,0x66,0x0a,0x80,0x80,0x99,
 0x02,0x25,0x08,0x66,0x1a,0x80,0x80,0x99,0x06,0x25,0x00,0x1e,0x00,0x00,0x81,
 0x07,0x00,0x35,0x00,0x2e,0x00,0xff,0x83,0x0b,0x00,0x1e,0x00,0x56,0x00,0x00,
 0x81,0x15,0x00,0x1e,0x08,0xef,0x00,0x80,0xc0,0x3b,0x00};
