#define 32467_img145_width 61
#define 32467_img145_height 7
static char 32467_img145_bits[] = {
 0x00,0x80,0x9f,0x07,0x00,0xc0,0xcf,0x1f,0x00,0x00,0x33,0x05,0x80,0x80,0x99,
 0x12,0x1c,0x02,0x33,0x0d,0x80,0x80,0x99,0x1a,0x12,0x00,0x0f,0x00,0x00,0x81,
 0x07,0x00,0x01,0x00,0x17,0x00,0xff,0x83,0x0b,0x00,0x01,0x00,0x2b,0x00,0x00,
 0x81,0x15,0x00,0x0e,0x82,0x77,0x00,0x80,0xc0,0x3b,0x00};
