#define 31980_img122_width 131
#define 31980_img122_height 15
static char 31980_img122_bits[] = {
 0x00,0x00,0x00,0x00,0x00,0x00,0x00,0xf8,0xff,0xff,0xff,0x1f,0x00,0x00,0x00,
 0x00,0x00,0x00,0x00,0x00,0x00,0x00,0x00,0x00,0x04,0x00,0x00,0x00,0x00,0x00,
 0x00,0x00,0x00,0x00,0x00,0x00,0x00,0x00,0x00,0x00,0x00,0x04,0x00,0x00,0x00,
 0x00,0x00,0x00,0x00,0x00,0x00,0x00,0x00,0x00,0x00,0x00,0x00,0x00,0x02,0x00,
 0x00,0x00,0x00,0x00,0x00,0x00,0x00,0x00,0x00,0x04,0x00,0x04,0x00,0x00,0x00,
 0x02,0x1e,0x00,0x80,0x07,0x00,0x00,0x00,0x00,0x00,0x10,0x02,0x40,0x08,0x00,
 0x00,0x00,0x01,0x12,0x00,0x90,0x04,0x00,0x00,0x00,0x40,0x00,0x10,0x02,0x40,
 0x10,0x00,0x00,0x00,0x01,0x10,0x10,0x10,0x04,0x00,0x00,0x00,0x40,0x00,0x1c,
 0xf1,0xc0,0x11,0x04,0x00,0x84,0xf0,0x0c,0x10,0x70,0x03,0x00,0x3c,0x00,0xc0,
 0x01,0x2a,0x91,0x40,0x12,0xe0,0x0f,0x44,0x90,0x1e,0x10,0x90,0x07,0x00,0x24,
 0x00,0x40,0x02,0x29,0x49,0x20,0x12,0x00,0x00,0x48,0x48,0x00,0xfe,0x88,0x00,
 0x7f,0x12,0xf8,0x23,0x02,0x29,0x49,0x21,0x11,0xe0,0x0f,0x28,0x48,0x01,0x10,
 0x48,0x00,0x00,0x52,0x00,0x20,0x01,0x1f,0xf9,0xec,0x10,0x04,0x00,0x30,0xf8,
 0x00,0x10,0x38,0x00,0x00,0x3e,0x00,0xe0,0x04,0x04,0x01,0x08,0x10,0x00,0x00,
 0x10,0x00,0x00,0x10,0x00,0x00,0x00,0x00,0x00,0x00,0x00,0x04,0x02,0x04,0x08,
 0x00,0x00,0x00,0x00,0x00,0x00,0x00,0x00,0x00,0x00,0x00,0x00,0x00,0x00,0x04,
 0x00,0x08,0x00,0x00,0x00,0x00,0x00,0x00,0x00,0x00,0x00,0x00,0x00,0x00,0x00};
