#define 32115_img129_width 41
#define 32115_img129_height 11
static char 32115_img129_bits[] = {
 0x00,0x04,0x02,0x00,0x00,0x00,0x1e,0x02,0x04,0x00,0xe0,0x00,0x1e,0x02,0x08,
 0x00,0x10,0x01,0x25,0xf1,0x09,0x00,0x10,0x01,0x25,0x51,0x09,0xfe,0x10,0x01,
 0x35,0x41,0x08,0x00,0x10,0x01,0x1e,0x21,0x09,0xfe,0x10,0x01,0x1e,0xf9,0x08,
 0x00,0xe0,0x00,0x00,0x01,0x08,0x00,0x00,0x00,0x00,0x02,0x04,0x00,0x00,0x00,
 0x00,0x04,0x04,0x00,0x00,0x00};
