#define 32159_img131_width 6
#define 32159_img131_height 7
static char 32159_img131_bits[] = {
 0x1e,0x1e,0x25,0x25,0x35,0x1e,0x1e};
