#define 31804_img114_width 14
#define 31804_img114_height 9
static char 31804_img114_bits[] = {
 0x7f,0x30,0x41,0x08,0x42,0x1c,0x22,0x08,0x24,0x08,0x14,0x08,0x08,0x04,0x00,
 0x04,0x00,0x06};
