#define 29709_img18_width 7
#define 29709_img18_height 7
static char 29709_img18_bits[] = {
 0x24,0x22,0x12,0x52,0x3e,0x01,0x01};
