#define 29643_img15_width 57
#define 29643_img15_height 10
static char 29643_img15_bits[] = {
 0x00,0x00,0x00,0x00,0x80,0x03,0x67,0x00,0x00,0x00,0x00,0x00,0x40,0x84,0x48,
 0x00,0x0e,0x00,0x00,0x00,0x40,0x84,0x48,0x00,0x83,0x40,0x20,0xf0,0x47,0x84,
 0x48,0x00,0x8f,0x40,0x20,0x00,0x40,0x84,0x48,0x00,0xc1,0xfe,0x2e,0xf0,0x47,
 0x84,0x48,0x00,0x4e,0x44,0x19,0x00,0x80,0x23,0xe7,0x01,0x40,0x64,0x37,0x00,
 0x00,0x00,0x00,0x00,0x40,0x00,0x00,0x00,0x00,0x00,0x00,0x00,0x30,0x00,0x00,
 0x00,0x00,0x00,0x00,0x00};
