#define 29621_img14_width 239
#define 29621_img14_height 26
static char 29621_img14_bits[] = {
 0x02,0x20,0x00,0x01,0x00,0x00,0x08,0x00,0x09,0x01,0x00,0x00,0x00,0x00,0x00,
 0x00,0x00,0x00,0x00,0x00,0x00,0x00,0x00,0x00,0x00,0x00,0x00,0x00,0x00,0x00,
 0x82,0x11,0x67,0x02,0x00,0xc0,0xc4,0x99,0x13,0x01,0x00,0x00,0x00,0x00,0x00,
 0x00,0x00,0x00,0x00,0x00,0x00,0x00,0x00,0x00,0x00,0x00,0x00,0x00,0x00,0x00,
 0x42,0x10,0x26,0x04,0x00,0x20,0x84,0x89,0x23,0x01,0x00,0x00,0x00,0x00,0x00,
 0x00,0x00,0x00,0x00,0x00,0x00,0x00,0x00,0x00,0x00,0x00,0x00,0x00,0x00,0x00,
 0xe2,0x08,0x1c,0x04,0x00,0x70,0x02,0x07,0x21,0x01,0x00,0x00,0x00,0x00,0x00,
 0x00,0x00,0x00,0x00,0x00,0x00,0x00,0x00,0x00,0x00,0x00,0x00,0x00,0x00,0x00,
 0x42,0x08,0x0c,0x04,0x00,0x20,0x02,0x03,0x20,0x01,0x00,0x00,0x00,0x00,0x00,
 0x00,0x00,0x00,0x00,0x00,0x00,0x00,0x00,0x00,0x00,0x00,0x00,0x00,0x00,0x00,
 0x42,0x08,0x0a,0x04,0x7f,0x20,0x82,0x02,0x20,0x01,0x00,0x00,0x00,0x00,0x00,
 0x00,0x00,0x00,0x00,0x00,0x00,0x00,0x00,0x00,0x00,0x00,0x00,0x00,0x00,0x00,
 0x42,0x08,0x11,0x04,0x00,0x20,0x42,0x04,0x20,0x01,0x00,0x00,0x00,0x00,0x00,
 0x00,0x00,0x00,0x00,0x00,0x00,0x00,0x00,0x00,0x00,0x00,0x00,0x00,0x00,0x00,
 0x22,0xc8,0x39,0x04,0x00,0x10,0x72,0x0e,0x20,0x01,0x00,0x00,0x00,0x00,0x00,
 0x00,0x00,0x08,0x40,0x00,0x00,0x00,0x02,0x40,0x02,0x00,0x00,0x00,0x00,0x00,
 0x22,0x08,0x00,0x04,0x00,0x10,0x02,0x00,0x20,0x01,0x40,0x00,0x00,0x00,0x00,
 0x00,0xc0,0xc4,0x99,0x00,0x00,0x30,0xe1,0xec,0x04,0x80,0x00,0x00,0x00,0x00,
 0x32,0x10,0x00,0x02,0x00,0x18,0x04,0x00,0x10,0x01,0x38,0x00,0x00,0x00,0x00,
 0x00,0x20,0x84,0x09,0x01,0x00,0x08,0xc1,0xe4,0x08,0x70,0x00,0x00,0x00,0x00,
 0x02,0x20,0x00,0x02,0x00,0x00,0x08,0x00,0x10,0x01,0x07,0x38,0x00,0x00,0xc0,
 0x3d,0x70,0x02,0x07,0x01,0x00,0x9c,0x80,0x43,0x08,0x0e,0xe0,0x00,0x00,0x00,
 0x00,0x00,0x00,0x00,0x00,0x00,0x00,0x00,0x00,0x00,0x06,0x0c,0x00,0x00,0x20,
 0x0a,0x20,0x02,0x03,0x01,0x00,0x88,0x80,0x01,0x08,0x0c,0x30,0x00,0x00,0x00,
 0xff,0xff,0xff,0xff,0xff,0xff,0xff,0xff,0xff,0x03,0x38,0x3c,0x04,0x02,0x21,
 0x0a,0x20,0x82,0x02,0xc1,0x1f,0x88,0x40,0x01,0x08,0x70,0xf0,0x08,0x08,0x04,
 0x00,0x00,0x00,0x00,0x00,0x00,0x00,0x00,0x00,0x00,0x40,0x04,0x04,0x02,0x21,
 0x0a,0x20,0x42,0x04,0x01,0x00,0x88,0x20,0x02,0x08,0x80,0x10,0x08,0x08,0x04,
 0x00,0x00,0x00,0x00,0x00,0x00,0x00,0x00,0x00,0x00,0x00,0x38,0xf6,0x77,0xc1,
 0x1d,0x10,0x72,0x0e,0x01,0x00,0x84,0x38,0x07,0x08,0x00,0xe0,0xcc,0xdd,0x65,
 0x00,0x40,0x00,0x02,0x10,0x02,0x00,0x00,0x00,0x00,0x00,0x00,0x22,0xca,0x00,
 0x00,0x10,0x02,0x00,0x01,0x00,0x84,0x00,0x00,0x08,0x00,0x00,0x24,0x29,0x43,
 0x00,0x40,0x30,0x71,0x26,0x02,0x00,0x0c,0x00,0x00,0x7f,0x00,0x22,0xbb,0x01,
 0x00,0x18,0x04,0x80,0x00,0x00,0x06,0x01,0x00,0x04,0xfe,0x00,0xe4,0xed,0x26,
 0x00,0x40,0x08,0x61,0x42,0x02,0x04,0x08,0x00,0x00,0x00,0x00,0x02,0x00,0x00,
 0x00,0x00,0x08,0x80,0x00,0x00,0x00,0x02,0x00,0x04,0x00,0x00,0x04,0x00,0x00,
 0x00,0x40,0x9c,0xc0,0x41,0x02,0x04,0x08,0x00,0x00,0x00,0x80,0x01,0x00,0x00,
 0x00,0x00,0x00,0x00,0x00,0x00,0x00,0x00,0x00,0x00,0x00,0x00,0x03,0x00,0x00,
 0x00,0x40,0x88,0xc0,0x40,0x02,0x04,0x08,0x00,0x00,0x00,0x00,0x00,0x00,0x00,
 0x00,0x00,0x00,0x00,0x00,0x00,0x00,0x00,0x00,0x00,0x00,0x00,0x00,0x00,0x00,
 0x00,0x40,0x88,0xa0,0x40,0x82,0x3f,0x08,0x00,0x00,0x00,0x00,0x00,0x00,0x00,
 0x00,0x00,0x00,0x00,0x00,0x00,0x00,0x00,0x00,0x00,0x00,0x00,0x00,0x00,0x00,
 0x00,0x40,0x88,0x10,0x41,0x02,0x04,0x08,0x00,0x00,0x00,0x00,0x00,0x00,0x00,
 0x00,0x00,0x00,0x00,0x00,0x00,0x00,0x00,0x00,0x00,0x00,0x00,0x00,0x00,0x00,
 0x00,0x40,0x84,0x9c,0x43,0x02,0x04,0x3c,0x00,0x00,0x00,0x00,0x00,0x00,0x00,
 0x00,0x00,0x00,0x00,0x00,0x00,0x00,0x00,0x00,0x00,0x00,0x00,0x00,0x00,0x00,
 0x00,0x40,0x84,0x00,0x40,0x02,0x04,0x00,0x00,0x00,0x00,0x00,0x00,0x00,0x00,
 0x00,0x00,0x00,0x00,0x00,0x00,0x00,0x00,0x00,0x00,0x00,0x00,0x00,0x00,0x00,
 0x00,0x40,0x06,0x01,0x20,0x02,0x00,0x00,0x00,0x00,0x00,0x00,0x00,0x00,0x00,
 0x00,0x00,0x00,0x00,0x00,0x00,0x00,0x00,0x00,0x00,0x00,0x00,0x00,0x00,0x00,
 0x00,0x40,0x00,0x02,0x20,0x02,0x00,0x00,0x00,0x00,0x00,0x00,0x00,0x00,0x00,
 0x00,0x00,0x00,0x00,0x00,0x00,0x00,0x00,0x00,0x00,0x00,0x00,0x00,0x00,0x00};
