#define 31760_img112_width 39
#define 31760_img112_height 12
static char 31760_img112_bits[] = {
 0x00,0x00,0x00,0x40,0x00,0x00,0x00,0x20,0x80,0x00,0x0c,0x00,0x10,0x87,0x3c,
 0x0a,0x00,0x90,0x88,0x28,0x0e,0x00,0x90,0x88,0x68,0x87,0x3f,0x90,0x88,0x00,
 0x01,0x00,0x98,0x88,0x03,0x81,0x3f,0x90,0x88,0x00,0x06,0x00,0x10,0x87,0x00,
 0x00,0x00,0x10,0x80,0x00,0x00,0x00,0x10,0x80,0x00,0x00,0x00,0x60,0xc0,0x00};
