#define 32335_img139_width 25
#define 32335_img139_height 8
static char 32335_img139_bits[] = {
 0x1c,0x00,0x00,0x00,0x04,0x00,0xe0,0x00,0x04,0x0e,0x10,0x01,0x0e,0x30,0x10,
 0x01,0x09,0xc0,0x10,0x01,0x09,0x40,0x10,0x01,0x09,0x30,0x10,0x01,0x06,0x0e,
 0xe0,0x00};
