#define 32225_img134_width 111
#define 32225_img134_height 13
static char 32225_img134_bits[] = {
 0x00,0x00,0x00,0x00,0x60,0x01,0x00,0x00,0x00,0x00,0x00,0x00,0x00,0x00,0x00,
 0x00,0x00,0x10,0x90,0x02,0x04,0x00,0x00,0x00,0x00,0x40,0x00,0x00,0x00,0x00,
 0x10,0x10,0x41,0x00,0x04,0x00,0x00,0x80,0x2b,0x40,0x28,0x00,0x7f,0x3c,0x08,
 0x70,0x42,0x80,0x1c,0x00,0x01,0x80,0x28,0xc8,0x29,0x0c,0x41,0x52,0x08,0x30,
 0x44,0x80,0x0c,0xe0,0x00,0x80,0x28,0xc8,0x28,0x0a,0x42,0x52,0xc4,0x6f,0xe4,
 0xf0,0x1a,0x1c,0x00,0xc0,0x29,0xaf,0x29,0x06,0x22,0x52,0x44,0x05,0x04,0x90,
 0x00,0x18,0x00,0x20,0x29,0x09,0x28,0x01,0x24,0x3c,0x04,0x01,0x04,0x48,0x00,
 0xe0,0xe0,0x2f,0xa9,0x04,0x28,0x01,0x14,0x10,0x84,0x04,0x04,0x48,0x01,0x00,
 0x01,0x20,0xa9,0x14,0x28,0x00,0x08,0x3c,0xe4,0x03,0x04,0xf8,0x00,0x00,0x00,
 0xc0,0xa8,0x0f,0x28,0x40,0x00,0x00,0x04,0x00,0x04,0x00,0x00,0x00,0x00,0x00,
 0x28,0x00,0x28,0x00,0x00,0x00,0x08,0x00,0x02,0x00,0x00,0xfc,0x01,0x00,0x28,
 0x00,0x28,0x00,0x00,0x00,0x10,0x00,0x02,0x00,0x00,0x00,0x00,0x00,0x28,0x00,
 0x28,0x00};
