#define 32401_img142_width 33
#define 32401_img142_height 9
static char 32401_img142_bits[] = {
 0x00,0x00,0xe0,0x60,0x00,0x00,0x00,0x20,0x41,0x00,0x38,0x00,0x00,0x41,0x00,
 0x24,0xfe,0x00,0x41,0x00,0x22,0x00,0x80,0x40,0x00,0x12,0xfe,0x40,0x41,0x00,
 0x0e,0x00,0xe0,0xe5,0x01,0x02,0x00,0x00,0x00,0x00,0x01,0x00,0x00,0x00,0x00};
