#define 31603_img104_width 77
#define 31603_img104_height 12
static char 31603_img104_bits[] = {
 0x00,0x00,0x00,0x00,0x00,0x00,0x00,0x40,0x10,0x00,0x00,0x00,0x40,0x00,0x00,
 0x00,0x01,0x80,0x20,0x00,0x00,0x00,0x20,0x7e,0x08,0x82,0x00,0x80,0x20,0x0f,
 0x00,0x70,0x20,0xcc,0x08,0x82,0x00,0x80,0x20,0x0a,0x26,0x08,0x20,0xcc,0x08,
 0x82,0x38,0x8e,0x20,0x1a,0x15,0x04,0x20,0x3c,0x08,0x82,0x44,0x99,0x20,0x00,
 0x12,0x7c,0x30,0x5c,0x08,0xc2,0x84,0x90,0xe3,0x00,0x32,0x04,0x20,0xac,0x18,
 0x83,0x44,0x91,0x20,0x00,0x3e,0x08,0x20,0xde,0xf1,0x81,0x38,0x8e,0x20,0x00,
 0x00,0x70,0x20,0x00,0x00,0x80,0x00,0x80,0x20,0x00,0x00,0x00,0x20,0x00,0x00,
 0x80,0x00,0x80,0x20,0x00,0x00,0x00,0xc0,0x00,0x00,0x00,0x03,0xc0,0x30,0x00};
