#define 31625_img105_width 24
#define 31625_img105_height 9
static char 31625_img105_bits[] = {
 0x0c,0x20,0x00,0x0a,0x1c,0x00,0x8e,0x03,0x98,0x07,0x03,0x54,0x01,0x1c,0x48,
 0x01,0x20,0xc8,0x06,0x00,0xf8,0x00,0x00,0x00,0x80,0x3f,0x00};
