#define 32269_img136_width 25
#define 32269_img136_height 9
static char 32269_img136_bits[] = {
 0x00,0x00,0xe0,0x00,0x00,0x0e,0x20,0x01,0x38,0x30,0x00,0x01,0x24,0xc0,0x00,
 0x01,0x22,0x40,0x80,0x00,0x12,0x30,0x40,0x01,0x0e,0x0e,0xe0,0x01,0x02,0x00,
 0x00,0x00,0x01,0x00,0x00,0x00};
