#define 29449_img1_width 41
#define 29449_img1_height 11
static char 29449_img1_bits[] = {
 0x00,0x00,0x20,0x00,0x40,0x00,0x00,0x00,0x90,0x03,0x8c,0x00,0x00,0x38,0x50,
 0x04,0x08,0x01,0x1e,0x04,0x48,0x04,0x08,0x01,0x01,0x02,0x48,0x04,0x08,0x01,
 0x06,0x3e,0x48,0x04,0x08,0x01,0x01,0x02,0x48,0x04,0x08,0x01,0x0f,0x04,0x88,
 0x63,0x3c,0x01,0x00,0x38,0x08,0x40,0x00,0x01,0x00,0x00,0x10,0x20,0x80,0x00,
 0x00,0x00,0x20,0x00,0x80,0x00};
