#define 31848_img116_width 53
#define 31848_img116_height 9
static char 31848_img116_bits[] = {
 0x18,0xc0,0xcf,0x03,0x00,0xe0,0x07,0x04,0x80,0x99,0x02,0x40,0xc0,0x0c,0x0e,
 0x82,0x99,0x06,0x40,0xc0,0x0c,0x04,0x80,0x07,0x00,0x80,0xc0,0x03,0x04,0x80,
 0x0b,0x80,0xff,0xc1,0x05,0x04,0x80,0x15,0x00,0x80,0xc0,0x0a,0x02,0xc2,0x3b,
 0x00,0x40,0xe0,0x1d,0x02,0x00,0x00,0x00,0x00,0x00,0x00,0x03,0x00,0x00,0x00,
 0x00,0x00,0x00};
