#define 31958_img121_width 53
#define 31958_img121_height 11
static char 31958_img121_bits[] = {
 0x00,0x00,0x80,0x07,0x00,0x00,0x00,0x00,0x00,0x80,0x04,0x00,0x00,0x00,0x10,
 0x80,0x1f,0x04,0x00,0xe0,0x07,0x10,0x00,0x33,0x03,0x40,0xc0,0x0c,0x1c,0x04,
 0xb3,0x07,0x40,0xc0,0x0c,0x2a,0x00,0x0f,0x00,0x80,0xc0,0x03,0x29,0x00,0x17,
 0x80,0xff,0xc1,0x05,0x29,0x00,0x2b,0x00,0x80,0xc0,0x0a,0x1f,0x84,0x77,0x00,
 0x40,0xe0,0x1d,0x04,0x00,0x00,0x00,0x00,0x00,0x00,0x04,0x00,0x00,0x00,0x00,
 0x00,0x00};
