#define 31581_img103_width 83
#define 31581_img103_height 12
static char 31581_img103_bits[] = {
 0x00,0x00,0x00,0x00,0x00,0x00,0x00,0x00,0x10,0x02,0x00,0x00,0x00,0x10,0x00,
 0x00,0x20,0x00,0x00,0x20,0x04,0x00,0x0c,0x00,0xc8,0x0f,0x41,0x10,0x00,0x00,
 0x20,0xc4,0x03,0x0a,0x0e,0x88,0x19,0x41,0x10,0x00,0x00,0x20,0x84,0x02,0x0e,
 0x01,0x88,0x19,0x41,0x10,0x00,0x8e,0x23,0x84,0x06,0x87,0x00,0x88,0x07,0x41,
 0x10,0x00,0x51,0x26,0x04,0x00,0x81,0x0f,0x8c,0x0b,0x41,0x18,0xfe,0x21,0xe4,
 0x1c,0x00,0x81,0x00,0x88,0x15,0x63,0x10,0x00,0x51,0x24,0x04,0x00,0x06,0x01,
 0xc8,0x3b,0x3e,0x10,0x00,0x8e,0x23,0x04,0x00,0x00,0x0e,0x08,0x00,0x00,0x10,
 0x00,0x00,0x20,0x04,0x00,0x00,0x00,0x08,0x00,0x00,0x10,0x00,0x00,0x20,0x04,
 0x00,0x00,0x00,0x30,0x00,0x00,0x60,0x00,0x00,0x30,0x06,0x00};
