#define 32181_img132_width 43
#define 32181_img132_height 12
static char 32181_img132_bits[] = {
 0x00,0x00,0x00,0x00,0x10,0x00,0x00,0x00,0x00,0x10,0x10,0x01,0x00,0x7f,0x3c,
 0x08,0x70,0x02,0x00,0x41,0x52,0x08,0x30,0x04,0x00,0x42,0x52,0xc4,0x6f,0x04,
 0x00,0x22,0x52,0x44,0x05,0x04,0x7f,0x24,0x3c,0x04,0x01,0x04,0x00,0x14,0x10,
 0x84,0x04,0x04,0x00,0x08,0x3c,0xe4,0x03,0x04,0x00,0x00,0x00,0x04,0x00,0x04,
 0x00,0x00,0x00,0x08,0x00,0x02,0x00,0x00,0x00,0x10,0x00,0x02};
