#define 29819_img23_width 86
#define 29819_img23_height 11
static char 29819_img23_bits[] = {
 0x00,0x00,0x00,0x00,0x00,0x00,0x00,0x00,0x08,0x80,0x00,0xdc,0x03,0x04,0x00,
 0x00,0x00,0xfe,0x60,0x04,0x00,0x01,0x88,0x00,0x04,0x00,0x00,0x00,0x82,0x10,
 0x04,0x00,0x02,0x88,0x80,0x07,0x00,0x00,0x00,0x84,0x38,0xe2,0x03,0x02,0xfc,
 0x80,0x04,0xe0,0x0f,0x00,0x44,0x10,0xa2,0x02,0x02,0x44,0x44,0x22,0x00,0x00,
 0x7f,0x48,0x10,0x82,0x08,0x02,0x44,0x44,0x2a,0xe0,0x0f,0x00,0x28,0x10,0x42,
 0x0a,0x02,0xef,0xdc,0xe7,0x00,0x00,0x00,0x10,0x08,0xf2,0x39,0x32,0x00,0x0c,
 0x60,0x00,0x00,0x00,0x00,0x08,0x02,0x18,0x22,0x00,0x1a,0xd0,0x00,0x00,0x00,
 0x00,0x0c,0x04,0x34,0x11,0x00,0x00,0x00,0x00,0x00,0x00,0x00,0x00,0x08,0x00,
 0x01};
