#define 29797_img22_width 31
#define 29797_img22_height 9
static char 29797_img22_bits[] = {
 0x00,0x00,0x00,0x18,0x00,0x00,0x00,0x10,0x24,0x00,0x00,0x10,0xa2,0x81,0x3f,
 0x10,0x52,0x02,0x00,0x10,0x52,0x82,0x3f,0x10,0x7e,0x02,0x00,0x78,0x81,0x01,
 0x00,0x00,0x01,0x00,0x00,0x00};
