#define 29775_img21_width 10
#define 29775_img21_height 7
static char 29775_img21_bits[] = {
 0x24,0x00,0xa2,0x01,0x52,0x02,0x52,0x02,0x7e,0x02,0x81,0x01,0x01,0x00};
