#define 29753_img20_width 34
#define 29753_img20_height 11
static char 29753_img20_bits[] = {
 0x00,0x01,0x08,0x88,0x00,0x98,0x00,0x04,0x10,0x01,0x84,0x00,0x04,0x20,0x02,
 0x4e,0xf8,0x42,0x22,0x02,0x44,0xa8,0x22,0x22,0x02,0x44,0x20,0x22,0x21,0x02,
 0x44,0x90,0x22,0x25,0x02,0x42,0x7c,0xe2,0x23,0x02,0x42,0x00,0x12,0x20,0x02,
 0x83,0x00,0x14,0x10,0x01,0x00,0x01,0x08,0x10,0x01};
