#define 29841_img24_width 9
#define 29841_img24_height 6
static char 29841_img24_bits[] = {
 0x3e,0x00,0x45,0x00,0x44,0x00,0xc4,0x01,0xc4,0x00,0xa0,0x01};
