#define 29471_img2_width 33
#define 29471_img2_height 7
static char 29471_img2_bits[] = {
 0x00,0x00,0xe0,0xe0,0x00,0x00,0x00,0x10,0x31,0x01,0x1e,0x00,0x10,0x11,0x01,
 0x01,0xfe,0x10,0x31,0x01,0x06,0x00,0x10,0xe1,0x01,0x01,0xfe,0x10,0x81,0x01,
 0x0f,0x00,0xe0,0xe4,0x00};
