#define 29907_img27_width 106
#define 29907_img27_height 16
static char 29907_img27_bits[] = {
 0x00,0x00,0x00,0x00,0x00,0x00,0x00,0x00,0x00,0x00,0x03,0x00,0x0f,0x00,0x00,
 0x00,0xa0,0x00,0x00,0x00,0x00,0x00,0x00,0x00,0x02,0x50,0x09,0x00,0x00,0x04,
 0xa0,0x00,0xde,0x31,0x00,0x00,0xf0,0x00,0x82,0x57,0x08,0x00,0x00,0x00,0xa0,
 0x00,0x09,0x11,0x00,0x00,0x48,0x3e,0x42,0x54,0x06,0x00,0xff,0xf6,0xa1,0x78,
 0x1f,0x09,0x00,0xc0,0xfb,0x00,0x47,0x50,0x0f,0x00,0x92,0x24,0xa1,0x24,0x00,
 0x06,0x00,0x20,0x01,0x00,0x80,0x51,0x00,0x00,0x92,0x24,0xa1,0x22,0x00,0x02,
 0xfc,0x11,0x01,0x00,0x00,0x52,0x38,0x00,0x92,0x24,0xa1,0x32,0x00,0x01,0x00,
 0x90,0x01,0x00,0x20,0x53,0x44,0x00,0xff,0xff,0xa3,0x1c,0x80,0x03,0x00,0xe0,
 0x00,0x00,0xe0,0x51,0x14,0x03,0x00,0x00,0xa0,0x00,0x00,0x00,0x00,0x00,0x00,
 0x00,0x00,0x50,0x0c,0x02,0x00,0x00,0xa0,0x00,0x00,0x00,0x00,0x00,0x00,0x00,
 0x00,0x50,0x02,0x01,0x00,0x00,0xa0,0x00,0x00,0x00,0x00,0x00,0x00,0x00,0x00,
 0x50,0x07,0x00,0x00,0x00,0x00,0x00,0x00,0x00,0x00,0x00,0x00,0x00,0x00,0x00,
 0x00,0x00,0x00,0x0f,0x00,0x00,0x00,0x00,0x00,0x00,0x00,0x00,0x00,0x00,0x00,
 0x00,0x80,0x04,0x00,0x00,0x00,0x00,0x00,0x00,0x00,0x00,0x00,0x00,0x00,0x00,
 0x80,0x03,0x00,0x00,0x00,0x00,0x00,0x00,0x00,0x00,0x00,0x00,0x00,0x00};
