#define 30061_img34_width 26
#define 30061_img34_height 9
static char 30061_img34_bits[] = {
 0x10,0x00,0xc0,0x01,0x10,0x00,0x20,0x02,0x1c,0x00,0x20,0x02,0x2a,0xfc,0x21,
 0x02,0x29,0x00,0x20,0x02,0x29,0xfc,0x21,0x02,0x1f,0x00,0xc0,0x01,0x04,0x00,
 0x00,0x00,0x04,0x00,0x00,0x00};
