#define 30171_img39_width 154
#define 30171_img39_height 17
static char 30171_img39_bits[] = {
 0x00,0x00,0x00,0x00,0x00,0x00,0x1c,0x00,0x00,0x00,0x00,0x00,0x00,0x00,0xe0,
 0x80,0x01,0x00,0x00,0x00,0x00,0x00,0x00,0x00,0x00,0x00,0x1c,0x00,0x00,0x00,
 0x00,0x00,0x60,0x00,0xe0,0x00,0x01,0x00,0x0f,0x00,0x00,0x00,0xa0,0x00,0x00,
 0x00,0x0a,0x00,0x00,0x00,0x00,0x00,0x40,0x00,0x50,0x00,0x01,0x50,0x09,0x00,
 0x00,0x08,0xa0,0x00,0x1e,0xf7,0x12,0x38,0x06,0x00,0x00,0x1e,0x40,0xb8,0x97,
 0x3e,0xc1,0x53,0x08,0x00,0x00,0x00,0xa0,0x00,0x09,0x22,0x0a,0x20,0x02,0x00,
 0x00,0xc9,0x47,0x10,0x51,0x80,0x23,0x52,0x06,0x00,0xff,0xec,0xa3,0xf0,0x1f,
 0x22,0x07,0x20,0x01,0x00,0x78,0x1f,0xe0,0x10,0x39,0x00,0x20,0x50,0x0f,0x00,
 0x92,0x48,0xa2,0x48,0x00,0x3f,0x01,0xc0,0x00,0x00,0x24,0x00,0x00,0xf8,0x09,
 0x00,0xc0,0x50,0x00,0x00,0x92,0x48,0xa2,0x44,0x00,0x11,0x00,0x40,0x80,0x3f,
 0x22,0x00,0x00,0x88,0x00,0x00,0x00,0x51,0x38,0x00,0x92,0x48,0xa2,0x64,0x00,
 0x11,0x00,0x20,0x00,0x00,0x32,0x00,0x00,0x88,0x00,0x00,0x90,0x51,0x44,0x00,
 0xff,0xfd,0xa7,0x38,0xc0,0x3b,0x86,0x70,0x00,0x00,0x1c,0x00,0x00,0xde,0x19,
 0x02,0xf0,0x50,0x14,0x03,0x00,0x00,0xa0,0x00,0x00,0x00,0x89,0x00,0x00,0x00,
 0x00,0x00,0x00,0x00,0x24,0x02,0x00,0x50,0x0c,0x02,0x00,0x00,0xa0,0x00,0x00,
 0x00,0x89,0x03,0x00,0x00,0x00,0x00,0x00,0x00,0x24,0x0e,0x00,0x50,0x02,0x01,
 0x00,0x00,0xa0,0x00,0x00,0x00,0x89,0x01,0x00,0x00,0x00,0x00,0x00,0x00,0x24,
 0x06,0x00,0x50,0x07,0x00,0x00,0x00,0x00,0x00,0x00,0x00,0x66,0x03,0x00,0x00,
 0x00,0x00,0x00,0x00,0x98,0x0d,0x00,0x00,0x00,0x00,0x00,0x0f,0x00,0x00,0x00,
 0x00,0x20,0x00,0x00,0x00,0x00,0x00,0x00,0x00,0x80,0x00,0x00,0x00,0x00,0x00,
 0x80,0x04,0x00,0x00,0x00,0x00,0x20,0x00,0x00,0x00,0x00,0x00,0x00,0x00,0x80,
 0x00,0x00,0x00,0x00,0x00,0x80,0x03,0x00,0x00,0x00,0x00,0x00,0x00,0x00,0x00,
 0x00,0x00,0x00,0x00,0x00,0x00,0x00,0x00,0x00,0x00};
