#define 30083_img35_width 26
#define 30083_img35_height 9
static char 30083_img35_bits[] = {
 0x10,0x00,0xc0,0x00,0x10,0x00,0x80,0x00,0x1c,0x00,0x80,0x00,0x2a,0xfc,0x81,
 0x00,0x29,0x00,0x80,0x00,0x29,0xfc,0x81,0x00,0x1f,0x00,0xc0,0x03,0x04,0x00,
 0x00,0x00,0x04,0x00,0x00,0x00};
