#define 29493_img3_width 20
#define 29493_img3_height 10
static char 29493_img3_bits[] = {
 0x00,0x30,0x04,0x00,0x48,0x02,0xdf,0xc9,0x03,0x31,0x4a,0x01,0x28,0xca,0x00,
 0x28,0xb2,0x06,0x24,0x42,0x09,0x24,0x42,0x09,0xc4,0x21,0x09,0x00,0x10,0x06};
