#define 29995_img31_width 37
#define 29995_img31_height 7
static char 29995_img31_bits[] = {
 0xc0,0x31,0x00,0x00,0x1e,0x00,0x11,0x00,0x00,0x11,0x3c,0x09,0x00,0x00,0x01,
 0x12,0x06,0xf8,0x03,0x06,0x11,0x02,0x00,0x00,0x08,0x19,0x01,0xf8,0x83,0x0c,
 0x8e,0x03,0x00,0x80,0x07};
