#define 30039_img33_width 6
#define 30039_img33_height 9
static char 30039_img33_bits[] = {
 0x10,0x10,0x1c,0x2a,0x29,0x29,0x1f,0x04,0x04};
