#define 30215_img41_width 40
#define 30215_img41_height 11
static char 30215_img41_bits[] = {
 0x00,0x00,0x60,0x00,0xc0,0x38,0x00,0x20,0x07,0x8c,0x24,0xe0,0xa0,0x08,0x88,
 0x3c,0x10,0xa0,0x08,0x88,0x24,0x08,0xa0,0x08,0x88,0x22,0xf8,0xa0,0x08,0x88,
 0x22,0x08,0xa0,0x08,0x88,0x1e,0x10,0x20,0x67,0xbc,0x02,0xe0,0x20,0x40,0x80,
 0x01,0x00,0x20,0x20,0x80,0x00,0x00,0x60,0x00,0xc0};
