#define 30369_img48_width 32
#define 30369_img48_height 6
static char 30369_img48_bits[] = {
 0x3c,0x00,0x00,0xf0,0x92,0x80,0x3f,0x48,0x91,0x00,0x00,0x44,0x99,0x83,0x3f,
 0x64,0x8e,0x01,0x00,0x38,0x40,0x03,0x00,0x00};
