#define 30325_img46_width 6
#define 30325_img46_height 9
static char 30325_img46_bits[] = {
 0x38,0x24,0x3c,0x24,0x22,0x22,0x1e,0x02,0x01};
