#define 30281_img44_width 26
#define 30281_img44_height 10
static char 30281_img44_bits[] = {
 0x00,0xf7,0x00,0x00,0x00,0x22,0x00,0x00,0x3c,0x22,0x00,0x00,0x12,0x3f,0x86,
 0x00,0x11,0x11,0x89,0x00,0x19,0x11,0x89,0x03,0xce,0x3b,0x89,0x01,0x00,0x00,
 0x66,0x03,0x00,0x00,0x20,0x00,0x00,0x00,0x20,0x00};
