#define 30259_img43_width 57
#define 30259_img43_height 10
static char 30259_img43_bits[] = {
 0x00,0xf7,0x00,0x38,0x06,0x00,0xe0,0x01,0x00,0x22,0x00,0x20,0x02,0x00,0x10,
 0x01,0x3c,0x22,0x00,0x20,0x01,0x00,0x10,0x00,0x12,0x3f,0x86,0xc0,0x00,0x7f,
 0x60,0x00,0x11,0x11,0x89,0x40,0x00,0x00,0x80,0x00,0x19,0x11,0x89,0x23,0x00,
 0x7f,0xc8,0x00,0xce,0x3b,0x89,0x71,0x00,0x00,0x78,0x00,0x00,0x00,0x66,0x03,
 0x00,0x00,0x00,0x00,0x00,0x00,0x20,0x00,0x00,0x00,0x00,0x00,0x00,0x00,0x20,
 0x00,0x00,0x00,0x00,0x00};
