#define 30193_img40_width 41
#define 30193_img40_height 11
static char 30193_img40_bits[] = {
 0x00,0x00,0x60,0x00,0x80,0x01,0x00,0x00,0x20,0x07,0x0c,0x01,0x00,0xe0,0xa0,
 0x08,0x08,0x01,0x4c,0x10,0xa0,0x08,0x08,0x01,0x52,0x08,0xa0,0x08,0x08,0x01,
 0x31,0xf8,0xa0,0x08,0x08,0x01,0x11,0x08,0xa0,0x08,0x08,0x01,0x2e,0x10,0x20,
 0xc7,0x3c,0x01,0x00,0xe0,0x20,0x80,0x00,0x01,0x00,0x00,0x20,0x40,0x00,0x01,
 0x00,0x00,0x60,0x00,0x80,0x01};
