#define 29515_img4_width 24
#define 29515_img4_height 10
static char 29515_img4_bits[] = {
 0x00,0x00,0x43,0x00,0x80,0x24,0xe3,0xb8,0x3c,0x12,0xc5,0x14,0x12,0xc5,0x0c,
 0x12,0x45,0x6b,0x12,0x45,0x94,0x12,0x45,0x94,0xef,0x38,0x92,0x00,0x00,0x61};
