#define 30237_img42_width 6
#define 30237_img42_height 5
static char 30237_img42_bits[] = {
 0x3c,0x12,0x11,0x19,0x0e};
