#define 29537_img5_width 33
#define 29537_img5_height 7
static char 29537_img5_bits[] = {
 0x00,0x00,0xe0,0x60,0x00,0x00,0x00,0x10,0x41,0x00,0x1e,0x00,0x10,0x41,0x00,
 0x01,0xfe,0x10,0x41,0x00,0x06,0x00,0x10,0x41,0x00,0x01,0xfe,0x10,0x41,0x00,
 0x0f,0x00,0xe0,0xe4,0x01};
