#define 30415_img50_width 108
#define 30415_img50_height 11
static char 30415_img50_bits[] = {
 0x00,0x00,0x00,0x00,0x00,0x00,0x80,0x00,0x00,0x00,0x04,0x00,0x00,0x00,0x00,
 0x00,0x00,0x00,0x00,0x00,0x40,0x06,0x00,0x00,0x08,0x00,0x00,0x00,0x00,0x00,
 0x00,0x00,0x00,0x20,0x40,0x04,0x00,0x00,0x10,0x00,0x00,0x00,0x3c,0x00,0x00,
 0x90,0x3c,0x20,0x20,0x04,0x00,0x20,0x11,0x0f,0x00,0x00,0x92,0x80,0x3f,0x88,
 0x12,0x20,0x20,0x04,0x00,0x10,0x91,0x24,0x00,0x06,0x91,0x00,0x00,0x48,0x11,
 0xfc,0x21,0x04,0xfe,0x90,0x50,0x24,0x00,0x04,0x99,0x83,0x3f,0x48,0x19,0x20,
 0x20,0x04,0x00,0x90,0x52,0xe6,0x00,0x04,0x8e,0x01,0x00,0xf8,0x0e,0x20,0x20,
 0x1e,0x00,0xf0,0x91,0x63,0x7c,0x04,0x40,0x03,0x00,0x04,0x00,0x20,0x20,0x00,
 0x00,0x08,0x10,0xd0,0x00,0x0e,0x00,0x00,0x00,0x04,0x00,0x00,0x40,0x00,0x00,
 0x08,0x08,0x00,0x00,0x00,0x00,0x00,0x00,0x00,0x00,0x00,0x80,0x00,0x00,0x00,
 0x08,0x00,0x00,0x00};
