#define 30481_img53_width 40
#define 30481_img53_height 11
static char 30481_img53_bits[] = {
 0x00,0x00,0x60,0x00,0xc0,0x00,0x00,0x20,0x07,0x8c,0x00,0x70,0xa0,0x08,0x88,
 0x24,0x08,0xa0,0x08,0x88,0x22,0x04,0xa0,0x08,0x88,0x12,0x7c,0xa0,0x08,0x88,
 0x52,0x04,0xa0,0x08,0x88,0x3e,0x08,0x20,0x67,0xbc,0x01,0x70,0x20,0x40,0x80,
 0x01,0x00,0x20,0x20,0x80,0x00,0x00,0x60,0x00,0xc0};
