#define 30591_img58_width 171
#define 30591_img58_height 12
static char 30591_img58_bits[] = {
 0x00,0x00,0x00,0x00,0x00,0x00,0x00,0x00,0x00,0x00,0x00,0x00,0x00,0x00,0x00,
 0x00,0x00,0x00,0x00,0x00,0x80,0x00,0x00,0x00,0x00,0x00,0x00,0x00,0x00,0x00,
 0x02,0x00,0x00,0x00,0x00,0x00,0x00,0x00,0x00,0x00,0x00,0x00,0x00,0x01,0x00,
 0x00,0x00,0x00,0x00,0x98,0x00,0x00,0x01,0x00,0x00,0x00,0x00,0x00,0x00,0x00,
 0x00,0x00,0x00,0x00,0x00,0x01,0x00,0x00,0x00,0x00,0x00,0x10,0x00,0x00,0x01,
 0x00,0x00,0x00,0x00,0x00,0x00,0x00,0x00,0x00,0x00,0x02,0x00,0x01,0x3c,0x00,
 0x00,0xfc,0x73,0xde,0xdc,0x07,0xc1,0x03,0x00,0x00,0x00,0x11,0x78,0xc0,0x03,
 0x00,0x00,0x02,0x22,0x01,0x92,0x80,0x3f,0x48,0x8a,0x91,0x94,0x04,0x21,0x09,
 0xc0,0x00,0x00,0x09,0x24,0x20,0x09,0x80,0x01,0x02,0x12,0x01,0x91,0x00,0x00,
 0x48,0xfa,0x91,0x9c,0x84,0x11,0x09,0x80,0xe0,0x0f,0x09,0x22,0x10,0x09,0x00,
 0xc1,0x1f,0x12,0x07,0x99,0x83,0x3f,0x48,0x8a,0x91,0xd6,0x04,0x91,0x39,0x80,
 0x00,0x00,0x05,0x32,0x90,0x39,0x00,0x01,0x02,0x0a,0x01,0x8e,0x01,0x00,0xfc,
 0x77,0xfe,0xff,0x0f,0xe1,0x98,0x8f,0x00,0x00,0xc3,0x1c,0xe3,0x18,0x1f,0x01,
 0x02,0x06,0x01,0x40,0x03,0x00,0x00,0x00,0x00,0x00,0x00,0x01,0x34,0xc0,0x01,
 0x00,0x80,0x00,0x02,0x34,0x80,0x03,0x02,0x00,0x01,0x00,0x00,0x00,0x00,0x00,
 0x00,0x00,0x00,0x01,0x00,0x00,0x00,0x00,0x40,0x00,0x01,0x00,0x00,0x00,0x00,
 0x00,0x01,0x00,0x00,0x00,0x00,0x00,0x00,0x00,0x00,0x06,0x00,0x00,0x00,0x00,
 0x00,0x00,0x00,0x00,0x00,0x00,0x00,0x80,0x01};
