#define 30459_img52_width 21
#define 30459_img52_height 6
static char 30459_img52_bits[] = {
 0x3c,0x00,0x00,0x92,0x00,0x0c,0x91,0x00,0x08,0x99,0x03,0x08,0x8e,0xf1,0x09,
 0x40,0x03,0x1c};
