#define 30503_img54_width 200
#define 30503_img54_height 12
static char 30503_img54_bits[] = {
 0x00,0x00,0x00,0x00,0x00,0x00,0x00,0x00,0x00,0x00,0x00,0x00,0x00,0x00,0x00,
 0x00,0x00,0x00,0x00,0x00,0x00,0x00,0x00,0x00,0x10,0x00,0x00,0x00,0x00,0x00,
 0x00,0x00,0x00,0x82,0x00,0x00,0x00,0x02,0x00,0x00,0x00,0x00,0x40,0x00,0x00,
 0x00,0x02,0x00,0x00,0x20,0x00,0x00,0x00,0x00,0x00,0x98,0x00,0x00,0x41,0x06,
 0x00,0x00,0x04,0x00,0x00,0x00,0x00,0x20,0x03,0x00,0x00,0x04,0x00,0x00,0x20,
 0x00,0x00,0x00,0x00,0x00,0x10,0x00,0x00,0x41,0x04,0x00,0x00,0x08,0x00,0x00,
 0x00,0x00,0x20,0x02,0x08,0x00,0x08,0x00,0x00,0x20,0x3c,0x00,0x00,0xfc,0x73,
 0xde,0xdc,0x07,0x21,0x04,0x00,0x20,0x89,0x07,0x00,0x00,0x3c,0x10,0x02,0x08,
 0x90,0x88,0x07,0x00,0x20,0x92,0x80,0x3f,0x48,0x8a,0x91,0x94,0x04,0x21,0x04,
 0x00,0x10,0x49,0x22,0x00,0x03,0x12,0x10,0x02,0x08,0x88,0x48,0x12,0x00,0x23,
 0x91,0x00,0x00,0x48,0xfa,0x91,0x9c,0x84,0x21,0x04,0xfe,0x90,0x28,0x22,0x00,
 0x02,0x11,0x10,0x02,0x7f,0x48,0x28,0x12,0x00,0xe2,0x99,0x83,0x3f,0x48,0x8a,
 0x91,0xd6,0x04,0x21,0x04,0x00,0x90,0x2a,0xe3,0x00,0x02,0x19,0x10,0x02,0x08,
 0x48,0x29,0x73,0x00,0x22,0x8e,0x01,0x00,0xfc,0x77,0xfe,0xff,0x0f,0x21,0x1e,
 0x00,0xf0,0xc9,0x61,0x3e,0x62,0x8e,0x11,0x0f,0x08,0xf8,0xc8,0x31,0x3e,0x22,
 0x40,0x03,0x00,0x00,0x00,0x00,0x00,0x00,0x21,0x00,0x00,0x08,0x08,0xd0,0x00,
 0x47,0x00,0x11,0x00,0x08,0x04,0x08,0x68,0x00,0x27,0x00,0x00,0x00,0x00,0x00,
 0x00,0x00,0x00,0x41,0x00,0x00,0x08,0x04,0x00,0x00,0x20,0x80,0x20,0x00,0x00,
 0x04,0x04,0x00,0x00,0x20,0x00,0x00,0x00,0x00,0x00,0x00,0x00,0x00,0x86,0x00,
 0x00,0x00,0x04,0x00,0x00,0x00,0x00,0x40,0x00,0x00,0x00,0x04,0x00,0x00,0x30};
