#define 29559_img6_width 331
#define 29559_img6_height 148
static char 29559_img6_bits[] = {
 0x00,0x00,0x00,0x00,0x00,0x00,0x00,0xfc,0xff,0xff,0xff,0xff,0xff,0xff,0xff,
 0xff,0xff,0xff,0xff,0xff,0xff,0xff,0xff,0xff,0xff,0xff,0xff,0xff,0xff,0xff,
 0xff,0xff,0xff,0xff,0x07,0x00,0x00,0x00,0x00,0x00,0x00,0x00,0x00,0x00,0x00,
 0x00,0x00,0x00,0x00,0x04,0x00,0x00,0x00,0x00,0x00,0x08,0x00,0x00,0x00,0x00,
 0x00,0x00,0x00,0x00,0x00,0x00,0x00,0x00,0x00,0x00,0x00,0x00,0x00,0x00,0x00,
 0x00,0x04,0x00,0x00,0x00,0x00,0x00,0x00,0x00,0x00,0x00,0x00,0x00,0x00,0x00,
 0x00,0x04,0x00,0x00,0x00,0x00,0x00,0x08,0x00,0x00,0x00,0x00,0x00,0x00,0x00,
 0x00,0x00,0x00,0x00,0x00,0x00,0x00,0x00,0x43,0x00,0x00,0x00,0x00,0x04,0x00,
 0x00,0x00,0x00,0x00,0x00,0x00,0x00,0x00,0x00,0x00,0x00,0x00,0x00,0x04,0x00,
 0x00,0x00,0x00,0x00,0x08,0x00,0x00,0x00,0x00,0x00,0x00,0x00,0x00,0x00,0x00,
 0x00,0x00,0x00,0x00,0x80,0x24,0x00,0x00,0x00,0x00,0x04,0x00,0x00,0x00,0x00,
 0x00,0x00,0x00,0x00,0x00,0x00,0x00,0x00,0x00,0x00,0x04,0x00,0x00,0x00,0x00,
 0x00,0x08,0x1c,0x00,0x00,0x00,0x00,0x00,0x00,0x00,0x20,0x02,0x00,0x00,0x80,
 0x00,0x80,0x3c,0x00,0x00,0x70,0x00,0x04,0x00,0x00,0x00,0x00,0x00,0x00,0x00,
 0x00,0x00,0x00,0x00,0x00,0x00,0x00,0x04,0x00,0x00,0x00,0x00,0x00,0x08,0x04,
 0x00,0x00,0x00,0x00,0x00,0x00,0x00,0x20,0x00,0x00,0x00,0x80,0x00,0x80,0x14,
 0x00,0x00,0x08,0x00,0x04,0x00,0x00,0x00,0x00,0x00,0x00,0x00,0x00,0x00,0x00,
 0x00,0x00,0x00,0x00,0x04,0xe0,0x01,0x00,0x40,0x03,0x08,0xee,0x9c,0x7b,0x00,
 0xd0,0x01,0x00,0x00,0x60,0xfb,0xe7,0x00,0xe0,0x01,0x80,0x0c,0x00,0x00,0x08,
 0x00,0x04,0x00,0x00,0x00,0x00,0x00,0x00,0x00,0x00,0x00,0x00,0x00,0x00,0x00,
 0x00,0x04,0x10,0x00,0x00,0xa0,0x02,0x08,0xa4,0x52,0x4c,0x00,0x28,0xf1,0x78,
 0x00,0x20,0x92,0x14,0x01,0xc0,0x78,0x3c,0x6b,0x00,0x00,0x18,0x00,0x04,0x00,
 0x00,0x00,0x00,0x00,0x00,0x00,0x00,0x00,0x00,0x00,0x00,0x00,0x00,0x04,0x60,
 0x00,0x00,0x40,0x02,0x08,0xe4,0xc2,0x37,0x00,0x10,0x89,0x44,0x00,0x20,0x92,
 0xf4,0x01,0x40,0x44,0x22,0x94,0x00,0x00,0x06,0x00,0x04,0x00,0x00,0x00,0x00,
 0x00,0x00,0x00,0x00,0x00,0x00,0x00,0x00,0x00,0x00,0x04,0x10,0x00,0x00,0x40,
 0x03,0x08,0xb4,0x42,0x4c,0x00,0x90,0x06,0x62,0x00,0xa0,0x92,0x14,0x01,0x40,
 0x03,0x31,0x94,0x00,0x00,0x22,0x00,0x04,0x00,0x00,0x00,0x00,0x00,0x00,0x00,
 0x00,0x00,0x00,0x00,0x00,0x00,0x00,0x04,0xf0,0x00,0x00,0xc0,0x01,0x08,0xfe,
 0xbf,0x7b,0x00,0x90,0xc5,0x22,0x00,0xe0,0xff,0xef,0x00,0xc0,0x62,0x11,0x92,
 0x00,0x00,0x1e,0x00,0x04,0x00,0x00,0x00,0x00,0x00,0x00,0x00,0x00,0x00,0x00,
 0x00,0x00,0x00,0x00,0x04,0x00,0x00,0x00,0x20,0x00,0x08,0x00,0x00,0x00,0x00,
 0x00,0x38,0x3c,0x00,0x00,0x00,0x00,0x00,0x00,0x1c,0x1e,0x61,0x00,0x00,0x00,
 0x00,0x04,0x00,0x00,0x00,0x00,0x00,0x00,0x00,0x00,0x00,0x00,0x00,0x00,0x00,
 0x00,0x04,0x00,0x00,0x00,0x60,0x00,0x08,0x00,0x00,0x00,0x00,0x00,0x00,0x00,
 0x00,0x00,0x00,0x00,0x00,0x00,0x00,0x00,0x00,0x00,0x00,0x00,0x00,0x04,0x00,
 0x00,0x00,0x00,0x00,0x00,0x00,0x00,0x00,0x00,0x00,0x00,0x00,0x00,0x04,0x00,
 0x00,0x00,0x00,0x00,0x08,0x00,0x00,0x00,0x00,0x00,0x00,0x00,0x00,0x00,0x00,
 0x00,0x00,0x00,0x00,0x00,0x00,0x00,0x00,0x00,0x00,0x04,0x00,0x00,0x00,0x00,
 0x00,0x00,0x00,0x00,0x00,0x00,0x00,0x00,0x00,0x00,0xfc,0xff,0xff,0xff,0xff,
 0xff,0xff,0xff,0xff,0xff,0xff,0xff,0xff,0xff,0xff,0xff,0xff,0xff,0xff,0xff,
 0xff,0xff,0xff,0xff,0xff,0xff,0xff,0x07,0x00,0x00,0x00,0x00,0x00,0x00,0x00,
 0x00,0x00,0x00,0x00,0x00,0x00,0x00,0x04,0x00,0x00,0x00,0x00,0x00,0x08,0x00,
 0x00,0x00,0x00,0x00,0x00,0x00,0x00,0x00,0x00,0x00,0x00,0x00,0x00,0x00,0x00,
 0x00,0x00,0x00,0x00,0x04,0x00,0x00,0x00,0x00,0x00,0x00,0x00,0x00,0x00,0x00,
 0x00,0x00,0x00,0x00,0x04,0x00,0x00,0x00,0x00,0x00,0x08,0x00,0x00,0x00,0x00,
 0x00,0x00,0x00,0x00,0x00,0x00,0x00,0x00,0x00,0x00,0x00,0x00,0x00,0x00,0x00,
 0x00,0x04,0x00,0x00,0x00,0x00,0x00,0x00,0x00,0x00,0x00,0x00,0x00,0x00,0x00,
 0x00,0x04,0x0e,0x06,0x00,0x00,0x07,0x08,0x00,0xc4,0x01,0x00,0x00,0xf1,0x06,
 0x00,0xf0,0x91,0xe1,0x00,0x00,0xc0,0xe1,0x00,0x00,0x60,0x1c,0x07,0x04,0x00,
 0x00,0x00,0x00,0x00,0x00,0x00,0x00,0x00,0x00,0x00,0x00,0x00,0x00,0x04,0x11,
 0x04,0x00,0x80,0x08,0x08,0x00,0x26,0x00,0x00,0x80,0x91,0x04,0x00,0x10,0x19,
 0x31,0x01,0x00,0x20,0x12,0x00,0x00,0x40,0xa2,0x08,0x04,0x00,0x00,0x00,0x00,
 0x00,0x00,0x00,0x00,0x00,0x00,0x00,0x00,0x00,0x00,0x04,0x11,0x04,0x00,0x80,
 0x09,0x08,0x00,0xd6,0x00,0x00,0x80,0x81,0x04,0x00,0x80,0x18,0x11,0x01,0x00,
 0x60,0x6a,0x00,0x00,0x40,0xa2,0x08,0x04,0x00,0x00,0x00,0x00,0x00,0x00,0x00,
 0x00,0x00,0x00,0x00,0x00,0x00,0x00,0x04,0x11,0x04,0x00,0x00,0x07,0x08,0x00,
 0x35,0x01,0x00,0x40,0x61,0x04,0x00,0x80,0x14,0x31,0x01,0x00,0xc0,0x99,0x00,
 0x00,0x40,0xa2,0x08,0x04,0x00,0x00,0x00,0x00,0x00,0x00,0x00,0x00,0x00,0x00,
 0x00,0x00,0x00,0x00,0x04,0x11,0x04,0x00,0x80,0x0c,0x08,0x80,0x14,0x01,0x00,
 0x20,0x81,0x04,0x00,0x40,0x12,0xe1,0x01,0x00,0x20,0x8b,0x00,0x00,0x40,0xa2,
 0x08,0x04,0x00,0x00,0x00,0x00,0x00,0x00,0x00,0x00,0x00,0x00,0x00,0x00,0x00,
 0x00,0x04,0x11,0x04,0x00,0x80,0x08,0x08,0x80,0x3f,0x01,0x00,0xe0,0x93,0x04,
 0x00,0x40,0x3e,0x81,0x01,0x00,0x20,0x9a,0x00,0x00,0x40,0xa2,0x08,0x04,0x00,
 0x00,0x00,0x00,0x00,0x00,0x00,0x00,0x00,0x00,0x00,0x00,0x00,0x00,0x04,0x4e,
 0x1e,0x00,0x00,0x07,0x08,0x00,0xee,0x00,0x00,0x80,0x73,0x1e,0x00,0x40,0xb8,
 0xe7,0x00,0x00,0xc0,0x71,0x00,0x00,0xe0,0x1d,0x07,0x04,0x00,0x00,0x00,0x00,
 0x00,0x00,0x00,0x00,0x00,0x00,0x00,0x00,0x00,0x00,0x04,0x00,0x00,0x00,0x00,
 0x00,0x08,0x00,0x00,0x00,0x00,0x00,0x00,0x00,0x00,0x00,0x00,0x00,0x00,0x00,
 0x00,0x00,0x00,0x00,0x00,0x00,0x00,0x04,0x00,0x00,0x00,0x00,0x00,0x00,0x00,
 0x00,0x00,0x00,0x00,0x00,0x00,0x00,0x04,0x00,0x00,0x00,0x00,0x00,0x08,0x00,
 0x00,0x00,0x00,0x00,0x00,0x00,0x00,0x00,0x00,0x00,0x00,0x00,0x00,0x00,0x00,
 0x00,0x00,0x00,0x00,0x04,0x00,0x00,0x00,0x00,0x00,0x00,0x00,0x00,0x00,0x00,
 0x00,0x00,0x00,0x00,0x04,0x00,0x00,0x00,0x00,0x00,0x08,0x00,0x00,0x00,0x00,
 0x00,0x00,0x00,0x00,0x00,0x00,0x00,0x00,0x00,0x00,0x00,0x00,0x00,0x00,0x00,
 0x00,0x04,0x00,0x00,0x00,0x00,0x00,0x00,0x00,0x00,0x00,0x00,0x00,0x00,0x00,
 0x00,0x04,0x00,0x00,0x00,0x00,0x00,0x08,0x00,0x00,0x00,0x00,0x00,0x00,0x00,
 0x00,0x00,0x00,0x00,0x00,0x00,0x00,0x00,0x00,0x00,0x00,0x00,0x00,0x04,0x00,
 0x00,0x00,0x00,0x00,0x00,0x00,0x00,0x00,0x00,0x00,0x00,0x00,0x00,0x04,0x00,
 0x00,0x00,0x00,0x00,0x08,0x00,0x00,0x00,0x00,0x00,0x00,0x00,0x00,0x00,0x00,
 0x00,0x00,0x00,0x00,0x00,0x00,0x00,0x00,0x00,0x00,0x04,0x00,0x00,0x00,0x00,
 0x00,0x00,0x00,0x00,0x00,0x00,0x00,0x00,0x00,0x00,0x04,0x00,0x00,0x00,0x00,
 0x00,0x08,0x00,0x00,0x00,0x00,0x00,0x00,0x00,0x00,0x00,0x00,0x00,0x00,0x00,
 0x00,0x00,0x00,0x00,0x00,0x00,0x00,0x04,0x00,0x00,0x00,0x00,0x00,0x00,0x00,
 0x00,0x00,0x00,0x00,0x00,0x00,0x00,0x04,0x00,0x00,0x00,0x00,0x00,0x08,0x00,
 0x00,0x00,0x00,0x00,0x00,0x00,0x00,0x00,0x00,0x00,0x00,0x00,0x00,0x00,0x00,
 0x00,0x00,0x00,0x00,0x04,0x00,0x00,0x00,0x00,0x00,0x00,0x00,0x00,0x00,0x00,
 0x00,0x00,0x00,0x00,0x04,0x0e,0x06,0x00,0x18,0x0e,0x08,0x00,0xe4,0x00,0x00,
 0x00,0x71,0x1e,0x00,0xe0,0xbf,0xc3,0x01,0x00,0xc0,0xf1,0x00,0x00,0x60,0x1c,
 0x07,0x04,0x00,0x00,0x00,0x00,0x00,0x00,0x00,0x00,0x00,0x00,0x00,0x00,0x00,
 0x00,0x04,0x11,0x04,0x00,0x10,0x01,0x08,0x00,0x26,0x00,0x00,0x80,0x91,0x12,
 0x00,0x20,0x63,0x24,0x00,0x00,0x20,0x92,0x00,0x00,0x40,0xa2,0x08,0x04,0x00,
 0x00,0x00,0x00,0x00,0x00,0x00,0x00,0x00,0x00,0x00,0x00,0x00,0x00,0x04,0x11,
 0x04,0x00,0x90,0x06,0x08,0x00,0xe6,0x00,0x00,0x80,0x81,0x10,0x00,0x00,0x51,
 0xd4,0x00,0x00,0x60,0x82,0x00,0x00,0x40,0xa2,0x08,0x04,0x00,0x00,0x00,0x00,
 0x00,0x00,0x00,0x00,0x00,0x00,0x00,0x00,0x00,0x00,0x04,0x11,0x04,0x00,0x90,
 0x09,0x08,0x00,0x25,0x01,0x00,0x40,0x81,0x0c,0x00,0xc0,0x50,0x34,0x01,0x00,
 0xc0,0x61,0x00,0x00,0x40,0xa2,0x08,0x04,0x00,0x00,0x00,0x00,0x00,0x00,0x00,
 0x00,0x00,0x00,0x00,0x00,0x00,0x00,0x04,0x11,0x04,0x00,0x90,0x08,0x08,0x80,
 0x04,0x01,0x00,0x20,0x41,0x10,0x00,0x00,0x49,0x14,0x01,0x00,0x20,0x83,0x00,
 0x00,0x40,0xa2,0x08,0x04,0x00,0x00,0x00,0x00,0x00,0x00,0x00,0x00,0x00,0x00,
 0x00,0x00,0x00,0x00,0x04,0x11,0x04,0x00,0x90,0x09,0x08,0x80,0x2f,0x01,0x00,
 0xe0,0xa3,0x12,0x00,0x20,0x49,0x34,0x01,0x00,0x20,0x92,0x00,0x00,0x40,0xa2,
 0x08,0x04,0x00,0x00,0x00,0x00,0x00,0x00,0x00,0x00,0x00,0x00,0x00,0x00,0x00,
 0x00,0x04,0x4e,0x1e,0x00,0x78,0x07,0x08,0x00,0xee,0x00,0x00,0x80,0xf3,0x0e,
 0x00,0xe0,0x88,0xe3,0x00,0x00,0xc0,0x71,0x00,0x00,0xe0,0x1d,0x07,0x04,0x00,
 0x00,0x00,0x00,0x00,0x00,0x00,0x00,0x00,0x00,0x00,0x00,0x00,0x00,0x04,0x00,
 0x00,0x00,0x00,0x00,0x08,0x00,0x00,0x00,0x00,0x00,0x00,0x00,0x00,0x00,0x00,
 0x00,0x00,0x00,0x00,0x00,0x00,0x00,0x00,0x00,0x00,0x04,0x00,0x00,0x00,0x00,
 0x00,0x00,0x00,0x00,0x00,0x00,0x00,0x00,0x00,0x00,0x04,0x00,0x00,0x00,0x00,
 0x00,0x08,0x00,0x00,0x00,0x00,0x00,0x00,0x00,0x00,0x00,0x00,0x00,0x00,0x00,
 0x00,0x00,0x00,0x00,0x00,0x00,0x00,0x04,0x00,0x00,0x00,0x00,0x00,0x00,0x00,
 0x00,0x00,0x00,0x00,0x00,0x00,0x00,0x04,0x00,0x00,0x00,0x00,0x00,0x08,0x00,
 0x00,0x00,0x00,0x00,0x00,0x00,0x00,0x00,0x00,0x00,0x00,0x00,0x00,0x00,0x00,
 0x00,0x00,0x00,0x00,0x04,0x00,0x00,0x00,0x00,0x00,0x00,0x00,0x00,0x00,0x00,
 0x00,0x00,0x00,0x00,0x04,0x00,0x00,0x00,0x00,0x00,0x08,0x00,0x00,0x00,0x00,
 0x00,0x00,0x00,0x00,0x00,0x00,0x00,0x00,0x00,0x00,0x00,0x00,0x00,0x00,0x00,
 0x00,0x04,0x00,0x00,0x00,0x00,0x00,0x00,0x00,0x00,0x00,0x00,0x00,0x00,0x00,
 0x00,0x04,0x00,0x00,0x00,0x00,0x00,0x08,0x00,0x00,0x00,0x00,0x00,0x00,0x00,
 0x00,0x00,0x00,0x00,0x00,0x00,0x00,0x00,0x00,0x00,0x00,0x00,0x00,0x04,0x00,
 0x00,0x00,0x00,0x00,0x00,0x00,0x00,0x00,0x00,0x00,0x00,0x00,0x00,0x04,0x00,
 0x00,0x00,0x00,0x00,0x08,0x00,0x00,0x00,0x00,0x00,0x00,0x00,0x00,0x00,0x00,
 0x00,0x00,0x00,0x00,0x00,0x00,0x00,0x00,0x00,0x00,0x04,0x00,0x00,0x00,0x00,
 0x00,0x00,0x00,0x00,0x00,0x00,0x00,0x00,0x00,0x00,0x04,0x00,0x00,0x00,0x00,
 0x00,0x08,0x00,0x00,0x00,0x00,0x00,0x00,0x00,0x00,0x00,0x00,0x00,0x00,0x00,
 0x00,0x00,0x00,0x00,0x00,0x00,0x00,0x04,0x00,0x00,0x00,0x00,0x00,0x00,0x00,
 0x00,0x00,0x00,0x00,0x00,0x00,0x00,0x04,0x0e,0x06,0x00,0x78,0x07,0x08,0x00,
 0xe4,0x00,0x00,0x00,0x71,0x1f,0x00,0xe0,0x1c,0xe2,0x00,0x00,0xc0,0x71,0x00,
 0x00,0x00,0x1c,0x03,0x04,0x00,0x00,0x00,0x00,0x00,0x00,0x00,0x00,0x00,0x00,
 0x00,0x00,0x00,0x00,0x04,0x11,0x04,0x00,0x48,0x09,0x08,0x00,0x26,0x00,0x00,
 0x80,0x91,0x11,0x00,0x20,0x23,0x23,0x00,0x00,0x20,0x92,0x00,0x00,0x00,0x26,
 0x02,0x04,0x00,0x00,0x00,0x00,0x00,0x00,0x00,0x00,0x00,0x00,0x00,0x00,0x00,
 0x00,0x04,0x11,0x04,0x00,0x40,0x08,0x08,0x00,0xe6,0x00,0x00,0x80,0x81,0x08,
 0x00,0x00,0x23,0xe3,0x00,0x00,0x60,0x82,0x00,0x00,0x00,0x22,0x02,0x04,0x00,
 0x00,0x00,0x00,0x00,0x00,0x00,0x00,0x00,0x00,0x00,0x00,0x00,0x00,0x04,0x11,
 0x04,0x00,0x30,0x08,0x08,0x00,0x25,0x01,0x00,0x40,0x81,0x08,0x00,0x00,0xa3,
 0x22,0x01,0x00,0xc0,0x81,0x00,0x00,0x00,0x26,0x02,0x04,0x00,0x00,0x00,0x00,
 0x00,0x00,0x00,0x00,0x00,0x00,0x00,0x00,0x00,0x00,0x04,0x11,0x04,0x00,0x40,
 0x04,0x08,0x80,0x04,0x01,0x00,0x20,0x41,0x04,0x00,0x80,0x62,0x02,0x01,0x00,
 0x20,0x43,0x00,0x00,0x00,0x3c,0x02,0x04,0x00,0x00,0x00,0x00,0x00,0x00,0x00,
 0x00,0x00,0x00,0x00,0x00,0x00,0x00,0x04,0x11,0x04,0x00,0x48,0x0a,0x08,0x80,
 0x2f,0x01,0x00,0xe0,0xa3,0x04,0x00,0x40,0xe3,0x27,0x01,0x00,0x20,0xa2,0x00,
 0x00,0x00,0x30,0x02,0x04,0x00,0x00,0x00,0x00,0x00,0x00,0x00,0x00,0x00,0x00,
 0x00,0x00,0x00,0x00,0x04,0x4e,0x1e,0x00,0x38,0x0f,0x08,0x00,0xee,0x00,0x00,
 0x80,0xf3,0x04,0x00,0xe0,0x1d,0xe7,0x00,0x00,0xc0,0xf1,0x00,0x00,0x00,0x1c,
 0x0f,0x04,0x00,0x00,0x00,0x00,0x00,0x00,0x00,0x00,0x00,0x00,0x00,0x00,0x00,
 0x00,0x04,0x00,0x00,0x00,0x00,0x00,0x08,0x00,0x00,0x00,0x00,0x00,0x00,0x00,
 0x00,0x00,0x00,0x00,0x00,0x00,0x00,0x00,0x00,0x00,0x00,0x00,0x00,0x04,0x00,
 0x00,0x00,0x00,0x00,0x00,0x00,0x00,0x00,0x00,0x00,0x00,0x00,0x00,0x04,0x00,
 0x00,0x00,0x00,0x00,0x08,0x00,0x00,0x00,0x00,0x00,0x00,0x00,0x00,0x00,0x00,
 0x00,0x00,0x00,0x00,0x00,0x00,0x00,0x00,0x00,0x00,0x04,0x00,0x00,0x00,0x00,
 0x00,0x00,0x00,0x00,0x00,0x00,0x00,0x00,0x00,0x00,0x04,0x00,0x00,0x00,0x00,
 0x00,0x08,0x00,0x00,0x00,0x00,0x00,0x00,0x00,0x00,0x00,0x00,0x00,0x00,0x00,
 0x00,0x00,0x00,0x00,0x00,0x00,0x00,0x04,0x00,0x00,0x00,0x00,0x00,0x00,0x00,
 0x00,0x00,0x00,0x00,0x00,0x00,0x00,0x04,0x00,0x00,0x00,0x00,0x00,0x08,0x00,
 0x00,0x00,0x00,0x00,0x00,0x00,0x00,0x00,0x00,0x00,0x00,0x00,0x00,0x00,0x00,
 0x00,0x00,0x00,0x00,0x04,0x00,0x00,0x00,0x00,0x00,0x00,0x00,0x00,0x00,0x00,
 0x00,0x00,0x00,0x00,0x04,0x00,0x00,0x00,0x00,0x00,0x08,0x00,0x00,0x00,0x00,
 0x00,0x00,0x00,0x00,0x00,0x00,0x00,0x00,0x00,0x00,0x00,0x00,0x00,0x00,0x00,
 0x00,0x04,0x00,0x00,0x00,0x00,0x00,0x00,0x00,0x00,0x00,0x00,0x00,0x00,0x00,
 0x00,0x04,0x00,0x00,0x00,0x00,0x00,0x08,0x00,0x00,0x00,0x00,0x00,0x00,0x00,
 0x00,0x00,0x00,0x00,0x00,0x00,0x00,0x00,0x00,0x00,0x00,0x00,0x00,0x04,0x00,
 0x00,0x00,0x00,0x00,0x00,0x00,0x00,0x00,0x00,0x00,0x00,0x00,0x00,0x04,0x0e,
 0x06,0x00,0x70,0x04,0x08,0x00,0xe4,0x00,0x00,0x00,0x71,0x1f,0x00,0x60,0xdc,
 0xe7,0x00,0x00,0xc0,0x71,0x00,0x00,0x00,0x3e,0x0f,0x04,0x00,0x00,0x00,0x00,
 0x00,0x00,0x00,0x00,0x00,0x00,0x00,0x00,0x00,0x00,0x04,0x11,0x04,0x00,0x08,
 0x06,0x08,0x00,0x26,0x00,0x00,0x80,0x91,0x11,0x00,0x40,0x64,0x34,0x01,0x00,
 0x20,0x92,0x00,0x00,0x00,0x22,0x09,0x04,0x00,0x00,0x00,0x00,0x00,0x00,0x00,
 0x00,0x00,0x00,0x00,0x00,0x00,0x00,0x04,0x11,0x04,0x00,0x34,0x06,0x08,0x00,
 0xe6,0x00,0x00,0x80,0x81,0x08,0x00,0x40,0x20,0x12,0x01,0x00,0x60,0x82,0x00,
 0x00,0x00,0x10,0x08,0x04,0x00,0x00,0x00,0x00,0x00,0x00,0x00,0x00,0x00,0x00,
 0x00,0x00,0x00,0x00,0x04,0x11,0x04,0x00,0x4c,0x05,0x08,0x00,0x25,0x01,0x00,
 0x40,0x81,0x08,0x00,0x40,0x20,0x32,0x01,0x00,0xc0,0x81,0x00,0x00,0x00,0x10,
 0x06,0x04,0x00,0x00,0x00,0x00,0x00,0x00,0x00,0x00,0x00,0x00,0x00,0x00,0x00,
 0x00,0x04,0x11,0x04,0x00,0xc4,0x04,0x08,0x80,0x04,0x01,0x00,0x20,0x41,0x04,
 0x00,0x40,0x10,0xe1,0x01,0x00,0x20,0x43,0x00,0x00,0x00,0x08,0x08,0x04,0x00,
 0x00,0x00,0x00,0x00,0x00,0x00,0x00,0x00,0x00,0x00,0x00,0x00,0x00,0x04,0x11,
 0x04,0x00,0xcc,0x0f,0x08,0x80,0x2f,0x01,0x00,0xe0,0xa3,0x04,0x00,0x40,0x28,
 0x81,0x01,0x00,0x20,0xa2,0x00,0x00,0x00,0x08,0x09,0x04,0x00,0x00,0x00,0x00,
 0x00,0x00,0x00,0x00,0x00,0x00,0x00,0x00,0x00,0x00,0x04,0x4e,0x1e,0x00,0x38,
 0x0e,0x08,0x00,0xee,0x00,0x00,0x80,0xf3,0x04,0x00,0xe0,0x3d,0xe1,0x00,0x00,
 0xc0,0xf1,0x00,0x00,0x00,0x08,0x07,0x04,0x00,0x00,0x00,0x00,0x00,0x00,0x00,
 0x00,0x00,0x00,0x00,0x00,0x00,0x00,0x04,0x00,0x00,0x00,0x00,0x00,0x08,0x00,
 0x00,0x00,0x00,0x00,0x00,0x00,0x00,0x00,0x00,0x00,0x00,0x00,0x00,0x00,0x00,
 0x00,0x00,0x00,0x00,0x04,0x00,0x00,0x00,0x00,0x00,0x00,0x00,0x00,0x00,0x00,
 0x00,0x00,0x00,0x00,0x04,0x00,0x00,0x00,0x00,0x00,0x08,0x00,0x00,0x00,0x00,
 0x00,0x00,0x00,0x00,0x00,0x00,0x00,0x00,0x00,0x00,0x00,0x00,0x00,0x00,0x00,
 0x00,0x04,0x00,0x00,0x00,0x00,0x00,0x00,0x00,0x00,0x00,0x00,0x00,0x00,0x00,
 0x00,0x04,0x00,0x00,0x00,0x00,0x00,0x08,0x00,0x00,0x00,0x00,0x00,0x00,0x00,
 0x00,0x00,0x00,0x00,0x00,0x00,0x00,0x00,0x00,0x00,0x00,0x00,0x00,0x04,0x00,
 0x00,0x00,0x00,0x00,0x00,0x00,0x00,0x00,0x00,0x00,0x00,0x00,0x00,0x04,0x00,
 0x00,0x00,0x00,0x00,0x08,0x00,0x00,0x00,0x00,0x00,0x00,0x00,0x00,0x00,0x00,
 0x00,0x00,0x00,0x00,0x00,0x00,0x00,0x00,0x00,0x00,0x04,0x00,0x00,0x00,0x00,
 0x00,0x00,0x00,0x00,0x00,0x00,0x00,0x00,0x00,0x00,0xfc,0xff,0xff,0xff,0xff,
 0xff,0xff,0xff,0xff,0xff,0xff,0xff,0xff,0xff,0xff,0xff,0xff,0xff,0xff,0xff,
 0xff,0xff,0xff,0xff,0xff,0xff,0xff,0x07,0x00,0x00,0x00,0x00,0x00,0x00,0x00,
 0x00,0x00,0x00,0x00,0x00,0x00,0x00,0x04,0x00,0x00,0x00,0x00,0x00,0x08,0x00,
 0x00,0x00,0x00,0x00,0x00,0x00,0x00,0x00,0x00,0x00,0x00,0x00,0x00,0x00,0x00,
 0x00,0x00,0x00,0x00,0x04,0x00,0x00,0x00,0x00,0x00,0x00,0x00,0x00,0x00,0x00,
 0x00,0x00,0x00,0x00,0x04,0x00,0x00,0x00,0x00,0x00,0x08,0x00,0x00,0x00,0x00,
 0x00,0x00,0x00,0x00,0x00,0x00,0x00,0x00,0x00,0x00,0x00,0x00,0x00,0x00,0x00,
 0x00,0x04,0x00,0x00,0x00,0x00,0x00,0x00,0x00,0x00,0x00,0x00,0x00,0x00,0x00,
 0x00,0x04,0x0e,0x0e,0x00,0x00,0x07,0x08,0x00,0xff,0x01,0x00,0xc0,0x70,0x0e,
 0x00,0xe0,0x8c,0x87,0x00,0x00,0xe0,0x73,0x00,0x00,0x60,0x1c,0x07,0x04,0x00,
 0x00,0x00,0x00,0x00,0x00,0x00,0x00,0x00,0x00,0x00,0x00,0x00,0x00,0x04,0x11,
 0x13,0x00,0x80,0x08,0x08,0x00,0x19,0x01,0x00,0x80,0x88,0x02,0x00,0x20,0x89,
 0xc4,0x00,0x00,0x20,0x8a,0x00,0x00,0x40,0xa2,0x08,0x04,0x00,0x00,0x00,0x00,
 0x00,0x00,0x00,0x00,0x00,0x00,0x00,0x00,0x00,0x00,0x04,0x11,0x11,0x00,0x80,
 0x09,0x08,0x00,0x88,0x00,0x00,0x80,0x88,0x0e,0x00,0x00,0x09,0xc4,0x00,0x00,
 0x00,0x89,0x00,0x00,0x40,0xa2,0x08,0x04,0x00,0x00,0x00,0x00,0x00,0x00,0x00,
 0x00,0x00,0x00,0x00,0x00,0x00,0x00,0x04,0x11,0x13,0x00,0x00,0x07,0x08,0x00,
 0x86,0x00,0x00,0x80,0x88,0x12,0x00,0x00,0x09,0xa3,0x00,0x00,0x00,0x89,0x00,
 0x00,0x40,0xa2,0x08,0x04,0x00,0x00,0x00,0x00,0x00,0x00,0x00,0x00,0x00,0x00,
 0x00,0x00,0x00,0x00,0x04,0x11,0x1e,0x00,0x80,0x0c,0x08,0x00,0x48,0x00,0x00,
 0x80,0x88,0x10,0x00,0x80,0x08,0x94,0x00,0x00,0x80,0x88,0x00,0x00,0x40,0xa2,
 0x08,0x04,0x00,0x00,0x00,0x00,0x00,0x00,0x00,0x00,0x00,0x00,0x00,0x00,0x00,
 0x00,0x04,0x11,0x18,0x00,0x80,0x08,0x08,0x00,0x49,0x00,0x00,0x80,0x88,0x12,
 0x00,0x40,0x89,0xf4,0x01,0x00,0x80,0x88,0x00,0x00,0x40,0xa2,0x08,0x04,0x00,
 0x00,0x00,0x00,0x00,0x00,0x00,0x00,0x00,0x00,0x00,0x00,0x00,0x00,0x04,0x4e,
 0x0e,0x00,0x00,0x07,0x08,0x00,0x47,0x00,0x00,0xc0,0x73,0x0e,0x00,0xe0,0xbd,
 0xc3,0x01,0x00,0x80,0x70,0x00,0x00,0xe0,0x1d,0x07,0x04,0x00,0x00,0x00,0x00,
 0x00,0x00,0x00,0x00,0x00,0x00,0x00,0x00,0x00,0x00,0x04,0x00,0x00,0x00,0x00,
 0x00,0x08,0x00,0x00,0x00,0x00,0x00,0x00,0x00,0x00,0x00,0x00,0x00,0x00,0x00,
 0x00,0x00,0x00,0x00,0x00,0x00,0x00,0x04,0x00,0x00,0x00,0x00,0x00,0x00,0x00,
 0x00,0x00,0x00,0x00,0x00,0x00,0x00,0x04,0x00,0x00,0x00,0x00,0x00,0x08,0x00,
 0x00,0x00,0x00,0x00,0x00,0x00,0x00,0x00,0x00,0x00,0x00,0x00,0x00,0x00,0x00,
 0x00,0x00,0x00,0x00,0x04,0x00,0x00,0x00,0x00,0x00,0x00,0x00,0x00,0x00,0x00,
 0x00,0x00,0x00,0x00,0x04,0x00,0x00,0x00,0x00,0x00,0x08,0x00,0x00,0x00,0x00,
 0x00,0x00,0x00,0x00,0x00,0x00,0x00,0x00,0x00,0x00,0x00,0x00,0x00,0x00,0x00,
 0x00,0x04,0x00,0x00,0x00,0x00,0x00,0x00,0x00,0x00,0x00,0x00,0x00,0x00,0x00,
 0x00,0x04,0x00,0x00,0x00,0x00,0x00,0x08,0x00,0x00,0x00,0x00,0x00,0x00,0x00,
 0x00,0x00,0x00,0x00,0x00,0x00,0x00,0x00,0x00,0x00,0x00,0x00,0x00,0x04,0x00,
 0x00,0x00,0x00,0x00,0x00,0x00,0x00,0x00,0x00,0x00,0x00,0x00,0x00,0x04,0x00,
 0x00,0x00,0x00,0x00,0x08,0x00,0x00,0x00,0x00,0x00,0x00,0x00,0x00,0x00,0x00,
 0x00,0x00,0x00,0x00,0x00,0x00,0x00,0x00,0x00,0x00,0x04,0x00,0x00,0x00,0x00,
 0x00,0x00,0x00,0x00,0x00,0x00,0x00,0x00,0x00,0x00,0x04,0x00,0x00,0x00,0x00,
 0x00,0x08,0x00,0x00,0x00,0x00,0x00,0x00,0x00,0x00,0x00,0x00,0x00,0x00,0x00,
 0x00,0x00,0x00,0x00,0x00,0x00,0x00,0x04,0x00,0x00,0x00,0x00,0x00,0x00,0x00,
 0x00,0x00,0x00,0x00,0x00,0x00,0x00,0x04,0x00,0x00,0x00,0x00,0x00,0x08,0x00,
 0x00,0x00,0x00,0x00,0x00,0x00,0x00,0x00,0x00,0x00,0x00,0x00,0x00,0x00,0x00,
 0x00,0x00,0x00,0x00,0x04,0x00,0x00,0x00,0x00,0x00,0x00,0x00,0x00,0x00,0x00,
 0x00,0x00,0x00,0x00,0x04,0x0e,0x0e,0x00,0x18,0x0e,0x08,0x00,0xff,0x01,0x00,
 0xc0,0x70,0x1e,0x00,0x60,0x8c,0x83,0x00,0x00,0xe0,0x33,0x00,0x00,0x00,0x1c,
 0x07,0x04,0x00,0x00,0x00,0x00,0x00,0x00,0x00,0x00,0x00,0x00,0x00,0x00,0x00,
 0x00,0x04,0x11,0x13,0x00,0x10,0x01,0x08,0x00,0x19,0x01,0x00,0x80,0x88,0x12,
 0x00,0x40,0x88,0xc4,0x00,0x00,0x20,0x22,0x00,0x00,0x00,0x26,0x01,0x04,0x00,
 0x00,0x00,0x00,0x00,0x00,0x00,0x00,0x00,0x00,0x00,0x00,0x00,0x00,0x04,0x11,
 0x11,0x00,0x90,0x06,0x08,0x00,0x88,0x00,0x00,0x80,0x88,0x10,0x00,0x40,0x08,
 0xc4,0x00,0x00,0x00,0x21,0x00,0x00,0x00,0x22,0x07,0x04,0x00,0x00,0x00,0x00,
 0x00,0x00,0x00,0x00,0x00,0x00,0x00,0x00,0x00,0x00,0x04,0x11,0x13,0x00,0x90,
 0x09,0x08,0x00,0x86,0x00,0x00,0x80,0x88,0x0c,0x00,0x40,0x08,0xa4,0x00,0x00,
 0x00,0x21,0x00,0x00,0x00,0x26,0x09,0x04,0x00,0x00,0x00,0x00,0x00,0x00,0x00,
 0x00,0x00,0x00,0x00,0x00,0x00,0x00,0x04,0x11,0x1e,0x00,0x90,0x08,0x08,0x00,
 0x48,0x00,0x00,0x80,0x88,0x10,0x00,0x40,0x08,0x92,0x00,0x00,0x80,0x20,0x00,
 0x00,0x00,0x3c,0x08,0x04,0x00,0x00,0x00,0x00,0x00,0x00,0x00,0x00,0x00,0x00,
 0x00,0x00,0x00,0x00,0x04,0x11,0x18,0x00,0x90,0x09,0x08,0x00,0x49,0x00,0x00,
 0x80,0x88,0x12,0x00,0x40,0x08,0xf5,0x01,0x00,0x80,0x20,0x00,0x00,0x00,0x30,
 0x09,0x04,0x00,0x00,0x00,0x00,0x00,0x00,0x00,0x00,0x00,0x00,0x00,0x00,0x00,
 0x00,0x04,0x4e,0x0e,0x00,0x78,0x07,0x08,0x00,0x47,0x00,0x00,0xc0,0x73,0x0e,
 0x00,0xe0,0xbd,0xc7,0x01,0x00,0x80,0xf0,0x00,0x00,0x00,0x1c,0x07,0x04,0x00,
 0x00,0x00,0x00,0x00,0x00,0x00,0x00,0x00,0x00,0x00,0x00,0x00,0x00,0x04,0x00,
 0x00,0x00,0x00,0x00,0x08,0x00,0x00,0x00,0x00,0x00,0x00,0x00,0x00,0x00,0x00,
 0x00,0x00,0x00,0x00,0x00,0x00,0x00,0x00,0x00,0x00,0x04,0x00,0x00,0x00,0x00,
 0x00,0x00,0x00,0x00,0x00,0x00,0x00,0x00,0x00,0x00,0x04,0x00,0x00,0x00,0x00,
 0x00,0x08,0x00,0x00,0x00,0x00,0x00,0x00,0x00,0x00,0x00,0x00,0x00,0x00,0x00,
 0x00,0x00,0x00,0x00,0x00,0x00,0x00,0x04,0x00,0x00,0x00,0x00,0x00,0x00,0x00,
 0x00,0x00,0x00,0x00,0x00,0x00,0x00,0x04,0x00,0x00,0x00,0x00,0x00,0x08,0x00,
 0x00,0x00,0x00,0x00,0x00,0x00,0x00,0x00,0x00,0x00,0x00,0x00,0x00,0x00,0x00,
 0x00,0x00,0x00,0x00,0x04,0x00,0x00,0x00,0x00,0x00,0x00,0x00,0x00,0x00,0x00,
 0x00,0x00,0x00,0x00,0x04,0x00,0x00,0x00,0x00,0x00,0x08,0x00,0x00,0x00,0x00,
 0x00,0x00,0x00,0x00,0x00,0x00,0x00,0x00,0x00,0x00,0x00,0x00,0x00,0x00,0x00,
 0x00,0x04,0x00,0x00,0x00,0x00,0x00,0x00,0x00,0x00,0x00,0x00,0x00,0x00,0x00,
 0x00,0x04,0x00,0x00,0x00,0x00,0x00,0x08,0x00,0x00,0x00,0x00,0x00,0x00,0x00,
 0x00,0x00,0x00,0x00,0x00,0x00,0x00,0x00,0x00,0x00,0x00,0x00,0x00,0x04,0x00,
 0x00,0x00,0x00,0x00,0x00,0x00,0x00,0x00,0x00,0x00,0x00,0x00,0x00,0x04,0x00,
 0x00,0x00,0x00,0x00,0x08,0x00,0x00,0x00,0x00,0x00,0x00,0x00,0x00,0x00,0x00,
 0x00,0x00,0x00,0x00,0x00,0x00,0x00,0x00,0x00,0x00,0x04,0x00,0x00,0x00,0x00,
 0x00,0x00,0x00,0x00,0x00,0x00,0x00,0x00,0x00,0x00,0x04,0x0e,0x0e,0x00,0x78,
 0x07,0x08,0x00,0xef,0x00,0x00,0xc0,0x70,0x0e,0x00,0x00,0x38,0xe3,0x00,0x00,
 0x80,0x73,0x00,0x00,0x00,0x1c,0x0e,0x04,0x00,0x00,0x00,0x00,0x00,0x00,0x00,
 0x00,0x00,0x00,0x00,0x00,0x00,0x00,0x04,0x11,0x13,0x00,0x48,0x09,0x08,0x00,
 0x19,0x01,0x00,0x80,0x88,0x11,0x00,0x00,0x04,0x12,0x01,0x00,0x40,0x98,0x00,
 0x00,0x00,0x22,0x01,0x04,0x00,0x00,0x00,0x00,0x00,0x00,0x00,0x00,0x00,0x00,
 0x00,0x00,0x00,0x00,0x04,0x11,0x11,0x00,0x40,0x08,0x08,0x00,0x38,0x01,0x00,
 0x80,0x88,0x11,0x00,0x00,0x1a,0x32,0x01,0x00,0xa0,0x89,0x00,0x00,0x00,0xa6,
 0x06,0x04,0x00,0x00,0x00,0x00,0x00,0x00,0x00,0x00,0x00,0x00,0x00,0x00,0x00,
 0x00,0x04,0x11,0x13,0x00,0x30,0x08,0x08,0x00,0xe6,0x00,0x00,0x80,0x88,0x11,
 0x00,0x00,0x26,0xe2,0x00,0x00,0x60,0x9a,0x00,0x00,0x00,0x9c,0x09,0x04,0x00,
 0x00,0x00,0x00,0x00,0x00,0x00,0x00,0x00,0x00,0x00,0x00,0x00,0x00,0x04,0x11,
 0x1e,0x00,0x40,0x04,0x08,0x00,0x98,0x01,0x00,0x80,0x88,0x11,0x00,0x00,0x22,
 0x92,0x01,0x00,0x20,0xf2,0x00,0x00,0x00,0xb2,0x08,0x04,0x00,0x00,0x00,0x00,
 0x00,0x00,0x00,0x00,0x00,0x00,0x00,0x00,0x00,0x00,0x04,0x11,0x18,0x00,0x48,
 0x0a,0x08,0x00,0x19,0x01,0x00,0x80,0x88,0x11,0x00,0x00,0x26,0x12,0x01,0x00,
 0x60,0xc2,0x00,0x00,0x00,0xa2,0x09,0x04,0x00,0x00,0x00,0x00,0x00,0x00,0x00,
 0x00,0x00,0x00,0x00,0x00,0x00,0x00,0x04,0x4e,0x0e,0x00,0x38,0x0f,0x08,0x00,
 0xe7,0x00,0x00,0xc0,0x73,0x0e,0x00,0x00,0x1c,0xef,0x00,0x00,0xc0,0x71,0x00,
 0x00,0x00,0x1c,0x07,0x04,0x00,0x00,0x00,0x00,0x00,0x00,0x00,0x00,0x00,0x00,
 0x00,0x00,0x00,0x00,0x04,0x00,0x00,0x00,0x00,0x00,0x08,0x00,0x00,0x00,0x00,
 0x00,0x00,0x00,0x00,0x00,0x00,0x00,0x00,0x00,0x00,0x00,0x00,0x00,0x00,0x00,
 0x00,0x04,0x00,0x00,0x00,0x00,0x00,0x00,0x00,0x00,0x00,0x00,0x00,0x00,0x00,
 0x00,0x04,0x00,0x00,0x00,0x00,0x00,0x08,0x00,0x00,0x00,0x00,0x00,0x00,0x00,
 0x00,0x00,0x00,0x00,0x00,0x00,0x00,0x00,0x00,0x00,0x00,0x00,0x00,0x04,0x00,
 0x00,0x00,0x00,0x00,0x00,0x00,0x00,0x00,0x00,0x00,0x00,0x00,0x00,0x04,0x00,
 0x00,0x00,0x00,0x00,0x08,0x00,0x00,0x00,0x00,0x00,0x00,0x00,0x00,0x00,0x00,
 0x00,0x00,0x00,0x00,0x00,0x00,0x00,0x00,0x00,0x00,0x04,0x00,0x00,0x00,0x00,
 0x00,0x00,0x00,0x00,0x00,0x00,0x00,0x00,0x00,0x00,0x04,0x00,0x00,0x00,0x00,
 0x00,0x08,0x00,0x00,0x00,0x00,0x00,0x00,0x00,0x00,0x00,0x00,0x00,0x00,0x00,
 0x00,0x00,0x00,0x00,0x00,0x00,0x00,0x04,0x00,0x00,0x00,0x00,0x00,0x00,0x00,
 0x00,0x00,0x00,0x00,0x00,0x00,0x00,0x04,0x00,0x00,0x00,0x00,0x00,0x08,0x00,
 0x00,0x00,0x00,0x00,0x00,0x00,0x00,0x00,0x00,0x00,0x00,0x00,0x00,0x00,0x00,
 0x00,0x00,0x00,0x00,0x04,0x00,0x00,0x00,0x00,0x00,0x00,0x00,0x00,0x00,0x00,
 0x00,0x00,0x00,0x00,0x04,0x00,0x00,0x00,0x00,0x00,0x08,0x00,0x00,0x00,0x00,
 0x00,0x00,0x00,0x00,0x00,0x00,0x00,0x00,0x00,0x00,0x00,0x00,0x00,0x00,0x00,
 0x00,0x04,0x00,0x00,0x00,0x00,0x00,0x00,0x00,0x00,0x00,0x00,0x00,0x00,0x00,
 0x00,0x04,0x00,0x00,0x00,0x00,0x00,0x08,0x00,0x00,0x00,0x00,0x00,0x00,0x00,
 0x00,0x00,0x00,0x00,0x00,0x00,0x00,0x00,0x00,0x00,0x00,0x00,0x00,0x04,0x00,
 0x00,0x00,0x00,0x00,0x00,0x00,0x00,0x00,0x00,0x00,0x00,0x00,0x00,0x04,0x0e,
 0x0e,0x00,0x70,0x04,0x08,0x00,0xef,0x00,0x00,0x00,0x8e,0x03,0x00,0x00,0x3c,
 0xf7,0x01,0x00,0x80,0x73,0x00,0x00,0x00,0xb8,0x0f,0x04,0x00,0x00,0x00,0x00,
 0x00,0x00,0x00,0x00,0x00,0x00,0x00,0x00,0x00,0x00,0x04,0x11,0x13,0x00,0x08,
 0x06,0x08,0x00,0x19,0x01,0x00,0x00,0xd3,0x04,0x00,0x00,0xa4,0x19,0x01,0x00,
 0x40,0x88,0x00,0x00,0x00,0x84,0x08,0x04,0x00,0x00,0x00,0x00,0x00,0x00,0x00,
 0x00,0x00,0x00,0x00,0x00,0x00,0x00,0x04,0x11,0x11,0x00,0x34,0x06,0x08,0x00,
 0x38,0x01,0x00,0x00,0x51,0x04,0x00,0x00,0xa0,0x88,0x00,0x00,0xa0,0x99,0x00,
 0x00,0x00,0x1a,0x04,0x04,0x00,0x00,0x00,0x00,0x00,0x00,0x00,0x00,0x00,0x00,
 0x00,0x00,0x00,0x00,0x04,0x11,0x13,0x00,0x4c,0x05,0x08,0x00,0xe6,0x00,0x00,
 0x00,0xd3,0x04,0x00,0x00,0x98,0x89,0x00,0x00,0x60,0x72,0x00,0x00,0x00,0x26,
 0x04,0x04,0x00,0x00,0x00,0x00,0x00,0x00,0x00,0x00,0x00,0x00,0x00,0x00,0x00,
 0x00,0x04,0x11,0x1e,0x00,0xc4,0x04,0x08,0x00,0x98,0x01,0x00,0x00,0x9e,0x07,
 0x00,0x00,0x20,0x4f,0x00,0x00,0x20,0xca,0x00,0x00,0x00,0x22,0x02,0x04,0x00,
 0x00,0x00,0x00,0x00,0x00,0x00,0x00,0x00,0x00,0x00,0x00,0x00,0x00,0x04,0x11,
 0x18,0x00,0xcc,0x0f,0x08,0x00,0x19,0x01,0x00,0x00,0x18,0x06,0x00,0x00,0x24,
 0x4c,0x00,0x00,0x60,0x8a,0x00,0x00,0x00,0x26,0x02,0x04,0x00,0x00,0x00,0x00,
 0x00,0x00,0x00,0x00,0x00,0x00,0x00,0x00,0x00,0x00,0x04,0x4e,0x0e,0x00,0x38,
 0x0e,0x08,0x00,0xe7,0x00,0x00,0x00,0x8e,0x03,0x00,0x00,0x1c,0x47,0x00,0x00,
 0xc0,0x71,0x00,0x00,0x00,0x1c,0x02,0x04,0x00,0x00,0x00,0x00,0x00,0x00,0x00,
 0x00,0x00,0x00,0x00,0x00,0x00,0x00,0x04,0x00,0x00,0x00,0x00,0x00,0x08,0x00,
 0x00,0x00,0x00,0x00,0x00,0x00,0x00,0x00,0x00,0x00,0x00,0x00,0x00,0x00,0x00,
 0x00,0x00,0x00,0x00,0x04,0x00,0x00,0x00,0x00,0x00,0x00,0x00,0x00,0x00,0x00,
 0x00,0x00,0x00,0x00,0x04,0x00,0x00,0x00,0x00,0x00,0x08,0x00,0x00,0x00,0x00,
 0x00,0x00,0x00,0x00,0x00,0x00,0x00,0x00,0x00,0x00,0x00,0x00,0x00,0x00,0x00,
 0x00,0x04,0x00,0x00,0x00,0x00,0x00,0x00,0x00,0x00,0x00,0x00,0x00,0x00,0x00,
 0x00,0x04,0x00,0x00,0x00,0x00,0x00,0x08,0x00,0x00,0x00,0x00,0x00,0x00,0x00,
 0x00,0x00,0x00,0x00,0x00,0x00,0x00,0x00,0x00,0x00,0x00,0x00,0x00,0x04,0x00,
 0x00,0x00,0x00,0x00,0x00,0x00,0x00,0x00,0x00,0x00,0x00,0x00,0x00,0xfc,0xff,
 0xff,0xff,0xff,0xff,0xff,0xff,0xff,0xff,0xff,0xff,0xff,0xff,0xff,0xff,0xff,
 0xff,0xff,0xff,0xff,0xff,0xff,0xff,0xff,0xff,0xff,0x07,0x00,0x00,0x00,0x00,
 0x00,0x00,0x00,0x00,0x00,0x00,0x00,0x00,0x00,0x00,0x00,0x00,0x00,0x00,0x00,
 0x00,0x00,0x00,0x00,0x00,0x00,0x00,0x00,0x00,0x00,0x00,0x00,0x00,0x00,0x00,
 0x00,0x00,0x00,0x00,0x00,0x00,0x00,0x00,0x00,0x00,0x00,0x00,0x00,0x00,0x00,
 0x00,0x00,0x00,0x00,0x00,0x00,0x00,0x00,0x00,0x00,0x00,0x00,0x00,0x00,0x00,
 0x00,0x00,0x00,0x00,0x00,0x00,0x00,0x00,0x00,0x00,0x00,0x00,0x00,0x00,0x00,
 0x00,0x00,0x00,0x00,0x00,0x00,0x00,0x00,0x00,0x00,0x00,0x07,0x00,0x00,0x00,
 0x00,0x00,0x00,0x00,0x00,0x00,0x00,0x00,0x00,0x00,0x00,0x00,0x00,0x00,0x00,
 0x00,0x00,0x00,0x00,0x00,0x00,0x00,0x00,0x00,0x00,0x00,0x00,0x00,0x00,0x00,
 0x00,0x00,0x00,0x00,0x00,0x00,0x00,0x80,0x03,0x3f,0x00,0x0e,0x00,0x00,0x00,
 0x00,0x00,0xc0,0x81,0xf7,0x83,0x8f,0x07,0x00,0x00,0x19,0x00,0x08,0x00,0x00,
 0x00,0x83,0x01,0x00,0x20,0x00,0x00,0x00,0xc0,0x30,0x00,0x00,0x00,0x12,0x03,
 0x1c,0x38,0x0e,0xc0,0xb8,0x04,0x42,0x00,0x02,0x00,0x00,0x00,0x00,0x00,0x40,
 0x40,0x24,0x44,0x48,0x04,0x00,0x00,0x11,0x00,0x00,0x00,0x00,0x00,0x02,0x01,
 0x00,0x00,0x00,0x00,0x00,0x80,0x20,0x00,0x00,0x00,0x10,0x02,0x24,0x08,0x01,
 0x80,0xc4,0x04,0x42,0xf7,0xe7,0xfe,0x1f,0xf7,0x39,0x07,0xe7,0x20,0x20,0x24,
 0x20,0x00,0xee,0x03,0xf3,0x1c,0xc8,0x6d,0xfe,0x73,0x02,0xcf,0x39,0xbf,0xcf,
 0xc3,0xf7,0x8e,0x27,0xf7,0x0f,0x6f,0x33,0x1e,0x20,0xb8,0x06,0x80,0x44,0x03,
 0xbe,0x28,0x12,0x45,0x12,0x25,0xa5,0x88,0x48,0x20,0xe0,0x23,0x20,0x00,0x51,
 0x02,0x91,0x22,0x28,0x4a,0x44,0x52,0x02,0x31,0x2a,0x22,0x49,0x81,0x28,0x91,
 0xa8,0x28,0x09,0x4a,0x12,0x12,0x20,0xc8,0x09,0x80,0x44,0x00,0x82,0x2f,0x12,
 0x45,0x12,0x27,0x85,0x8f,0x48,0x20,0x2e,0x20,0x28,0x0e,0x51,0x02,0x91,0x3e,
 0x28,0x4a,0x44,0x72,0x02,0xf1,0x3b,0x22,0x49,0x81,0x28,0x91,0xa8,0x2f,0x09,
 0x3a,0x12,0x12,0x10,0xc0,0x08,0x81,0x44,0x00,0x82,0x28,0x12,0x45,0x92,0x35,
 0x85,0x88,0x48,0x40,0x24,0x40,0x4c,0x04,0x51,0x02,0x95,0x22,0x28,0x4a,0x44,
 0x5a,0x03,0x31,0xae,0x22,0xc9,0x80,0x2c,0x91,0xa8,0x28,0x09,0x36,0x52,0x12,
 0x28,0xc8,0x09,0x80,0x44,0x00,0x0f,0x77,0xe7,0xee,0xbf,0xff,0x7b,0x07,0xe7,
 0x80,0xf7,0x80,0x87,0x07,0xee,0x07,0xff,0x1d,0xc8,0xf9,0xee,0xff,0x07,0xcf,
 0xfd,0xf7,0xdf,0x83,0x77,0x8e,0x77,0xf7,0x1f,0x14,0x77,0x3f,0x3c,0x39,0x07,
 0xc0,0x3b,0x00,0x00,0x00,0x00,0x00,0x00,0x00,0x00,0x00,0x00,0x00,0x00,0x00,
 0x00,0x00,0x00,0x00,0x00,0x00,0x08,0x00,0x00,0x00,0x00,0x00,0x00,0x00,0x20,
 0x82,0x00,0x00,0x00,0x00,0x00,0x00,0x00,0x00,0x00,0x00,0x00,0x00,0x00,0x00,
 0x00,0x00,0x00,0x00,0x00,0x00,0x00,0x00,0x00,0x00,0x00,0x00,0x00,0x00,0x00,
 0x00,0x00,0x00,0x0c,0x00,0x00,0x00,0x00,0x00,0x00,0x00,0xc0,0xc1,0x01,0x00,
 0x00,0x00,0x00,0x00,0x00,0x00,0x00,0x00,0x00,0x00,0x00,0x00,0x00,0x00,0x00,
 0x00,0x00,0x00,0x00,0x00,0x00,0x00,0x00,0x00,0x00,0x00,0x00,0x00,0x00,0x00,
 0x00,0x00,0x00,0x00,0x00,0x00,0x00,0x00,0x00,0x00,0x00,0x00,0x00,0x00,0x00,
 0x00,0x00,0x00,0x00,0x00,0x00,0x00,0x00,0x00,0x00,0x00,0x00,0x00,0x00,0x00,
 0x00,0x00,0x00,0x00,0x00,0x00,0x00,0x00,0x00,0x00,0x00,0x00,0x00,0x00,0x00,
 0x00,0x00,0x00,0x00,0x00,0x00,0x00,0x00,0x00,0x00,0x00,0x00,0x00,0x00,0x00,
 0x00,0x00,0x00,0x00,0x00,0x00,0x00,0x00,0x00,0x00,0x00,0x00,0x00,0x00,0x00,
 0x00,0x00,0x00,0x00,0x00,0x00,0x00,0x00,0x00,0x00,0x00,0x00,0x00,0x00,0x00,
 0x00,0x00,0x00,0x00,0x00,0x00,0x00,0x00,0x00,0x00,0x00,0x00,0x00,0x00,0x00,
 0x00,0x00,0x00,0x00,0x00,0x00,0x00,0x00,0x00,0x00,0x00,0x00,0x00,0x00,0x00,
 0x00,0x00,0x00,0x00,0x00,0x00,0x00,0x00,0x00,0x00,0x00,0x00,0x00,0x00,0x00,
 0x00,0x00,0x00,0x00,0x00,0x00,0x00,0x00,0x00,0x00,0x00,0x00,0x00,0x00,0x00,
 0x00,0x00,0x00,0x00,0x00,0x00,0x00,0x00,0x00,0x00,0x00,0x00,0x00,0x00,0x00,
 0x00,0x00,0x00,0x00,0x00,0x00,0x00,0x00,0x00,0x00,0x00,0x00,0x00,0x00,0x00,
 0x00,0x00,0x00,0x00,0x00,0x00,0x00,0x00,0x00,0x00,0x00,0x00,0x00,0x00,0x00,
 0x00,0x00,0x00,0x00,0x00,0x00,0x00,0x00,0x00,0x00,0x00,0x00,0x00,0x00,0x00,
 0x00,0x20,0x60,0x18,0x00,0x00,0x00,0x00,0x00,0x00,0x00,0x00,0x00,0x00,0x00,
 0x00,0x00,0x00,0x00,0x00,0x00,0x00,0x00,0x00,0x00,0x00,0x00,0x00,0x00,0x00,
 0x00,0x00,0x00,0x00,0x00,0x00,0x00,0x00,0x00,0x00,0x00,0x00,0x00,0x00,0x40,
 0x10,0x00,0x00,0x00,0x00,0x00,0x00,0x00,0x00,0x00,0x00,0x00,0x00,0x00,0x00,
 0x00,0x00,0x00,0x00,0x00,0x00,0x00,0x00,0x00,0x00,0x00,0x00,0x00,0x00,0x00,
 0x00,0x00,0x00,0x00,0x00,0x00,0x00,0x00,0x60,0x73,0x3f,0xc7,0x93,0x7b,0x00,
 0x00,0x00,0x00,0x00,0x00,0x00,0x00,0x00,0x00,0x00,0x00,0x00,0x00,0x00,0x00,
 0x00,0x00,0x00,0x00,0x00,0x00,0x00,0x00,0x00,0x00,0x00,0x00,0x00,0x00,0x00,
 0x00,0x00,0x00,0x00,0x00,0x40,0x52,0x22,0x45,0x54,0x4c,0x00,0x00,0x00,0x00,
 0x00,0x00,0x00,0x00,0x00,0x00,0x00,0x00,0x00,0x00,0x00,0x00,0x00,0x00,0x00,
 0x00,0x00,0x00,0x00,0x00,0x00,0x00,0x00,0x00,0x00,0x00,0x00,0x00,0x00,0x00,
 0x00,0x00,0x40,0x71,0x22,0x47,0xd4,0x37,0x00,0x00,0x00,0x00,0x00,0x00,0x00,
 0x00,0x00,0x00,0x00,0x00,0x00,0x00,0x00,0x00,0x00,0x00,0x00,0x00,0x00,0x00,
 0x00,0x00,0x00,0x00,0x00,0x00,0x00,0x00,0x00,0x00,0x00,0x00,0x00,0x00,0x80,
 0x59,0xa3,0x55,0x54,0x4c,0x00,0x00,0x00,0x00,0x00,0x00,0x00,0x00,0x00,0x00,
 0x00,0x00,0x00,0x00,0x00,0x00,0x00,0x00,0x00,0x00,0x00,0x00,0x00,0x00,0x00,
 0x00,0x00,0x00,0x00,0x00,0x00,0x00,0x00,0x00,0x00,0x00,0x80,0xf8,0xf7,0xdf,
 0xbb,0x7b,0x01,0x00,0x00,0x00,0x00,0x00,0x00,0x00,0x00,0x00,0x00,0x00,0x00,
 0x00,0x00,0x00,0x00,0x00,0x00};
