#define 30789_img67_width 94
#define 30789_img67_height 11
static char 30789_img67_bits[] = {
 0x04,0x00,0x00,0x00,0x00,0x80,0x00,0x00,0x00,0x00,0x00,0x00,0xe2,0x1e,0x00,
 0x00,0x00,0x38,0x81,0x00,0x00,0x00,0x00,0x00,0x42,0x04,0x00,0x01,0x00,0x10,
 0x82,0x00,0x00,0x00,0x00,0x00,0x41,0x04,0x00,0x01,0x1c,0x10,0xf2,0x00,0x00,
 0x00,0x80,0x03,0xe1,0x07,0x00,0x01,0x12,0x08,0x92,0x00,0xfc,0x01,0xc0,0x02,
 0x21,0x22,0xe0,0x0f,0x31,0x08,0x4a,0x04,0x00,0xc0,0x5f,0x0a,0x21,0x22,0x00,
 0x01,0x29,0x08,0x4a,0x05,0xfc,0x01,0x40,0x0a,0x79,0xe7,0x00,0x01,0xe7,0x1e,
 0xfa,0x1c,0x00,0x00,0xc0,0x39,0x01,0x60,0x00,0x01,0x61,0x00,0x02,0x0c,0x00,
 0x00,0x00,0x19,0x02,0xd0,0x00,0x80,0xd0,0x00,0x01,0x1a,0x00,0x00,0xe0,0x34,
 0x04,0x00,0x00,0x00,0x00,0x00,0x01,0x00,0x00,0x00,0x00,0x00};
