#define 30965_img75_width 115
#define 30965_img75_height 12
static char 30965_img75_bits[] = {
 0x00,0x00,0x00,0x00,0x00,0x00,0x00,0x00,0x00,0x00,0x00,0x00,0x00,0x80,0x00,
 0x00,0x00,0x00,0x00,0x00,0x00,0x00,0x20,0x00,0x00,0x00,0x00,0x00,0x00,0x01,
 0x00,0x00,0x00,0x00,0x00,0x00,0x00,0x10,0x00,0x00,0x00,0x00,0x30,0x00,0x01,
 0x00,0x00,0x00,0x00,0x00,0x00,0x00,0x10,0x00,0x00,0x00,0x00,0x20,0x00,0x01,
 0x38,0x00,0x00,0x00,0xf0,0xcf,0x6d,0x10,0x38,0x00,0x00,0x00,0x20,0x00,0x01,
 0x64,0x20,0x0c,0xfe,0x20,0x49,0x29,0x10,0x64,0x20,0x06,0x00,0x40,0x0c,0x01,
 0x62,0x20,0x08,0x00,0x20,0xc9,0x11,0x18,0x62,0x20,0x04,0xf8,0x63,0x08,0x07,
 0xd2,0x21,0x08,0xfe,0x20,0x69,0x2d,0x10,0xd2,0x21,0x04,0x00,0x90,0x08,0x01,
 0xce,0xfc,0x08,0x00,0xf0,0xff,0x6f,0x10,0xce,0xfc,0xc4,0x00,0x88,0x08,0x01,
 0xa2,0x21,0x1c,0x00,0x00,0x00,0x00,0x10,0xa2,0x21,0x8e,0x00,0x00,0x1c,0x01,
 0x01,0x20,0x00,0x00,0x00,0x00,0x00,0x10,0x01,0x20,0x40,0x00,0x00,0x00,0x01,
 0x00,0x00,0x00,0x00,0x00,0x00,0x00,0x60,0x00,0x00,0x00,0x00,0x00,0x80,0x01};
