#define 31009_img77_width 268
#define 31009_img77_height 12
static char 31009_img77_bits[] = {
 0x00,0x00,0x00,0x00,0x00,0x00,0x00,0x00,0x00,0x00,0x00,0x00,0x00,0x00,0x00,
 0x00,0x00,0x00,0x00,0x00,0x00,0x00,0x00,0x00,0x00,0x00,0x00,0x00,0x00,0x00,
 0x00,0x20,0x08,0x00,0x00,0x00,0x00,0x00,0x00,0x00,0x00,0x08,0x00,0x00,0x00,
 0x00,0x00,0x00,0x40,0x00,0x00,0x00,0x00,0x00,0x00,0x00,0x00,0x00,0x00,0x00,
 0x00,0x0a,0x40,0x00,0x08,0x45,0x10,0x00,0x00,0x00,0x00,0x00,0x00,0x40,0x00,
 0x04,0x00,0x00,0x00,0x00,0x00,0x00,0x20,0x00,0xe0,0x00,0x00,0x00,0x00,0x00,
 0x00,0x00,0x0e,0x00,0x00,0x0a,0x20,0x00,0x10,0x45,0x10,0x00,0x00,0x00,0x00,
 0x00,0x00,0x00,0x00,0x04,0x00,0x00,0x00,0x00,0x00,0x00,0x20,0x00,0x20,0x00,
 0x00,0x00,0x00,0x00,0x00,0x00,0x02,0x00,0x00,0x0a,0x20,0x00,0x20,0x45,0x10,
 0x00,0x38,0x00,0x00,0x00,0xf0,0x6f,0x1f,0xc4,0xf7,0xcf,0x6d,0xe0,0x9f,0xdb,
 0x20,0x1f,0x7f,0xc7,0x41,0x80,0x03,0xf0,0xfd,0xf3,0xe7,0x1c,0x04,0x0a,0x17,
 0x1f,0x20,0x45,0x10,0x00,0x24,0x00,0x00,0xfc,0x21,0x49,0x12,0x84,0x28,0x49,
 0x29,0x40,0x92,0x52,0x20,0x22,0x25,0x25,0xe1,0x41,0x02,0x20,0x4a,0x52,0xa2,
 0x12,0x1e,0x8a,0x15,0x15,0x20,0x45,0x10,0x00,0xa2,0x20,0x0c,0x00,0x20,0x49,
 0x12,0x86,0x28,0xc9,0x11,0x40,0x92,0x23,0x30,0x22,0x25,0x27,0x40,0x20,0x0a,
 0x20,0x4a,0x52,0xe2,0x02,0x04,0x8a,0x14,0x84,0x20,0xc5,0x71,0x00,0x92,0x20,
 0x08,0xfc,0x21,0x49,0x12,0x84,0x2c,0x69,0x2d,0x40,0xd2,0x5a,0x20,0x32,0xa3,
 0x35,0xe0,0x21,0x09,0x20,0x4b,0x32,0xb2,0x02,0x1e,0x8a,0x14,0x92,0x20,0x45,
 0x10,0x00,0x8e,0x23,0x08,0x00,0xf0,0xff,0x3f,0x84,0xf7,0xff,0x6f,0xe6,0xff,
 0xdf,0x20,0x1e,0xff,0xdf,0x43,0xe0,0x38,0xe3,0xfd,0xf7,0xf7,0x3f,0x04,0x8a,
 0x93,0x8f,0x23,0x45,0x10,0x0c,0x82,0xfd,0x08,0x00,0x00,0x00,0x00,0x84,0x00,
 0x00,0x00,0x04,0x00,0x00,0x20,0x82,0x08,0x00,0x00,0x20,0x18,0x22,0x00,0x88,
 0x00,0x00,0x00,0x0a,0x12,0x80,0x21,0x45,0x10,0x08,0x41,0x23,0x1c,0x00,0x00,
 0x00,0x00,0xc4,0x01,0x00,0x00,0x02,0x00,0x00,0x20,0x07,0x07,0x00,0x00,0x10,
 0x34,0x71,0x00,0x70,0x00,0x00,0x00,0xca,0x21,0x40,0x13,0x45,0x10,0x04,0x00,
 0x20,0x00,0x00,0x00,0x00,0x00,0x18,0x00,0x00,0x00,0x00,0x00,0x00,0xc0,0x00,
 0x00,0x00,0x00,0x00,0x00,0x00,0x00,0x00,0x00,0x00,0x00,0x0a,0x40,0x00,0x10,
 0x65,0x18,0x00};
