#define 30855_img70_width 79
#define 30855_img70_height 15
static char 30855_img70_bits[] = {
 0x00,0x00,0x00,0x40,0x00,0x00,0x00,0x00,0x00,0x02,0x00,0x08,0x00,0x23,0x00,
 0x00,0x00,0x00,0x04,0x04,0x00,0x00,0x80,0x20,0x00,0x00,0x02,0x00,0x04,0x08,
 0xff,0xec,0xc3,0x11,0x1f,0x00,0x02,0xbe,0x07,0x08,0x92,0x48,0x82,0x10,0x15,
 0x00,0x02,0x85,0x04,0x08,0x92,0x48,0x82,0x10,0x44,0xc0,0x1f,0x44,0x22,0x08,
 0x92,0x48,0x82,0x10,0x52,0x00,0x02,0x44,0x2a,0x08,0xff,0xfd,0x47,0x90,0xcf,
 0x01,0x02,0xc4,0xe7,0x48,0x00,0x00,0x40,0x10,0xc0,0x00,0x02,0x00,0x60,0x08,
 0x00,0x00,0x60,0x20,0xa0,0x01,0x00,0x00,0xd0,0x04,0x00,0x00,0x00,0x40,0x00,
 0x00,0x00,0x00,0x00,0x04,0x00,0x00,0x00,0x00,0x00,0x00,0x00,0x00,0x00,0x00,
 0x80,0x07,0x00,0x00,0x00,0x00,0x00,0x00,0x00,0x00,0x00,0x02,0x00,0x00,0x00,
 0x00,0x00,0x00,0x00,0x00,0x00,0x01,0x00,0x00,0x00,0x00,0x00,0x00,0x00,0x00};
