#define 30943_img74_width 9
#define 30943_img74_height 8
static char 30943_img74_bits[] = {
 0x06,0x00,0x04,0x00,0x04,0x00,0xc8,0x00,0x8c,0x00,0x92,0x00,0x91,0x00,0xc0,
 0x01};
