#define 30899_img72_width 9
#define 30899_img72_height 7
static char 30899_img72_bits[] = {
 0x38,0x00,0x64,0x00,0x62,0x00,0xd2,0x01,0xce,0x00,0xa2,0x01,0x01,0x00};
