#define 30921_img73_width 215
#define 30921_img73_height 12
static char 30921_img73_bits[] = {
 0x00,0x00,0x00,0x00,0x00,0x00,0x00,0x00,0x00,0x00,0x00,0x00,0x00,0x00,0x00,
 0x00,0x00,0x00,0x00,0x00,0x00,0x00,0x00,0x00,0x00,0x20,0x00,0x00,0x00,0x00,
 0x00,0x00,0x00,0x00,0x00,0x00,0x08,0x00,0x00,0x00,0x00,0x00,0x00,0x00,0xa0,
 0x00,0x04,0x40,0x50,0x00,0x00,0x00,0x40,0x00,0x00,0x00,0x00,0x00,0x00,0x00,
 0x60,0x02,0x00,0x84,0x00,0x08,0x00,0x02,0xe0,0x00,0x00,0xa0,0x00,0x02,0x80,
 0x50,0x40,0x00,0x00,0x40,0x00,0x00,0x00,0x00,0x00,0x00,0x00,0x40,0x00,0x00,
 0x04,0x00,0x00,0x00,0x00,0x20,0x00,0x00,0xa0,0x00,0x02,0x00,0x51,0x00,0x00,
 0x00,0x40,0x00,0x38,0x00,0x00,0x00,0xf0,0xcf,0x79,0x73,0x1f,0xc4,0xfe,0xed,
 0x03,0xfb,0x77,0xc7,0x41,0xa0,0x38,0xf1,0x01,0x51,0x60,0xff,0xdc,0x46,0x00,
 0x24,0x00,0x00,0xfe,0x20,0x29,0x46,0x52,0x12,0x84,0x24,0x49,0x02,0x92,0x24,
 0x25,0xe1,0xa1,0x2c,0x51,0x01,0x51,0x40,0x92,0x94,0x42,0x00,0x62,0x20,0x0c,
 0x00,0x20,0xe9,0x47,0x72,0x12,0x86,0x24,0x49,0x02,0x92,0x24,0x27,0x40,0xa0,
 0x24,0x41,0x04,0x51,0x40,0x92,0x1c,0xc1,0x01,0x52,0x20,0x08,0xfe,0x20,0x29,
 0x46,0x5a,0x13,0x84,0x24,0x49,0x02,0x92,0xa4,0x35,0xe0,0xa1,0x24,0x21,0x05,
 0x51,0x40,0x92,0xd6,0x42,0x00,0xce,0x21,0x08,0x00,0xf0,0xdf,0xf9,0xff,0x3f,
 0xc4,0xff,0xff,0x37,0xff,0xff,0xdf,0x43,0xa0,0x1c,0xf9,0x1c,0x51,0xe6,0xff,
 0xff,0x46,0x60,0xc2,0xfc,0x08,0x00,0x00,0x00,0x00,0x00,0x00,0x04,0x00,0x00,
 0x20,0x00,0x00,0x00,0x00,0xa0,0x10,0x01,0x0c,0x51,0x04,0x00,0x00,0x40,0x40,
 0xa1,0x21,0x1c,0x00,0x00,0x00,0x00,0x00,0x00,0x04,0x00,0x00,0x10,0x00,0x00,
 0x00,0x00,0xa0,0x0e,0x02,0x9a,0x50,0x02,0x00,0x00,0x40,0x20,0x00,0x20,0x00,
 0x00,0x00,0x00,0x00,0x00,0x00,0x18,0x00,0x00,0x00,0x00,0x00,0x00,0x00,0xa0,
 0x00,0x04,0x80,0x50,0x00,0x00,0x00,0x60,0x00};
