#define 31053_img79_width 202
#define 31053_img79_height 12
static char 31053_img79_bits[] = {
 0x00,0x00,0x00,0x00,0x00,0x00,0x00,0x00,0x00,0x00,0x00,0x00,0x00,0x00,0x00,
 0x00,0x00,0x00,0x00,0x00,0x00,0x00,0x00,0x00,0x02,0x00,0x00,0x00,0x00,0x00,
 0x00,0x00,0x00,0x10,0x00,0x00,0x00,0x00,0x00,0x00,0x00,0x00,0x00,0x00,0x00,
 0x50,0x00,0x02,0x40,0x28,0x04,0x00,0x00,0x00,0x00,0x00,0x00,0x80,0x00,0x08,
 0x00,0x1c,0x00,0x00,0x00,0x00,0x00,0x00,0x70,0x00,0x00,0x50,0x00,0x01,0x80,
 0x28,0x04,0x00,0x00,0x00,0x00,0x00,0x00,0x00,0x00,0x08,0x00,0x04,0x00,0x00,
 0x00,0x00,0x00,0x00,0x10,0x00,0x00,0x50,0x00,0x01,0x00,0x29,0x04,0x00,0x38,
 0x00,0x00,0x00,0xe0,0xdf,0x3e,0xc8,0xf7,0xee,0x1c,0x04,0x38,0x00,0xdf,0xbf,
 0x3f,0xe7,0x40,0x50,0xb8,0xf8,0x00,0x29,0x04,0x00,0x24,0x00,0x00,0xfc,0x41,
 0x92,0x24,0x88,0x98,0xa4,0x12,0x1e,0x24,0x00,0xa2,0xa4,0x14,0x95,0xe0,0x51,
 0xac,0xa8,0x00,0x29,0x04,0x00,0xa2,0x40,0x0c,0x00,0x40,0x92,0x24,0x8c,0x68,
 0xe4,0x02,0x04,0xa2,0x00,0xa2,0x24,0x13,0x17,0x40,0x50,0xa4,0x20,0x04,0x29,
 0x1c,0x00,0x92,0x40,0x08,0xfc,0x41,0x92,0x24,0x88,0x9c,0xb4,0x02,0x1e,0x92,
 0x00,0xb2,0xa4,0x94,0x15,0xe0,0x51,0xa4,0x90,0x04,0x29,0x04,0x00,0x8e,0x43,
 0x08,0x00,0xe0,0xff,0x7f,0x88,0xf7,0xfe,0x3f,0x04,0x8e,0x33,0xde,0xff,0xbf,
 0xff,0x41,0x50,0x9c,0x7c,0x1c,0x29,0x04,0x03,0x82,0xf9,0x09,0x00,0x00,0x00,
 0x00,0x88,0x00,0x00,0x00,0x00,0x82,0x21,0x02,0x00,0x00,0x00,0x00,0x50,0x90,
 0x00,0x0c,0x29,0x04,0x02,0x41,0x43,0x1c,0x00,0x00,0x00,0x00,0xc8,0x01,0x00,
 0x00,0x00,0x41,0x13,0x07,0x00,0x00,0x00,0x00,0x50,0x0e,0x01,0x9a,0x28,0x04,
 0x01,0x00,0x40,0x00,0x00,0x00,0x00,0x00,0x30,0x00,0x00,0x00,0x00,0x00,0x00,
 0x00,0x00,0x00,0x00,0x00,0x50,0x00,0x02,0x80,0x28,0x06,0x00};
