#define 31075_img80_width 60
#define 31075_img80_height 9
static char 31075_img80_bits[] = {
 0x00,0x00,0x00,0x00,0x00,0x00,0x10,0x00,0x00,0x00,0x00,0x80,0x00,0x00,0x00,
 0x00,0x38,0x00,0x00,0x70,0xf0,0xfd,0xdb,0x07,0x64,0x20,0x0c,0x0e,0x20,0x4a,
 0x92,0x04,0x62,0x20,0x08,0x0c,0x20,0x4a,0x92,0x04,0xd2,0x21,0x08,0x70,0x20,
 0x4b,0x92,0x04,0xce,0xfc,0x08,0x80,0xe0,0xfd,0xff,0x0f,0xa2,0x21,0x1c,0x00,
 0x20,0x00,0x00,0x00,0x01,0x20,0x00,0x00,0x70,0x00,0x00,0x00};
