#define 31251_img88_width 220
#define 31251_img88_height 65
static char 31251_img88_bits[] = {
 0x00,0x00,0x00,0x00,0x00,0x30,0x00,0x00,0x00,0x00,0x40,0x08,0x00,0x28,0x00,
 0x28,0x01,0x00,0x00,0x00,0x00,0x00,0x40,0x00,0x00,0x00,0x00,0x02,0x00,0x00,
 0x00,0x00,0x00,0x08,0x00,0x00,0x00,0x08,0x20,0x18,0x00,0x28,0x08,0x28,0x02,
 0x00,0x72,0x00,0x00,0x00,0x20,0x00,0x00,0x00,0x00,0x04,0x00,0x00,0x00,0x00,
 0x00,0x08,0x00,0x00,0x00,0x00,0x20,0x14,0x00,0x28,0x08,0x28,0x04,0x00,0x10,
 0x00,0x00,0x70,0x20,0x00,0x00,0x00,0x00,0x08,0x00,0x00,0x00,0x00,0x00,0x04,
 0x80,0x09,0xfe,0xed,0x13,0x34,0x00,0x28,0x0f,0x28,0x04,0x00,0x3b,0xd0,0x00,
 0x08,0x10,0x00,0x8e,0x03,0x1d,0x08,0x00,0x00,0x00,0x00,0x00,0x04,0x40,0x0a,
 0x24,0x49,0x12,0x22,0x00,0x28,0x09,0x28,0x04,0x00,0x12,0x28,0x00,0x04,0x10,
 0x00,0x51,0x86,0x12,0x08,0x00,0x00,0x00,0x00,0x00,0x04,0x20,0x66,0x24,0x49,
 0x12,0x62,0x02,0xa8,0x44,0x28,0x04,0x00,0x12,0x78,0x02,0x7c,0x10,0x7f,0x21,
 0x04,0xd1,0x08,0x00,0x00,0x00,0x00,0x00,0x04,0x20,0x42,0x24,0x49,0x12,0x41,
 0x02,0xa8,0x54,0x28,0x04,0x00,0x12,0xc8,0x02,0x04,0x10,0x00,0x51,0x04,0x89,
 0x08,0x00,0x00,0x00,0x00,0x00,0x04,0xc0,0x45,0xfe,0xff,0x17,0xff,0xce,0xa8,
 0xcf,0x29,0x04,0x00,0x3f,0xc8,0x0e,0x08,0x10,0x00,0x8e,0x1b,0x89,0x08,0x00,
 0x00,0x00,0x00,0x00,0x04,0x00,0x40,0x00,0x00,0x10,0x00,0x86,0x28,0xc0,0x28,
 0x04,0x00,0x00,0x00,0x06,0x70,0x10,0x00,0x00,0x10,0x88,0x08,0x00,0x00,0x00,
 0x00,0x00,0x04,0x00,0xe0,0x00,0x00,0x20,0x00,0x4d,0x28,0xa0,0x29,0x02,0x00,
 0x00,0x00,0x0d,0x00,0x20,0x00,0x00,0x08,0xc4,0x05,0x00,0x00,0x00,0x00,0x00,
 0x04,0x00,0x00,0x00,0x00,0x40,0x00,0x00,0x28,0x00,0x28,0x02,0x00,0x00,0x00,
 0x00,0x00,0x40,0x00,0x00,0x00,0x00,0x04,0x00,0x00,0x00,0x00,0x00,0x04,0x00,
 0x00,0x00,0x00,0x00,0x00,0x00,0x00,0x00,0x00,0x00,0x00,0x00,0x00,0x00,0x00,
 0x00,0x00,0x00,0x00,0x00,0x00,0x00,0x00,0x00,0x00,0x00,0x04,0x00,0x00,0x00,
 0x00,0x00,0x00,0x00,0x00,0x00,0x00,0x00,0x00,0x00,0x00,0x00,0x00,0x00,0x00,
 0x00,0x00,0x00,0x00,0x00,0x00,0x00,0x00,0x00,0x04,0x00,0x00,0x00,0x00,0x00,
 0x00,0x00,0x00,0x00,0x00,0x00,0x00,0x00,0x00,0x00,0x00,0x00,0x00,0x00,0x00,
 0x00,0x00,0x00,0x00,0x00,0x00,0x00,0x04,0x00,0x00,0x00,0x00,0x40,0x08,0x00,
 0x28,0x00,0x28,0x01,0x00,0x00,0x00,0x00,0x00,0x30,0x00,0x00,0x80,0x00,0x00,
 0x00,0x00,0x00,0x00,0x00,0x04,0x00,0x00,0x00,0x08,0x20,0x18,0x00,0x28,0x08,
 0x28,0x02,0x00,0x72,0x00,0x00,0x00,0x10,0x00,0x00,0x00,0x01,0x00,0x00,0x00,
 0x00,0x00,0x00,0x04,0x00,0x00,0x00,0x00,0x20,0x14,0x00,0x28,0x08,0x28,0x04,
 0x00,0x10,0x00,0x00,0x70,0x10,0x00,0x00,0x00,0x02,0x00,0x00,0x00,0x00,0x00,
 0x00,0x04,0x80,0x09,0xfe,0xed,0x13,0x34,0x00,0x28,0x0f,0x28,0x04,0x00,0x3b,
 0xd0,0x00,0x08,0x90,0x0e,0x40,0x07,0x02,0x00,0x00,0x00,0x00,0x00,0x00,0x04,
 0x40,0xfa,0x24,0x49,0x12,0x22,0x02,0x28,0x49,0x28,0x04,0x00,0x12,0x28,0x02,
 0x04,0x50,0x39,0xa0,0x3c,0x02,0x00,0x00,0x00,0x00,0x00,0x00,0x04,0x20,0x96,
 0x24,0x49,0x12,0x62,0x02,0xa8,0x44,0x28,0x04,0x00,0x12,0x78,0x02,0x7c,0x90,
 0x28,0x40,0x24,0x02,0x00,0x00,0x00,0x00,0x00,0x00,0x04,0x20,0x82,0x24,0x49,
 0x12,0x41,0x0e,0xa8,0xd4,0x29,0x04,0x00,0x12,0xc8,0x0e,0x04,0x90,0x24,0x40,
 0x22,0x02,0x00,0x00,0x00,0x00,0x00,0x00,0x04,0xc0,0x65,0xfe,0xff,0x17,0xff,
 0xc6,0xa8,0xcf,0x28,0x04,0x00,0x3f,0xc8,0x06,0x08,0x90,0x24,0x46,0x1a,0x02,
 0x00,0x00,0x00,0x00,0x00,0x00,0x00,0x00,0xf0,0x00,0x00,0x10,0x00,0x8d,0x28,
 0xa0,0x29,0x04,0x00,0x00,0x00,0x0d,0x70,0x10,0x74,0x04,0x3e,0x02,0x00,0x00,
 0x00,0x00,0x00,0x00,0x04,0x00,0x00,0x00,0x00,0x20,0x00,0x40,0x28,0x00,0x28,
 0x02,0x00,0x00,0x00,0x00,0x00,0x10,0x02,0x02,0x01,0x01,0x00,0x00,0x00,0x00,
 0x00,0x00,0x04,0x00,0x00,0x00,0x00,0x40,0x00,0x00,0x28,0x00,0x28,0x02,0x00,
 0x00,0x00,0x00,0x00,0x30,0x00,0x00,0x00,0x01,0x00,0x00,0x00,0x00,0x00,0x00,
 0x04,0x00,0x00,0x00,0x00,0x00,0x00,0x00,0x00,0x00,0x00,0x00,0x00,0x00,0x00,
 0x00,0x00,0x00,0x00,0x00,0x00,0x00,0x00,0x00,0x00,0x00,0x00,0x00,0x04,0x00,
 0x00,0x00,0x00,0x00,0x00,0x00,0x00,0x00,0x00,0x00,0x00,0x00,0x00,0x00,0x00,
 0x00,0x00,0x00,0x00,0x00,0x00,0x08,0x00,0x00,0x00,0x00,0x04,0x00,0x00,0x20,
 0x00,0x00,0x00,0x00,0x00,0x00,0x00,0x00,0x00,0x00,0x00,0x00,0x00,0x30,0x00,
 0x00,0x80,0x00,0x00,0x18,0x00,0x00,0x00,0x00,0x04,0x00,0x00,0x60,0x00,0x00,
 0x00,0x00,0x00,0x00,0x00,0x00,0x00,0x72,0x00,0x00,0x00,0x10,0x00,0x00,0x00,
 0x01,0x00,0x14,0x00,0x00,0x00,0x00,0x04,0x00,0x00,0x50,0x00,0x00,0x00,0x00,
 0x00,0x00,0x00,0x00,0x00,0x10,0x00,0x00,0x70,0x10,0x00,0x00,0x00,0x02,0x00,
 0x34,0x00,0x00,0x00,0x00,0x02,0x80,0x09,0xd0,0x00,0x00,0x00,0x00,0x00,0x00,
 0x00,0x00,0x00,0x3b,0xd0,0x00,0x08,0x90,0x0e,0x40,0x07,0x02,0x00,0x22,0x00,
 0x00,0xf0,0x07,0x02,0x40,0x0a,0x88,0x00,0x00,0x00,0x00,0x00,0x00,0x00,0x00,
 0x00,0x12,0x28,0x00,0x04,0x50,0x09,0xa0,0x04,0x02,0x00,0x62,0x82,0x30,0x00,
 0x00,0x01,0x20,0x76,0x88,0x09,0x00,0x00,0x00,0x00,0x00,0x00,0x00,0x00,0x12,
 0x78,0x02,0x7c,0x90,0x78,0x40,0x1c,0x02,0x00,0x41,0x82,0x20,0xf0,0x07,0x01,
 0x20,0x82,0x04,0x09,0x00,0x00,0x00,0x00,0x00,0x00,0x00,0x00,0x12,0xc8,0x02,
 0x04,0x90,0x4c,0x40,0x22,0x02,0x00,0xff,0x8e,0x20,0x00,0x00,0x02,0xc0,0x65,
 0xfc,0x3b,0x00,0x00,0x00,0x00,0x00,0x00,0x00,0x00,0x3f,0xc8,0x0e,0x08,0x90,
 0x44,0x46,0x1a,0x02,0x00,0x00,0xf6,0x23,0x00,0x00,0x04,0x00,0x90,0x00,0x18,
 0x00,0x00,0x00,0x00,0x00,0x00,0x00,0x00,0x00,0x00,0x06,0x70,0x10,0x34,0x04,
 0x26,0x02,0x00,0x00,0x8d,0x70,0x00,0x00,0x04,0x00,0xe0,0x00,0x34,0x00,0x00,
 0x00,0x00,0x00,0x00,0x00,0x00,0x00,0x00,0x0d,0x00,0x10,0x7a,0x02,0x39,0x01,
 0x00,0x00,0x80,0x00,0x00,0x00,0x04,0x00,0x00,0x00,0x00,0x00,0x00,0x00,0x00,
 0x00,0x00,0x00,0x00,0x00,0x00,0x00,0x00,0x30,0x00,0x00,0x00,0x01,0x00,0x00,
 0x00,0x00,0x00,0x00,0x04,0x00,0x00,0x00,0x00,0x00,0x00,0x00,0x00,0x00,0x00,
 0x00,0x00,0x00,0x00,0x00,0x00,0x00,0x00,0x00,0x00,0x00,0x00,0x00,0x00,0x00,
 0x00,0x00,0x04,0x00,0x00,0x00,0x00,0x00,0x00,0x00,0x00,0x00,0x00,0x00,0x00,
 0x00,0x00,0x00,0x00,0x00,0x00,0x00,0x00,0x00,0x00,0x00,0x00,0x00,0x00,0x00,
 0x04,0x00,0x00,0x00,0x00,0x00,0x00,0x00,0x00,0x00,0x00,0x00,0x00,0x00,0x00,
 0x00,0x00,0x00,0x00,0x00,0x00,0x00,0x00,0x00,0x00,0x00,0x00,0x00,0x04,0x00,
 0x00,0x00,0x10,0x02,0x00,0x00,0xa0,0x00,0xa0,0x04,0x00,0x00,0x00,0x00,0x00,
 0x30,0x00,0x00,0x80,0x00,0x00,0x00,0x00,0x00,0x00,0x00,0x04,0x00,0x00,0x00,
 0x08,0x06,0x00,0x00,0xa0,0x40,0xa0,0x08,0x00,0x72,0x00,0x00,0x00,0x10,0x00,
 0x00,0x00,0x01,0x00,0x00,0x00,0x00,0x00,0x00,0x04,0x00,0x00,0x00,0x08,0x05,
 0x00,0x00,0xa0,0x40,0xa0,0x10,0x00,0x10,0x00,0x00,0x70,0x10,0x00,0x00,0x00,
 0x02,0x00,0x00,0x00,0x00,0x00,0x00,0x04,0xe0,0x9f,0xdb,0x04,0x0d,0x00,0x4c,
 0xa0,0x78,0xa0,0x10,0x00,0x3b,0xd0,0x00,0x08,0x90,0x0e,0x40,0x07,0x02,0x00,
 0x00,0x00,0x00,0x00,0x00,0x00,0x40,0x92,0x52,0x84,0x08,0x00,0x52,0xa2,0x48,
 0xa0,0x10,0x00,0x12,0x28,0x00,0x04,0x50,0x39,0xa0,0x14,0x02,0x00,0x00,0x00,
 0x00,0x00,0x00,0x04,0x40,0x92,0x23,0x84,0x98,0x00,0x31,0xa3,0x24,0xa1,0x10,
 0x00,0x12,0x78,0x02,0x7c,0x90,0x48,0x40,0x1c,0x02,0x00,0x00,0x00,0x00,0x00,
 0x00,0x04,0x40,0xd2,0x5a,0x44,0x90,0x00,0x91,0xa2,0xa4,0xa1,0x10,0x00,0x12,
 0xc8,0x02,0x04,0x90,0x34,0x40,0x16,0x02,0x00,0x00,0x00,0x00,0x00,0x00,0x04,
 0xe0,0xff,0xdf,0xc4,0xbf,0x63,0xae,0xa7,0x7c,0xa7,0x10,0x00,0x3f,0xc8,0x0e,
 0x08,0x90,0x4c,0x46,0x3e,0x02,0x00,0x00,0x00,0x00,0x00,0x00,0x04,0x00,0x00,
 0x00,0x04,0x80,0x41,0x00,0xa6,0x00,0xa3,0x10,0x00,0x00,0x00,0x06,0x70,0x10,
 0x74,0x04,0x32,0x02,0x00,0x00,0x00,0x00,0x00,0x00,0x04,0x00,0x00,0x00,0x08,
 0x40,0x23,0x00,0xa0,0x80,0xa6,0x08,0x00,0x00,0x00,0x0d,0x00,0x10,0x02,0x02,
 0x01,0x01,0x00,0x00,0x00,0x00,0x00,0x00,0x04,0x00,0x00,0x00,0x10,0x00,0x00,
 0x00,0xa0,0x00,0xa0,0x08,0x00,0x00,0x00,0x00,0x00,0x30,0x00,0x00,0x00,0x01,
 0x00,0x00,0x00,0x00,0x00,0x00,0x04,0x00,0x00,0x00,0x00,0x00,0x00,0x00,0x00,
 0x00,0x00,0x00,0x00,0x00,0x00,0x00,0x00,0x00,0x00,0x00,0x00,0x00,0x00,0x00,
 0x00,0x00,0x00,0x00,0x04,0x00,0x00,0x00,0x00,0x00,0x00,0x00,0x00,0x00,0x00,
 0x00,0x00,0x00,0x00,0x00,0x00,0x00,0x00,0x00,0x00,0x00,0x00,0x00,0x00,0x00,
 0x00,0x00,0x04,0x00,0x00,0x00,0x10,0x02,0x00,0x00,0xa0,0x00,0xa0,0x04,0x00,
 0x00,0x00,0x00,0x00,0x30,0x00,0x00,0x00,0x01,0x00,0x00,0x00,0x00,0x00,0x00,
 0x04,0x00,0x00,0x00,0x08,0x06,0x00,0x00,0xa0,0x40,0xa0,0x08,0x00,0x72,0x00,
 0x00,0x00,0x10,0x00,0x00,0x00,0x02,0x00,0x00,0x00,0x00,0x00,0x00,0x04,0x00,
 0x00,0x00,0x08,0x05,0x00,0x00,0xa0,0x40,0xa0,0x10,0x00,0x10,0x00,0x00,0x70,
 0x10,0x00,0x00,0x00,0x04,0x00,0x00,0x00,0x00,0x00,0x00,0x04,0xe0,0x9f,0xdb,
 0x04,0x0d,0x00,0x4c,0xa0,0x78,0xa0,0x10,0x00,0x3b,0xd0,0x00,0x08,0x90,0x0e,
 0xc0,0x71,0x04,0x00,0x00,0x00,0x00,0x00,0x00,0x04,0x40,0x92,0x52,0x84,0x08,
 0x00,0x52,0xa0,0x48,0xa0,0x10,0x00,0x12,0x28,0x00,0x04,0x50,0x09,0x20,0xca,
 0x04,0x00,0x00,0x00,0x00,0x00,0x00,0x04,0x40,0x92,0x23,0x84,0x98,0x00,0xb1,
 0xa3,0x24,0xa1,0x10,0x00,0x12,0x78,0x02,0x7c,0x90,0x28,0x20,0x84,0x04,0x00,
 0x00,0x00,0x00,0x00,0x00,0x04,0x40,0xd2,0x5a,0x44,0x90,0x00,0x91,0xa3,0xa4,
 0xa1,0x10,0x00,0x12,0xc8,0x02,0x04,0x90,0x34,0x20,0x8a,0x04,0x00,0x00,0x00,
 0x00,0x00,0x00,0x04,0xe0,0xff,0xdf,0xc4,0xbf,0x63,0xae,0xa4,0x7c,0xa7,0x10,
 0x00,0x3f,0xc8,0x0e,0x08,0x90,0x2c,0xc6,0x71,0x04,0x00,0x00,0x00,0x00,0x00,
 0x00,0x08,0x00,0x00,0x00,0x04,0x80,0x41,0x80,0xa4,0x00,0xa3,0x10,0x00,0x00,
 0x00,0x06,0x70,0x10,0x7c,0x04,0x00,0x04,0x00,0x00,0x00,0x00,0x00,0x00,0x08,
 0x00,0x00,0x00,0x08,0x40,0x23,0x00,0xa3,0x80,0xa6,0x08,0x00,0x00,0x00,0x0d,
 0x00,0x10,0x62,0x02,0x00,0x02,0x00,0x00,0x00,0x00,0x00,0x00,0x30,0x00,0x00,
 0x00,0x10,0x00,0x00,0x00,0xa0,0x00,0xa0,0x08,0x00,0x00,0x00,0x00,0x00,0x30,
 0x00,0x00,0x00,0x02,0x00};
