#define 31163_img84_width 210
#define 31163_img84_height 65
static char 31163_img84_bits[] = {
 0x00,0x00,0x00,0x00,0x00,0x60,0x00,0x00,0x00,0x00,0x40,0x08,0x00,0x50,0x00,
 0x50,0x01,0x00,0x00,0x00,0x00,0x00,0x18,0x00,0x00,0x02,0x00,0x00,0x00,0x00,
 0x00,0x00,0x10,0x00,0x00,0x00,0x08,0x20,0x18,0x00,0x50,0x10,0x50,0x02,0x00,
 0xe4,0x00,0x00,0x00,0xc8,0x01,0x00,0x04,0x00,0x00,0x00,0x00,0x00,0x00,0x10,
 0x00,0x00,0x00,0x00,0x20,0x14,0x00,0x50,0x10,0x50,0x04,0x00,0x20,0x00,0x00,
 0x1c,0x28,0x02,0x00,0x08,0x00,0x00,0x00,0x00,0x00,0x00,0x08,0x80,0x10,0xfe,
 0xed,0x13,0x34,0x00,0x50,0x1e,0x50,0x04,0x00,0x76,0xf0,0x01,0x02,0x28,0x02,
 0x11,0x08,0x00,0x00,0x00,0x00,0x00,0x00,0x08,0x40,0x10,0x24,0x49,0x12,0x22,
 0x00,0x50,0x12,0x50,0x04,0x00,0x24,0x28,0x00,0x01,0x28,0x02,0x09,0x08,0x00,
 0x00,0x00,0x00,0x00,0x00,0x08,0x40,0x72,0x24,0x49,0x12,0x62,0x04,0x50,0x89,
 0x50,0x04,0x00,0x24,0x20,0x01,0x1f,0x28,0x02,0x69,0x08,0x00,0x00,0x00,0x00,
 0x00,0x00,0x08,0x40,0x52,0x24,0x49,0x12,0x41,0x04,0x50,0xa9,0x50,0x04,0x00,
 0x24,0x20,0x01,0x01,0x28,0x02,0x45,0x08,0x00,0x00,0x00,0x00,0x00,0x00,0x08,
 0xc0,0x4f,0xfe,0xff,0x17,0xff,0x9c,0x51,0x9f,0x53,0x04,0x00,0x7e,0x20,0x07,
 0x02,0xc8,0x19,0x43,0x08,0x00,0x00,0x00,0x00,0x00,0x00,0x08,0x00,0x40,0x00,
 0x00,0x10,0x00,0x0c,0x51,0x80,0x51,0x04,0x00,0x00,0x00,0x03,0x1c,0x08,0x10,
 0x40,0x08,0x00,0x00,0x00,0x00,0x00,0x00,0x08,0x00,0xe0,0x00,0x00,0x20,0x00,
 0x9a,0x50,0x40,0x53,0x02,0x00,0x00,0x80,0x06,0x00,0x08,0x08,0xe0,0x04,0x00,
 0x00,0x00,0x00,0x00,0x00,0x08,0x00,0x00,0x00,0x00,0x40,0x00,0x00,0x50,0x00,
 0x50,0x02,0x00,0x00,0x00,0x00,0x00,0x18,0x00,0x00,0x04,0x00,0x00,0x00,0x00,
 0x00,0x00,0x08,0x00,0x00,0x00,0x00,0x00,0x00,0x00,0x00,0x00,0x00,0x00,0x00,
 0x00,0x00,0x00,0x00,0x00,0x00,0x00,0x00,0x00,0x00,0x00,0x00,0x00,0x00,0x08,
 0x00,0x00,0x00,0x00,0x00,0x00,0x00,0x00,0x00,0x00,0x00,0x00,0x00,0x00,0x00,
 0x00,0x00,0x00,0x00,0x00,0x00,0x00,0x00,0x00,0x00,0x00,0x08,0x00,0x00,0x00,
 0x00,0x00,0x00,0x00,0x00,0x00,0x00,0x00,0x00,0x00,0x00,0x00,0x00,0x00,0x00,
 0x00,0x00,0x00,0x00,0x00,0x00,0x00,0x00,0x08,0x00,0x00,0x00,0x00,0x40,0x08,
 0x00,0x50,0x00,0x50,0x01,0x00,0x00,0x00,0x00,0x00,0x18,0x00,0x00,0x40,0x00,
 0x00,0x00,0x00,0x00,0x00,0x08,0x00,0x00,0x00,0x08,0x20,0x18,0x00,0x50,0x10,
 0x50,0x02,0x00,0xe4,0x00,0x00,0x00,0x08,0x00,0x00,0x80,0x00,0x00,0x00,0x00,
 0x00,0x00,0x08,0x00,0x00,0x00,0x00,0x20,0x14,0x00,0x50,0x10,0x50,0x04,0x00,
 0x20,0x00,0x00,0x1c,0x08,0x00,0x00,0x00,0x01,0x00,0x00,0x00,0x00,0x00,0x08,
 0x80,0x10,0xfe,0xed,0x13,0x34,0x00,0x50,0x1e,0x50,0x04,0x00,0x76,0xf0,0x01,
 0x02,0x48,0x04,0x20,0x02,0x01,0x00,0x00,0x00,0x00,0x00,0x08,0x40,0xf0,0x24,
 0x49,0x12,0x22,0x04,0x50,0x92,0x50,0x04,0x00,0x24,0x28,0x01,0x01,0x48,0x1a,
 0x20,0x1f,0x01,0x00,0x00,0x00,0x00,0x00,0x08,0x40,0x92,0x24,0x49,0x12,0x62,
 0x04,0x50,0x89,0x50,0x04,0x00,0x24,0x20,0x01,0x1f,0x48,0x12,0x20,0x13,0x01,
 0x00,0x00,0x00,0x00,0x00,0x08,0x40,0x92,0x24,0x49,0x12,0x41,0x1c,0x50,0xa9,
 0x53,0x04,0x00,0x24,0x20,0x07,0x01,0x48,0x11,0xa0,0x10,0x01,0x00,0x00,0x00,
 0x00,0x00,0x08,0xc0,0x6f,0xfe,0xff,0x17,0xff,0x8c,0x51,0x9f,0x51,0x04,0x00,
 0x7e,0x20,0x03,0x02,0xc8,0x10,0x63,0x0c,0x01,0x00,0x00,0x00,0x00,0x00,0x00,
 0x00,0xf0,0x00,0x00,0x10,0x00,0x1a,0x51,0x40,0x53,0x04,0x00,0x00,0x80,0x06,
 0x1c,0x08,0x38,0x02,0x1e,0x01,0x00,0x00,0x00,0x00,0x00,0x08,0x00,0x00,0x00,
 0x00,0x20,0x00,0x80,0x50,0x00,0x50,0x02,0x00,0x00,0x00,0x00,0x00,0x08,0x00,
 0x01,0x80,0x00,0x00,0x00,0x00,0x00,0x00,0x08,0x00,0x00,0x00,0x00,0x40,0x00,
 0x00,0x50,0x00,0x50,0x02,0x00,0x00,0x00,0x00,0x00,0x18,0x00,0x00,0x80,0x00,
 0x00,0x00,0x00,0x00,0x00,0x08,0x00,0x00,0x00,0x00,0x00,0x00,0x00,0x00,0x00,
 0x00,0x00,0x00,0x00,0x00,0x00,0x00,0x00,0x00,0x00,0x00,0x00,0x00,0x00,0x00,
 0x00,0x00,0x08,0x00,0x00,0x00,0x00,0x00,0x00,0x00,0x00,0x00,0x00,0x00,0x00,
 0x00,0x00,0x00,0x00,0x00,0x00,0x00,0x00,0x00,0x08,0x00,0x00,0x00,0x00,0x08,
 0x00,0x00,0x20,0x00,0x00,0x00,0x00,0x00,0x00,0x00,0x00,0x00,0x00,0x00,0x00,
 0x00,0x18,0x00,0x00,0x40,0x00,0x18,0x00,0x00,0x00,0x00,0x08,0x00,0x00,0x60,
 0x00,0x00,0x00,0x00,0x00,0x00,0x00,0x00,0x00,0xe4,0x00,0x00,0x00,0x08,0x00,
 0x00,0x80,0x00,0x14,0x00,0x00,0x00,0x00,0x08,0x00,0x00,0x50,0x00,0x00,0x00,
 0x00,0x00,0x00,0x00,0x00,0x00,0x20,0x00,0x00,0x1c,0x08,0x00,0x00,0x00,0x01,
 0x34,0x00,0x00,0x00,0x00,0x04,0x80,0x10,0xd0,0x00,0x00,0x00,0x00,0x00,0x00,
 0x00,0x00,0x00,0x76,0xf0,0x01,0x02,0x48,0x04,0x20,0x02,0x01,0x22,0x00,0x00,
 0xf0,0x07,0x04,0x40,0x10,0x88,0x00,0x00,0x00,0x00,0x00,0x00,0x00,0x00,0x00,
 0x24,0x28,0x00,0x01,0x48,0x02,0x20,0x01,0x01,0x62,0x02,0x61,0x00,0x00,0x02,
 0x40,0x72,0x88,0x09,0x00,0x00,0x00,0x00,0x00,0x00,0x00,0x00,0x24,0x20,0x01,
 0x1f,0x48,0x3e,0x20,0x0f,0x01,0x41,0x02,0x41,0xf0,0x07,0x02,0x40,0x92,0x04,
 0x09,0x00,0x00,0x00,0x00,0x00,0x00,0x00,0x00,0x24,0x20,0x01,0x01,0x48,0x25,
 0xa0,0x10,0x01,0xff,0x0e,0x41,0x00,0x00,0x04,0xc0,0x6f,0xfc,0x3b,0x00,0x00,
 0x00,0x00,0x00,0x00,0x00,0x00,0x7e,0x20,0x07,0x02,0xc8,0x20,0x63,0x0c,0x01,
 0x00,0xe6,0x47,0x00,0x00,0x08,0x00,0x90,0x00,0x18,0x00,0x00,0x00,0x00,0x00,
 0x00,0x00,0x00,0x00,0x00,0x03,0x1c,0x08,0x18,0x02,0x12,0x01,0x00,0x0d,0xe1,
 0x00,0x00,0x08,0x00,0xe0,0x00,0x34,0x00,0x00,0x00,0x00,0x00,0x00,0x00,0x00,
 0x00,0x80,0x06,0x00,0x08,0x3c,0x01,0x9c,0x00,0x00,0x00,0x01,0x00,0x00,0x08,
 0x00,0x00,0x00,0x00,0x00,0x00,0x00,0x00,0x00,0x00,0x00,0x00,0x00,0x00,0x00,
 0x00,0x18,0x00,0x00,0x80,0x00,0x00,0x00,0x00,0x00,0x00,0x08,0x00,0x00,0x00,
 0x00,0x00,0x00,0x00,0x00,0x00,0x00,0x00,0x00,0x00,0x00,0x00,0x00,0x00,0x00,
 0x00,0x00,0x00,0x00,0x00,0x00,0x00,0x00,0x08,0x00,0x00,0x00,0x00,0x00,0x00,
 0x00,0x00,0x00,0x00,0x00,0x00,0x00,0x00,0x00,0x00,0x00,0x00,0x00,0x00,0x00,
 0x00,0x00,0x00,0x00,0x00,0x08,0x00,0x00,0x00,0x00,0x00,0x00,0x00,0x00,0x00,
 0x00,0x00,0x00,0x00,0x00,0x00,0x00,0x00,0x00,0x00,0x00,0x00,0x00,0x00,0x00,
 0x00,0x00,0x08,0x00,0x00,0x00,0x20,0x04,0x00,0x00,0x40,0x01,0x40,0x05,0x00,
 0x00,0x00,0x00,0x00,0x18,0x00,0x00,0x40,0x00,0x00,0x00,0x00,0x00,0x00,0x08,
 0x00,0x00,0x00,0x10,0x0c,0x00,0x00,0x40,0x41,0x40,0x09,0x00,0xe4,0x00,0x00,
 0x00,0x08,0x00,0x00,0x80,0x00,0x00,0x00,0x00,0x00,0x00,0x08,0x00,0x00,0x00,
 0x10,0x0a,0x00,0x00,0x40,0x41,0x40,0x11,0x00,0x20,0x00,0x00,0x1c,0x08,0x00,
 0x00,0x00,0x01,0x00,0x00,0x00,0x00,0x00,0x08,0xc0,0x3f,0xb7,0x09,0x1a,0x00,
 0x84,0x40,0x79,0x40,0x11,0x00,0x76,0xf0,0x01,0x02,0x48,0x04,0x20,0x02,0x01,
 0x00,0x00,0x00,0x00,0x00,0x00,0x80,0x24,0xa5,0x08,0x11,0x00,0x82,0x44,0x49,
 0x40,0x11,0x00,0x24,0x28,0x00,0x01,0x48,0x1e,0x20,0x09,0x01,0x00,0x00,0x00,
 0x00,0x00,0x08,0x80,0x24,0x47,0x08,0x31,0x01,0x92,0x46,0x25,0x42,0x11,0x00,
 0x24,0x20,0x01,0x1f,0x48,0x22,0x20,0x0d,0x01,0x00,0x00,0x00,0x00,0x00,0x08,
 0x80,0xa4,0xb5,0x88,0x20,0x01,0x92,0x45,0xa5,0x42,0x11,0x00,0x24,0x20,0x01,
 0x01,0x48,0x19,0xa0,0x0a,0x01,0x00,0x00,0x00,0x00,0x00,0x08,0xc0,0xff,0xbf,
 0x89,0x7f,0x67,0x7e,0x4f,0x7d,0x4e,0x11,0x00,0x7e,0x20,0x07,0x02,0xc8,0x24,
 0x63,0x1e,0x01,0x00,0x00,0x00,0x00,0x00,0x08,0x00,0x00,0x00,0x08,0x00,0x43,
 0x00,0x4c,0x01,0x46,0x11,0x00,0x00,0x00,0x03,0x1c,0x08,0x38,0x02,0x18,0x01,
 0x00,0x00,0x00,0x00,0x00,0x08,0x00,0x00,0x00,0x10,0x80,0x26,0x00,0x40,0x01,
 0x4d,0x09,0x00,0x00,0x80,0x06,0x00,0x08,0x00,0x01,0x80,0x00,0x00,0x00,0x00,
 0x00,0x00,0x08,0x00,0x00,0x00,0x20,0x00,0x00,0x00,0x40,0x01,0x40,0x09,0x00,
 0x00,0x00,0x00,0x00,0x18,0x00,0x00,0x80,0x00,0x00,0x00,0x00,0x00,0x00,0x08,
 0x00,0x00,0x00,0x00,0x00,0x00,0x00,0x00,0x00,0x00,0x00,0x00,0x00,0x00,0x00,
 0x00,0x00,0x00,0x00,0x00,0x00,0x00,0x00,0x00,0x00,0x00,0x08,0x00,0x00,0x00,
 0x00,0x00,0x00,0x00,0x00,0x00,0x00,0x00,0x00,0x00,0x00,0x00,0x00,0x00,0x00,
 0x00,0x00,0x00,0x00,0x00,0x00,0x00,0x00,0x08,0x00,0x00,0x00,0x20,0x04,0x00,
 0x00,0x40,0x01,0x40,0x05,0x00,0x00,0x00,0x00,0x00,0x18,0x00,0x00,0x80,0x00,
 0x00,0x00,0x00,0x00,0x00,0x08,0x00,0x00,0x00,0x10,0x0c,0x00,0x00,0x40,0x41,
 0x40,0x09,0x00,0xe4,0x00,0x00,0x00,0x08,0x00,0x00,0x00,0x01,0x00,0x00,0x00,
 0x00,0x00,0x08,0x00,0x00,0x00,0x10,0x0a,0x00,0x00,0x40,0x41,0x40,0x11,0x00,
 0x20,0x00,0x00,0x1c,0x08,0x00,0x00,0x00,0x02,0x00,0x00,0x00,0x00,0x00,0x08,
 0xc0,0x3f,0xb7,0x09,0x1a,0x00,0x84,0x40,0x79,0x40,0x11,0x00,0x76,0xf0,0x01,
 0x02,0x48,0x04,0xe0,0x38,0x02,0x00,0x00,0x00,0x00,0x00,0x08,0x80,0x24,0xa5,
 0x08,0x11,0x00,0x82,0x40,0x49,0x40,0x11,0x00,0x24,0x28,0x00,0x01,0x48,0x02,
 0x10,0x65,0x02,0x00,0x00,0x00,0x00,0x00,0x08,0x80,0x24,0x47,0x08,0x31,0x01,
 0x92,0x47,0x25,0x42,0x11,0x00,0x24,0x20,0x01,0x1f,0x48,0x12,0x10,0x42,0x02,
 0x00,0x00,0x00,0x00,0x00,0x08,0x80,0xa4,0xb5,0x88,0x20,0x01,0x92,0x47,0xa5,
 0x42,0x11,0x00,0x24,0x20,0x01,0x01,0x48,0x19,0x10,0x45,0x02,0x00,0x00,0x00,
 0x00,0x00,0x08,0xc0,0xff,0xbf,0x89,0x7f,0x67,0x7e,0x49,0x7d,0x4e,0x11,0x00,
 0x7e,0x20,0x07,0x02,0xc8,0x14,0xe3,0x38,0x02,0x00,0x00,0x00,0x00,0x00,0x10,
 0x00,0x00,0x00,0x08,0x00,0x43,0x00,0x49,0x01,0x46,0x11,0x00,0x00,0x00,0x03,
 0x1c,0x08,0x3c,0x02,0x00,0x02,0x00,0x00,0x00,0x00,0x00,0x10,0x00,0x00,0x00,
 0x10,0x80,0x26,0x00,0x46,0x01,0x4d,0x09,0x00,0x00,0x80,0x06,0x00,0x08,0x30,
 0x01,0x00,0x01,0x00,0x00,0x00,0x00,0x00,0x60,0x00,0x00,0x00,0x20,0x00,0x00,
 0x00,0x40,0x01,0x40,0x09,0x00,0x00,0x00,0x00,0x00,0x18,0x00,0x00,0x00,0x01};
