#define 31185_img85_width 155
#define 31185_img85_height 8
static char 31185_img85_bits[] = {
 0x0e,0x00,0x00,0x00,0x00,0x00,0x00,0x00,0x00,0x00,0x00,0x00,0x18,0x00,0x00,
 0x00,0x00,0x00,0x00,0x00,0x11,0x80,0x00,0x00,0x00,0x02,0x00,0x00,0x08,0x00,
 0x00,0x00,0x10,0x00,0x04,0x00,0x00,0x10,0x00,0x00,0x11,0x70,0x20,0x04,0xc0,
 0x81,0x10,0x00,0x07,0x42,0x00,0x00,0x10,0x80,0x83,0x10,0x00,0x0e,0x42,0x00,
 0x11,0x0e,0x10,0x34,0x38,0x40,0xf0,0xe1,0x00,0xc1,0x83,0x3f,0x10,0x70,0x40,
 0x90,0xc0,0x01,0xc1,0x03,0x11,0x0c,0x90,0x24,0x30,0x40,0x32,0xc1,0x00,0x49,
 0x04,0x00,0x10,0x60,0x40,0xd2,0x80,0x01,0xc9,0x03,0x11,0x70,0x90,0x24,0xc0,
 0x41,0x12,0x01,0x07,0x49,0x83,0x3f,0x10,0x80,0x43,0xb2,0x00,0x0e,0xc9,0x04,
 0x0e,0x80,0xf0,0x23,0x00,0xc2,0xcf,0x00,0x08,0xbf,0x04,0x00,0x78,0x00,0xc4,
 0xef,0x01,0x10,0xbf,0x04,0x00,0x00,0x00,0x70,0x00,0x00,0xe0,0x01,0x00,0x00,
 0x07,0x00,0x00,0x00,0x00,0x80,0x01,0x00,0x00,0x03};
