#define 31097_img81_width 41
#define 31097_img81_height 9
static char 31097_img81_bits[] = {
 0x00,0x00,0x00,0x00,0xe0,0x00,0x00,0x00,0x00,0x00,0x10,0x01,0x38,0x00,0x00,
 0x00,0x10,0x01,0x64,0x20,0x0c,0xfe,0x10,0x01,0x62,0x20,0x08,0x00,0x10,0x01,
 0xd2,0x21,0x08,0xfe,0x10,0x01,0xce,0xfc,0x08,0x00,0xe0,0x00,0xa2,0x21,0x1c,
 0x00,0x00,0x00,0x01,0x20,0x00,0x00,0x00,0x00};
