#define 31207_img86_width 103
#define 31207_img86_height 8
static char 31207_img86_bits[] = {
 0x0e,0x00,0x00,0x00,0x00,0x00,0x00,0x00,0x00,0x00,0x00,0x00,0x00,0x11,0x80,
 0x00,0x00,0x00,0x01,0x00,0x00,0x02,0x00,0x00,0x02,0x00,0x11,0x70,0x20,0x02,
 0xe0,0x20,0x02,0xc0,0x41,0x04,0xc0,0x81,0x08,0x11,0x0e,0x20,0x0d,0x1c,0x20,
 0x3d,0x38,0x40,0x3a,0x38,0x80,0x24,0x11,0x0c,0x20,0x09,0x18,0x20,0x25,0x30,
 0x40,0x42,0x30,0x80,0x34,0x11,0x70,0xa0,0x08,0xe0,0xa0,0x20,0xc0,0x41,0x31,
 0xc0,0x81,0x2a,0x0e,0x80,0x60,0x08,0x00,0x61,0x18,0x00,0xc2,0x48,0x00,0x82,
 0x79,0x00,0x00,0x00,0x1c,0x00,0x00,0x3c,0x00,0x00,0x70,0x00,0x00,0x60};
