#define 31383_img94_width 12
#define 31383_img94_height 9
static char 31383_img94_bits[] = {
 0x08,0x00,0x18,0x00,0x14,0x00,0x34,0x00,0x22,0x02,0x62,0x02,0x41,0x0e,0xff,
 0x06,0x00,0x0d};
