#define 31361_img93_width 128
#define 31361_img93_height 27
static char 31361_img93_bits[] = {
 0x00,0x00,0x00,0x00,0x00,0x00,0x00,0x00,0x80,0x05,0x00,0x00,0x00,0x00,0x60,
 0x01,0x00,0x00,0x00,0x00,0x00,0x00,0x00,0x30,0x40,0x0a,0x00,0x00,0x00,0x00,
 0x90,0x02,0x00,0x00,0x00,0x00,0x00,0x00,0x00,0x20,0x00,0x01,0x00,0x00,0x00,
 0x00,0x40,0x00,0x00,0x08,0x00,0x00,0x00,0x00,0x00,0x20,0x20,0x81,0x7b,0x80,
 0x00,0x00,0x40,0x40,0x00,0x00,0x00,0x00,0x00,0x00,0x00,0x20,0x20,0x01,0x11,
 0x80,0x80,0x00,0x40,0x40,0xff,0xec,0x03,0x00,0x00,0x00,0x00,0x70,0xbc,0x03,
 0x11,0xf0,0x80,0x00,0xe7,0x78,0x92,0x48,0x02,0x00,0x00,0x00,0x00,0x00,0x24,
 0x80,0x1f,0x90,0x80,0x80,0x05,0x48,0x92,0x48,0x42,0x00,0x00,0x00,0x00,0xf8,
 0x12,0x80,0x88,0x48,0xf0,0x87,0x04,0x24,0x92,0x48,0x42,0x00,0x00,0x00,0x00,
 0x00,0x52,0x80,0x88,0x48,0x81,0x80,0x14,0xa4,0xff,0xfd,0x37,0x00,0x00,0x00,
 0x00,0x78,0x3e,0xe0,0x9d,0xfb,0x80,0x80,0x13,0x7c,0x00,0x00,0x28,0x00,0x00,
 0x00,0x00,0x48,0x00,0x00,0x80,0x01,0x80,0x00,0x72,0x00,0x00,0x00,0x78,0x00,
 0x00,0x00,0x00,0x40,0x00,0x00,0x40,0x03,0x00,0xc0,0x31,0x00,0x00,0x00,0x00,
 0x00,0x00,0x00,0x00,0x30,0x00,0x00,0x00,0x00,0x00,0x00,0x68,0x00,0x00,0x00,
 0x00,0x00,0x00,0x00,0x00,0x78,0x00,0x00,0x00,0x00,0x00,0x00,0x00,0x00,0x00,
 0x00,0x00,0x00,0x00,0x00,0x00,0x00,0x00,0x00,0x00,0x00,0x00,0x00,0x00,0x00,
 0x00,0x00,0x00,0x00,0x00,0x00,0x00,0x00,0x00,0x00,0x00,0x00,0x00,0x00,0x00,
 0x00,0x00,0x00,0x00,0x00,0x00,0x00,0x00,0x28,0x40,0x01,0x00,0x20,0x00,0x00,
 0x00,0x00,0x00,0x18,0x08,0x00,0x81,0x00,0x00,0x28,0x48,0x01,0x20,0x60,0x00,
 0x00,0x00,0x00,0x00,0x10,0x00,0x00,0x81,0x00,0x00,0x28,0x48,0x01,0x1c,0x50,
 0x00,0x00,0x00,0x00,0x6f,0xf3,0xc8,0x39,0x83,0x71,0x00,0x28,0x4f,0x81,0x03,
 0xd0,0x00,0x00,0x00,0x00,0x49,0x12,0x29,0x26,0x81,0x88,0x00,0x28,0x49,0x01,
 0x03,0x88,0x08,0x00,0x00,0x00,0x46,0x12,0xe9,0x07,0x81,0x88,0x00,0xa8,0x44,
 0x01,0x1c,0x88,0x09,0x00,0x00,0x00,0x49,0x12,0x29,0x06,0x85,0x8a,0x00,0xa8,
 0x54,0x01,0x20,0x04,0x39,0x00,0x00,0x00,0xcf,0xf7,0xc8,0x79,0x87,0x73,0x00,
 0xa8,0x4f,0x01,0x00,0xfc,0x1b,0x00,0x00,0x00,0x00,0x00,0x08,0x00,0x00,0x00,
 0x00,0x28,0x40,0x01,0x00,0x00,0x34,0x00,0x00,0x00,0x00,0x00,0x0c,0x00,0x00,
 0x00,0x00,0x28,0x40,0x81,0x3f,0x00,0x00,0x00,0x00,0x00,0x00,0x00,0x00,0x00,
 0x00,0x00,0x00,0x28,0x40,0x01,0x00,0x00,0x00,0x00,0x00,0x00};
