#define 31295_img90_width 103
#define 31295_img90_height 9
static char 31295_img90_bits[] = {
 0x0e,0x00,0x00,0x00,0x00,0x00,0x00,0x00,0x00,0x00,0x00,0x00,0x00,0x11,0x80,
 0x00,0x00,0x00,0x01,0x00,0x00,0x02,0x00,0x00,0x02,0x00,0x11,0x70,0xa0,0x03,
 0xe0,0xa0,0x03,0xc0,0x41,0x07,0xc0,0x81,0x0e,0x11,0x0e,0x50,0x0e,0x1c,0x50,
 0x3e,0x38,0xa0,0x3c,0x38,0x40,0x29,0x11,0x0c,0x20,0x0a,0x18,0x20,0x26,0x30,
 0x40,0x44,0x30,0x80,0x38,0x11,0x70,0x20,0x09,0xe0,0x20,0x21,0xc0,0x41,0x32,
 0xc0,0x81,0x2c,0x0e,0x80,0x20,0x09,0x00,0x21,0x19,0x00,0x42,0x4a,0x00,0x82,
 0x7c,0x00,0x00,0x00,0x1d,0x00,0x00,0x3d,0x00,0x00,0x72,0x00,0x00,0x64,0x00,
 0x00,0x80,0x00,0x00,0x80,0x00,0x00,0x00,0x01,0x00,0x00,0x02};
