#define 31471_img98_width 156
#define 31471_img98_height 8
static char 31471_img98_bits[] = {
 0x0e,0x00,0x00,0x00,0x00,0x00,0x00,0x00,0x00,0x00,0x00,0x00,0x30,0x00,0x00,
 0x00,0x00,0x00,0x00,0x00,0x11,0x80,0x00,0x00,0x00,0x04,0x00,0x00,0x10,0x00,
 0x00,0x00,0x20,0x00,0x04,0x00,0x00,0x10,0x00,0x00,0x11,0x70,0xc0,0x04,0x80,
 0x03,0x13,0x00,0x0e,0x4c,0x00,0x00,0x20,0x80,0x03,0x26,0x00,0x0e,0x98,0x00,
 0x11,0x0e,0x20,0x35,0x70,0x80,0xf4,0xc1,0x01,0xd2,0x03,0x7f,0x20,0x70,0x00,
 0x29,0xc1,0x01,0xa4,0x07,0x11,0x0c,0x10,0x23,0x60,0x40,0x2c,0x81,0x01,0x31,
 0x04,0x00,0x20,0x60,0x80,0x98,0x81,0x01,0x62,0x07,0x11,0x70,0x10,0x21,0x80,
 0x43,0x04,0x01,0x0e,0x11,0x03,0x7f,0x20,0x80,0x83,0x48,0x01,0x0e,0x22,0x09,
 0x0e,0x80,0xe0,0x22,0x00,0x84,0xcb,0x00,0x10,0xae,0x04,0x00,0xf0,0x00,0x04,
 0xd7,0x03,0x10,0x5c,0x09,0x00,0x00,0x00,0x70,0x00,0x00,0xe0,0x01,0x00,0x00,
 0x07,0x00,0x00,0x00,0x00,0x00,0x03,0x00,0x00,0x06};
