#define 31427_img96_width 90
#define 31427_img96_height 17
static char 31427_img96_bits[] = {
 0x00,0x00,0x00,0x00,0x02,0x10,0x00,0x10,0x00,0x00,0x80,0x00,0x00,0x00,0x00,
 0x20,0x01,0x20,0x00,0x09,0x00,0x04,0x02,0x01,0x00,0x00,0x00,0x20,0x01,0x40,
 0x00,0x09,0x00,0x04,0x02,0x02,0x00,0x00,0x00,0x30,0x79,0x41,0x80,0x89,0x0f,
 0x84,0x09,0x02,0x00,0x00,0x00,0x10,0x11,0x45,0x9f,0x08,0xa9,0x5f,0x29,0x02,
 0x00,0x00,0x00,0x10,0x3d,0x43,0x80,0xc8,0x1b,0xc4,0x1b,0x02,0x1a,0x00,0x00,
 0x10,0x81,0x22,0x80,0x08,0x14,0x04,0x14,0x01,0x05,0xc0,0x1f,0x0c,0x02,0x20,
 0x60,0x10,0x00,0x00,0x00,0x01,0x4f,0x00,0x00,0xfc,0xff,0xff,0xff,0xff,0xff,
 0xff,0xff,0x03,0x59,0xc0,0x1f,0x00,0x02,0x10,0x00,0x10,0x00,0x00,0x40,0x00,
 0xd9,0x01,0x00,0x00,0x01,0x20,0x00,0x08,0x00,0x02,0x81,0x00,0xc0,0x00,0x00,
 0x00,0x01,0x40,0x00,0x08,0x00,0x02,0x01,0x01,0xa0,0x01,0x00,0x70,0x79,0x41,
 0xc0,0xc9,0x0b,0xc2,0x04,0x01,0x00,0x00,0x00,0x48,0x11,0x45,0x3f,0x89,0xe8,
 0xaf,0x14,0x01,0x00,0x00,0x00,0x38,0x3d,0x43,0xe0,0xe8,0x19,0xe2,0x0d,0x01,
 0x00,0x00,0x00,0x20,0x81,0x22,0x80,0x08,0x14,0x02,0x8a,0x00,0x00,0x00,0x00,
 0x30,0x02,0x20,0xc0,0x10,0x00,0x00,0x80,0x00};
