#define 31405_img95_width 18
#define 31405_img95_height 11
static char 31405_img95_bits[] = {
 0x05,0x80,0x02,0x05,0x80,0x02,0x05,0x80,0x02,0xe5,0x80,0x02,0x25,0x8d,0x02,
 0xc5,0x92,0x02,0x25,0x93,0x02,0xe5,0x92,0x02,0x05,0x8c,0x02,0x05,0x80,0x02,
 0x05,0x80,0x02};
